v -0.016445173 0.017458709 0.009931943
v -0.015853416 0.003799334 0.008640373
v -0.016418438 0.017416927 0.000602958
v -0.022343377 0.012270531 0.000361516
v -0.022875477 0.016634197 0.010219138
v -0.016066971 0.001341081 0.000507062
v -0.016171724 0.004785197 0.009871551
v -0.022527653 0.013677669 0.001091789
v -0.015896811 0.001438345 0.001641131
v -0.017037465 0.013712399 0.000266009
v -0.016380132 0.001829681 0.000336903
v -0.021053244 0.010005244 0.000337599
f 1 2 3
f 5 4 2
f 5 1 3
f 7 5 2
f 7 2 1
f 7 1 5
f 8 5 3
f 8 3 4
f 8 4 5
f 9 6 3
f 9 3 2
f 9 2 6
f 10 4 3
f 11 6 2
f 11 2 4
f 11 10 3
f 11 3 6
f 12 11 4
f 12 4 10
f 12 10 11
