v -0.000521659 -0.000034094 0.032505091
v 0.006400346 -0.014843649 0.027806871
v 0.004816585 -0.001071481 0.014111103
v -0.009214602 -0.005755384 0.014553263
v -0.000605739 -0.017187203 0.024977685
v -0.004477055 0.001073974 0.032275590
v 0.007486063 0.001335777 0.026729180
v 0.005264736 -0.016294323 0.014347073
v 0.002105876 0.000957288 0.019822196
v -0.006463646 -0.006226228 0.027020224
v -0.005010438 -0.003234551 0.032071897
v 0.006926859 -0.009400663 0.028588483
v 0.001813349 -0.018061611 0.024758825
v 0.006719006 -0.009349990 0.014499792
v -0.003565172 -0.015708777 0.014358119
v 0.006316511 0.000991131 0.019578213
v 0.001655257 -0.015626296 0.026938644
v -0.007369981 -0.005368674 0.024929982
v 0.007129185 -0.005869532 0.028157617
v 0.005944176 -0.013850407 0.014086518
v -0.008237144 -0.007533289 0.014358328
v -0.001428700 -0.016989858 0.021406048
v 0.001465993 -0.017703198 0.021663341
v -0.008533854 -0.005366214 0.019089537
v -0.006947138 -0.009798546 0.014334450
f 7 6 1
f 9 3 4
f 9 4 6
f 9 6 7
f 11 2 1
f 11 1 6
f 11 10 5
f 12 1 2
f 13 8 2
f 14 12 2
f 16 9 7
f 16 3 9
f 16 14 3
f 16 7 14
f 17 11 5
f 17 2 11
f 17 13 2
f 17 5 13
f 18 11 6
f 18 10 11
f 18 4 15
f 18 15 5
f 18 5 10
f 19 7 1
f 19 1 12
f 19 14 7
f 19 12 14
f 20 3 14
f 20 8 15
f 20 14 2
f 20 2 8
f 21 15 4
f 21 4 3
f 21 3 20
f 22 13 5
f 22 5 15
f 23 15 8
f 23 8 13
f 23 22 15
f 23 13 22
f 24 18 6
f 24 6 4
f 24 4 18
f 25 21 20
f 25 20 15
f 25 15 21
