v 0.006968755 0.001021640 -0.037923693
v 0.011945883 -0.000023689 -0.050067492
v 0.008848757 0.001732594 -0.039339908
v 0.007361089 -0.000758399 -0.052893411
v 0.001190027 -0.004713402 -0.043744079
v 0.007508704 0.000179257 -0.050477178
v 0.006324434 -0.004811751 -0.053459367
v 0.011673523 0.000305916 -0.050003269
v 0.000505041 0.000173055 -0.037627648
v -0.002857842 -0.001957356 -0.037555238
v 0.004778575 -0.003586645 -0.052425195
v -0.002685988 -0.003962733 -0.037479597
v 0.004461503 -0.002097548 -0.051404397
v 0.004872161 -0.002644304 -0.052361593
v 0.000252244 -0.003450317 -0.038400937
v -0.001693071 -0.001209814 -0.037552659
v -0.002374095 -0.003705957 -0.038485318
v 0.006506265 -0.001246879 -0.052722978
f 7 4 2
f 7 2 3
f 7 3 5
f 8 6 3
f 8 3 2
f 8 2 4
f 8 4 6
f 9 1 3
f 9 3 6
f 11 7 5
f 12 1 9
f 12 11 5
f 13 10 9
f 14 7 11
f 14 11 10
f 14 10 13
f 15 12 5
f 15 1 12
f 15 5 3
f 15 3 1
f 16 12 9
f 16 9 10
f 16 10 12
f 17 12 10
f 17 10 11
f 17 11 12
f 18 4 7
f 18 7 14
f 18 14 13
f 18 6 4
f 18 13 9
f 18 9 6
