v 0.012184837 0.022153975 0.001644165
v 0.017536645 -0.007452249 -0.005634211
v 0.017386054 0.004730620 0.000290564
v 0.009849408 0.013701675 -0.009663357
v 0.010900076 -0.007132171 0.000844093
v 0.010210814 0.013318633 -0.009282876
v 0.009787609 0.024200048 -0.000241542
v 0.011541897 -0.007068752 -0.013404690
v 0.015021094 -0.006783109 -0.000064707
v 0.016517612 0.008955394 0.001261158
v 0.011281739 0.024484769 0.001143121
v 0.009758843 0.003209952 -0.010605807
v 0.012026743 -0.007327257 -0.012890520
v 0.017456347 -0.006805139 -0.004683985
v 0.010368839 0.024479867 0.000660624
v 0.009645927 0.021795202 -0.002513982
v 0.011024886 -0.004928520 -0.013015533
v 0.014024775 -0.007455111 -0.010300331
v 0.017397616 0.004282169 0.000080465
v 0.010799242 0.024494042 0.000887985
v 0.011374308 -0.007206406 -0.000072467
f 6 2 4
f 9 5 2
f 10 1 5
f 10 3 6
f 10 9 3
f 10 5 9
f 11 6 4
f 11 10 6
f 11 1 10
f 11 4 7
f 13 8 4
f 13 5 8
f 14 9 2
f 14 3 9
f 15 7 5
f 15 5 1
f 15 1 11
f 16 7 4
f 16 4 12
f 16 12 5
f 16 5 7
f 17 8 5
f 17 5 12
f 17 12 4
f 17 4 8
f 18 13 4
f 18 4 2
f 19 14 2
f 19 3 14
f 19 6 3
f 19 2 6
f 20 15 11
f 20 11 7
f 20 7 15
f 21 18 2
f 21 2 5
f 21 5 13
f 21 13 18
