v 0.017330346 0.018340288 0.009884737
v 0.019050576 0.018061808 0.007226707
v 0.009158185 0.033961514 0.001101322
v 0.005142459 0.028882587 -0.004934912
v 0.009436849 0.000906822 0.005978443
v 0.019095404 0.018652056 0.005331938
v 0.008605000 0.033973001 0.002147000
v 0.012258455 0.001227894 0.008499929
v 0.016071234 0.023372223 0.004555956
v 0.009459000 0.033801001 0.000085000
v 0.016674365 0.001284889 0.000191668
v 0.018146893 0.018295517 0.008543363
v 0.005946064 0.026515695 0.005214815
v 0.016764915 0.014984668 0.009572602
v 0.018655778 0.019454256 0.005091433
v 0.006524310 0.031427555 -0.001323557
v 0.012153691 0.001030015 0.000889507
v 0.008240282 0.006933843 0.010015928
v 0.009909054 0.018496228 0.010281821
v 0.005494900 0.027873517 -0.005124910
v 0.007666410 0.032326072 -0.000847555
v 0.006797883 0.032625919 0.001606487
v 0.011406155 0.000964206 0.002280299
v 0.006600776 0.016661892 0.000025278
v 0.008962617 0.000981057 0.006895004
v 0.012418014 0.010536798 0.012089766
v 0.008254000 0.033824001 0.002364000
v 0.009080365 0.013810088 0.010461428
v 0.006671755 0.032365515 0.001092629
v 0.012101384 0.005935531 0.010753763
v 0.012222259 0.009412536 0.011985897
f 7 2 3
f 9 3 2
f 10 3 9
f 10 7 3
f 11 8 5
f 11 6 2
f 12 7 1
f 12 1 2
f 12 2 7
f 14 2 1
f 14 11 2
f 14 8 11
f 15 9 2
f 15 2 6
f 15 10 9
f 20 4 10
f 20 10 15
f 20 11 17
f 20 15 6
f 20 6 11
f 21 10 4
f 21 4 16
f 22 21 16
f 22 10 21
f 23 17 11
f 23 11 5
f 24 18 13
f 24 13 4
f 24 4 20
f 24 23 5
f 24 20 17
f 24 17 23
f 25 5 8
f 25 8 18
f 25 24 5
f 25 18 24
f 26 14 1
f 26 1 19
f 27 19 1
f 27 1 7
f 27 13 19
f 27 22 13
f 27 7 10
f 27 10 22
f 28 19 13
f 28 13 18
f 28 26 19
f 28 18 26
f 29 22 16
f 29 16 4
f 29 4 13
f 29 13 22
f 30 18 8
f 30 8 14
f 31 26 18
f 31 18 30
f 31 30 14
f 31 14 26
