v 0.002453341 -0.014912496 0.021635201
v 0.007019957 -0.023172980 0.008203047
v 0.008378449 -0.015298396 0.008922235
v -0.003125711 -0.018460272 0.008663995
v 0.002936813 -0.026807622 0.014350288
v -0.002637106 -0.019348927 0.008566758
v -0.000720799 -0.014490692 0.020593585
v -0.001917326 -0.016101242 0.021503300
v -0.000545008 -0.022992103 0.008615274
v 0.006976876 -0.014988441 0.011678499
v 0.005233892 -0.015334931 0.009111494
v -0.003252437 -0.016196710 0.014529008
v 0.000760712 -0.021033598 0.020796054
v -0.001346754 -0.021614843 0.008542397
v -0.002740886 -0.015904373 0.017930930
v 0.002697738 -0.026323217 0.014996562
v 0.000767954 -0.020706692 0.020936277
v 0.001263756 -0.023756978 0.015477786
v 0.002754893 -0.026598464 0.014488849
v 0.002122202 -0.015912379 0.021575555
v -0.000940074 -0.017878474 0.021308795
f 1 2 3
f 5 2 1
f 6 3 2
f 6 4 3
f 8 1 7
f 9 2 5
f 10 7 1
f 10 1 3
f 11 3 4
f 11 10 3
f 11 7 10
f 12 4 6
f 12 11 4
f 12 7 11
f 13 12 9
f 13 8 12
f 14 6 2
f 14 2 9
f 14 12 6
f 14 9 12
f 15 12 8
f 15 8 7
f 15 7 12
f 16 5 1
f 16 1 13
f 18 13 9
f 19 9 5
f 19 5 16
f 19 18 9
f 19 16 13
f 19 13 18
f 20 17 13
f 20 13 1
f 20 1 8
f 21 8 13
f 21 13 17
f 21 20 8
f 21 17 20
