v -0.021639853 0.030465985 0.047657221
v -0.012574255 0.018197025 0.047490026
v -0.006757589 0.029647157 0.024686511
v -0.022876014 0.021855771 0.025210893
v -0.016903483 0.019049720 0.047158640
v -0.016143094 0.018161614 0.032320742
v -0.009853386 0.030298701 0.025524586
v -0.018859441 0.030467296 0.046657722
v -0.013050726 0.019099084 0.047603244
v -0.022876812 0.029633096 0.047540514
v -0.006562889 0.028953313 0.024772711
v -0.020054732 0.019251184 0.031905363
v -0.012777145 0.018083807 0.046370294
v -0.007819354 0.030903712 0.024741665
v -0.006874890 0.029102536 0.025774264
v -0.015847845 0.023022065 0.024804599
v -0.016642869 0.029290382 0.044258879
v -0.007906601 0.028060011 0.024677037
v -0.013648667 0.024403613 0.024730187
f 7 4 1
f 9 5 2
f 9 8 1
f 10 1 4
f 10 4 5
f 10 9 1
f 10 5 9
f 12 6 5
f 12 5 4
f 12 4 6
f 13 2 5
f 13 5 6
f 13 11 2
f 13 6 11
f 14 4 7
f 14 7 1
f 14 1 8
f 15 9 2
f 15 3 14
f 15 11 3
f 15 2 11
f 16 6 4
f 17 8 9
f 17 9 15
f 17 15 14
f 17 14 8
f 18 11 6
f 18 3 11
f 18 14 3
f 19 16 4
f 19 4 14
f 19 14 18
f 19 18 6
f 19 6 16
