v 0.010900076 -0.007132171 0.000844093
v 0.017530954 -0.009157564 -0.005812516
v 0.017456347 -0.006805139 -0.004683985
v 0.012924292 -0.006981012 -0.005371630
v 0.005601287 -0.034365038 -0.005335093
v 0.017690647 -0.007083706 -0.005244439
v 0.015021094 -0.006783109 -0.000064707
v 0.005217477 -0.034274621 -0.004370926
v 0.006242742 -0.034052050 -0.005616536
v 0.005512921 -0.032399527 0.000461700
v 0.010206639 -0.010710275 0.001095620
v 0.005194830 -0.033071135 -0.000879360
v 0.012931848 -0.029821220 -0.005778625
v 0.010162584 -0.028932612 -0.000163353
v 0.006132035 -0.028693552 0.000798678
v 0.008441003 -0.032669104 -0.005691353
v 0.010616608 -0.030083126 -0.002274757
v 0.007222714 -0.031422603 0.000120958
v 0.012450910 -0.029810269 -0.004863593
f 6 2 4
f 6 4 3
f 7 3 4
f 7 4 1
f 7 6 3
f 8 1 4
f 8 4 5
f 9 5 4
f 9 4 2
f 10 8 5
f 11 7 1
f 12 1 8
f 12 8 10
f 13 5 9
f 14 7 11
f 15 11 1
f 15 14 11
f 15 10 14
f 15 12 10
f 15 1 12
f 16 13 9
f 16 9 2
f 16 2 13
f 17 5 13
f 18 17 14
f 18 14 10
f 18 10 5
f 18 5 17
f 19 17 13
f 19 14 17
f 19 7 14
f 19 6 7
f 19 13 2
f 19 2 6
