v -0.000902523 0.027408533 0.000784044
v -0.000732485 0.027142785 -0.000291251
v -0.022346354 0.007306943 -0.017505720
v -0.005267579 0.005395546 -0.045234503
v 0.000149147 0.012454741 -0.028835491
v -0.001959433 0.010885063 -0.044705283
v -0.002010199 0.023299693 0.000181211
v -0.018405495 0.008859932 0.000769243
v -0.008190346 0.007035574 -0.044291286
v -0.003068322 0.006776995 -0.045308873
v -0.000726633 0.017790187 -0.027150818
v -0.019217765 0.004439394 -0.015509148
v -0.001758059 0.026920316 0.000954102
v -0.000622573 0.021131210 -0.017750762
v -0.000874604 0.016853412 -0.029567145
v -0.022505688 0.012475418 -0.002400087
v -0.021480522 0.005148776 -0.015756169
v -0.022875140 0.013352883 0.000798098
v -0.007033952 0.005647158 -0.044318821
v -0.020328799 0.015059085 0.001017430
v -0.021053244 0.010005244 0.000337599
v -0.022112626 0.006563326 -0.014867409
v -0.007500389 0.023264304 0.001007112
v -0.022583990 0.007927812 -0.015289846
f 7 5 2
f 7 2 1
f 8 5 7
f 9 6 4
f 10 6 5
f 10 5 4
f 10 4 6
f 12 4 5
f 12 5 8
f 13 8 7
f 13 7 1
f 14 11 2
f 14 2 5
f 14 5 11
f 15 11 5
f 15 5 6
f 15 6 11
f 16 11 6
f 16 6 9
f 17 12 8
f 19 9 4
f 19 4 12
f 19 12 17
f 19 17 3
f 19 3 9
f 20 18 8
f 20 16 18
f 20 2 11
f 20 11 16
f 20 13 1
f 20 1 2
f 21 17 8
f 21 8 18
f 22 3 17
f 22 21 18
f 22 17 21
f 23 20 8
f 23 8 13
f 23 13 20
f 24 22 18
f 24 3 22
f 24 18 16
f 24 16 9
f 24 9 3
