v -0.000364071 0.016711893 0.045991146
v 0.020054704 0.015801095 0.005867690
v 0.019095404 0.018652056 0.005331938
v 0.017269427 0.018642223 0.004367063
v 0.001056172 0.010282483 0.024556837
v 0.017178619 0.012776423 0.004060016
v -0.000434214 0.018661236 0.043633935
v 0.019660905 0.016766232 0.008100838
v 0.019627850 0.017937847 0.005620599
v 0.008660401 0.010371910 0.010238611
v 0.004344176 0.011138987 0.035497638
v -0.000368737 0.011528609 0.038835663
v 0.002309680 0.018444687 0.024602196
v -0.000336036 0.017487132 0.045404514
v 0.019618426 0.017568308 0.006914904
v 0.013639657 0.010524815 0.009782375
v 0.019669398 0.016328234 0.008086101
v -0.000361096 0.017258327 0.031983703
v -0.000903739 0.017979780 0.045716730
v 0.000628661 0.011107359 0.038345002
v 0.009909054 0.018496228 0.010281821
v 0.006724698 0.017014105 0.032578165
v 0.005974990 0.018519422 0.031639650
v 0.005812933 0.010646471 0.024618345
v 0.004721409 0.010258041 0.017635455
v 0.000581926 0.010356712 0.025473379
v -0.000682079 0.016039756 0.044650112
v -0.000124696 0.018636399 0.043180483
v 0.007912907 0.010306098 0.011629412
f 6 4 3
f 7 3 4
f 9 6 3
f 9 2 6
f 10 4 6
f 15 14 8
f 15 9 3
f 15 8 2
f 15 2 9
f 16 6 2
f 16 2 11
f 16 10 6
f 17 1 11
f 17 11 2
f 17 2 8
f 18 7 13
f 19 18 12
f 19 7 18
f 19 1 14
f 20 11 1
f 20 1 12
f 20 5 11
f 21 13 7
f 21 7 4
f 21 4 10
f 21 5 13
f 22 14 1
f 22 8 14
f 22 17 8
f 22 1 17
f 23 15 3
f 23 19 14
f 23 14 15
f 24 16 11
f 24 11 5
f 24 5 16
f 25 16 5
f 25 21 10
f 25 5 21
f 26 12 18
f 26 20 12
f 26 5 20
f 26 18 13
f 26 13 5
f 27 19 12
f 27 12 1
f 27 1 19
f 28 23 3
f 28 3 7
f 28 7 19
f 28 19 23
f 29 25 10
f 29 10 16
f 29 16 25
