v 0.011934654 0.002693205 0.050871163
v 0.021996453 -0.003989689 0.042094990
v 0.013239759 0.011391617 0.034607311
v 0.006289237 0.002204966 0.025440540
v 0.006335023 -0.016838857 0.034399846
v 0.022102772 0.001030046 0.033950896
v -0.000913324 0.011317986 0.039410418
v 0.016076646 -0.003705390 0.048365273
v 0.016960156 0.008407878 0.032172525
v 0.006184738 -0.012506820 0.025883788
v 0.008531344 0.010338603 0.045323647
v -0.002123520 0.011948113 0.031046862
v 0.004678477 -0.008971533 0.045260722
v 0.019826716 -0.003982702 0.046256523
v 0.019727999 0.005164000 0.031982001
v 0.021954794 -0.002446996 0.036382271
v 0.009712713 0.006241673 0.049529342
v 0.009125165 0.011743511 0.041961827
v 0.000267334 0.000448430 0.032470550
v 0.006120427 0.006648317 0.027707276
v 0.014473867 -0.000251707 0.050647570
v 0.006360102 -0.014097568 0.040718255
v 0.016480861 -0.007923056 0.042107991
v 0.008288806 -0.009008202 0.026333527
v 0.014999257 -0.006347066 0.031059036
v 0.022236307 0.000530586 0.034328568
v 0.007981489 -0.015164585 0.031420797
v 0.009111898 0.007543452 0.048564286
v 0.003137698 0.000775235 0.046114673
v 0.008733802 0.011486263 0.043120729
v 0.012741758 0.011683726 0.035103598
v 0.006272265 -0.015868565 0.028993366
v 0.000669908 0.000711557 0.044090475
v 0.016219933 -0.001845012 0.049808536
v 0.004963219 -0.004297557 0.047045633
v 0.006334572 -0.015420997 0.038677316
v 0.006751567 -0.009598823 0.044910948
v 0.019009000 -0.003670000 0.047332998
v 0.021091610 -0.004426774 0.043405007
v 0.020069247 0.001289022 0.032313554
v 0.010493195 -0.007786039 0.027668512
v 0.022016929 -0.003505101 0.038421224
v 0.022002489 -0.001492162 0.035449303
v 0.013838952 -0.006386271 0.029946783
v 0.006301462 -0.016890413 0.032210027
v 0.009044992 0.008173877 0.047759346
v 0.008798148 0.002291538 0.049407015
v 0.003351904 0.001740218 0.045988654
v 0.008714871 0.011424526 0.043254673
v 0.009069496 -0.011942785 0.028509579
v 0.013105566 0.000338568 0.050669761
v 0.004829490 -0.007648359 0.045877056
v 0.008308153 -0.015031868 0.036422530
v 0.018867172 -0.005537915 0.044269034
v 0.009679302 -0.012604572 0.040559147
v 0.012173025 -0.006916389 0.046334943
v 0.016642523 -0.002165573 0.049503486
v 0.021924648 -0.004030774 0.042297821
v 0.018377895 -0.005888830 0.035256985
v 0.011379494 -0.011751320 0.031767376
v 0.006874080 -0.012249027 0.026397074
v 0.019910655 -0.005766271 0.040197501
v 0.020860398 -0.004684221 0.038416962
v 0.011520536 0.003246407 0.050792806
f 12 4 10
f 12 3 9
f 15 4 9
f 15 2 6
f 15 14 2
f 18 12 7
f 19 12 10
f 20 12 9
f 20 9 4
f 20 4 12
f 24 10 4
f 24 4 15
f 26 6 2
f 28 11 7
f 28 7 17
f 30 18 7
f 30 21 18
f 31 3 12
f 31 12 18
f 31 15 9
f 31 9 3
f 31 18 21
f 31 21 14
f 31 14 15
f 32 19 10
f 33 19 5
f 33 7 12
f 33 12 19
f 34 21 13
f 35 29 33
f 36 22 13
f 36 33 5
f 36 13 33
f 37 13 22
f 37 34 13
f 40 24 15
f 40 15 6
f 40 6 24
f 41 24 6
f 41 6 10
f 41 10 24
f 42 26 2
f 42 16 26
f 43 26 16
f 43 25 26
f 44 26 25
f 44 10 6
f 44 6 26
f 45 32 27
f 45 5 19
f 45 19 32
f 46 28 17
f 46 11 28
f 47 17 29
f 47 29 35
f 48 29 17
f 48 17 7
f 48 33 29
f 48 7 33
f 49 30 7
f 49 7 11
f 49 46 30
f 49 11 46
f 50 25 43
f 50 43 16
f 50 16 32
f 51 21 1
f 51 1 35
f 52 35 33
f 52 33 13
f 52 51 35
f 52 13 21
f 52 21 51
f 53 36 5
f 53 23 36
f 53 39 23
f 54 39 14
f 54 23 39
f 55 22 36
f 55 38 22
f 55 14 38
f 55 54 14
f 55 36 23
f 55 23 54
f 56 37 22
f 56 34 37
f 56 38 8
f 56 22 38
f 57 8 38
f 57 56 8
f 57 34 56
f 57 21 34
f 57 38 14
f 57 14 21
f 58 5 2
f 58 2 14
f 58 14 39
f 58 53 5
f 58 39 53
f 59 16 42
f 60 42 27
f 60 27 32
f 60 59 42
f 60 32 16
f 60 16 59
f 61 44 25
f 61 10 44
f 61 25 50
f 61 50 32
f 61 32 10
f 62 2 5
f 62 5 45
f 63 45 27
f 63 27 42
f 63 62 45
f 63 42 2
f 63 2 62
f 64 17 47
f 64 46 17
f 64 30 46
f 64 1 21
f 64 21 30
f 64 47 35
f 64 35 1
