v 0.001582701 0.013159560 -0.044684419
v 0.013197675 -0.000575602 -0.053945769
v 0.006042000 0.011428000 -0.057849001
v 0.000565996 0.006924103 -0.060698144
v -0.006465827 0.005153958 -0.044630834
v 0.012980482 0.000604929 -0.054072522
v 0.010787286 0.000557698 -0.047468050
v -0.007699017 0.007225087 -0.044650792
v 0.008008000 -0.004844000 -0.056644998
v 0.001733607 0.013180871 -0.044900440
v 0.006746296 0.005681181 -0.044991768
v 0.012960065 -0.000210661 -0.052465471
v -0.002814289 0.010396595 -0.044534864
v -0.006970475 0.007012189 -0.046599490
v 0.006719105 -0.003260711 -0.049739016
v -0.007527338 0.006409255 -0.044575461
v 0.000703021 0.006550756 -0.060621930
v 0.006069467 -0.004806868 -0.052976920
v 0.011945883 -0.000023689 -0.050067492
v -0.006355711 0.008119454 -0.044555342
v -0.000133696 0.006881129 -0.059535834
v 0.006401049 -0.003932494 -0.051080070
f 6 2 4
f 6 4 3
f 10 6 3
f 10 3 1
f 11 5 7
f 11 10 1
f 11 6 10
f 12 2 6
f 12 11 7
f 12 6 11
f 13 1 3
f 13 3 4
f 13 11 1
f 13 5 11
f 15 7 5
f 16 5 13
f 16 8 14
f 17 9 16
f 17 4 2
f 17 2 9
f 18 9 2
f 18 16 9
f 18 5 16
f 19 12 7
f 19 7 15
f 19 15 2
f 19 2 12
f 20 16 13
f 20 8 16
f 20 13 4
f 20 14 8
f 21 4 17
f 21 20 4
f 21 14 20
f 21 17 16
f 21 16 14
f 22 15 5
f 22 5 18
f 22 18 2
f 22 2 15
