v -0.009853386 0.030298701 0.025524586
v -0.001258452 0.028994528 0.015145894
v 0.000441229 0.028301726 0.000879746
v -0.017273975 0.016928711 0.000773016
v -0.016703311 0.022533820 0.024974685
v -0.005553113 0.021024885 0.000159940
v 0.000397312 0.030706242 0.007863493
v -0.006142442 0.029088451 0.024388202
v -0.022056446 0.017101883 0.010056235
v -0.000666473 0.024192966 0.000276868
v -0.007251680 0.030410494 0.024429426
v -0.016083931 0.026237711 0.025311835
v -0.016549220 0.014117456 0.000531770
v -0.002010199 0.023299693 0.000181211
v -0.001290928 0.030509948 0.012812964
v -0.013396427 0.028024098 0.025503240
v -0.017059478 0.014914736 0.003757854
v -0.019495222 0.016749560 0.004339246
v -0.014838288 0.015093947 0.000191597
v -0.017021470 0.021863002 0.023633563
v -0.021886351 0.016836188 0.008980841
v -0.017081491 0.016117074 0.007249699
f 8 1 5
f 10 2 8
f 10 8 5
f 10 5 6
f 10 7 2
f 10 3 7
f 11 7 1
f 11 1 8
f 12 9 5
f 12 1 7
f 14 10 6
f 14 3 10
f 14 6 4
f 14 4 3
f 15 2 7
f 15 7 11
f 15 11 8
f 15 8 2
f 16 12 5
f 16 5 1
f 16 1 12
f 17 9 13
f 17 13 6
f 18 4 13
f 18 12 7
f 18 7 3
f 18 3 4
f 19 13 4
f 19 4 6
f 19 6 13
f 20 5 9
f 20 6 5
f 21 18 13
f 21 13 9
f 21 9 12
f 21 12 18
f 22 20 9
f 22 9 17
f 22 17 6
f 22 6 20
