v 0.006249206 0.018099331 0.031777001
v 0.007129185 -0.005869532 0.028157617
v 0.007475199 0.017750456 0.025420840
v 0.002839660 0.018631818 0.023657684
v -0.004477055 0.001073974 0.032275590
v 0.006441064 0.001037272 0.025404035
v 0.006747316 0.001967085 0.031083431
v -0.001812530 0.018721046 0.032460003
v -0.001325125 -0.004425279 0.027087260
v -0.001509847 -0.000845809 0.031994528
v -0.004178036 0.000165859 0.030178652
v -0.001085095 0.000908468 0.025827950
v 0.004692007 -0.005826703 0.027116275
v -0.003776897 0.006803903 0.032646928
v 0.006668594 -0.005906354 0.027930748
v -0.002663417 0.013820081 0.032618057
f 1 3 4
f 6 3 2
f 6 4 3
f 7 2 3
f 7 3 1
f 8 1 4
f 10 2 7
f 10 9 2
f 10 5 9
f 11 8 4
f 11 9 5
f 12 4 6
f 12 6 9
f 12 11 4
f 12 9 11
f 13 9 6
f 14 10 7
f 14 7 1
f 14 5 10
f 14 11 5
f 15 13 6
f 15 6 2
f 15 2 9
f 15 9 13
f 16 14 1
f 16 1 8
f 16 8 11
f 16 11 14
