v -0.006665205 -0.006292316 0.014767878
v 0.001718455 -0.023701148 0.008862019
v -0.017316042 0.008819869 -0.013265199
v -0.021969271 0.005977176 -0.015831578
v -0.002275142 -0.017974086 0.014334435
v -0.001119993 -0.023791686 -0.005657489
v -0.020739835 0.009515906 0.000507191
v 0.000162761 -0.018586509 0.014537541
v 0.000192480 -0.025073667 -0.002745973
v -0.019295362 0.006585176 -0.016042466
v -0.003696093 -0.022594253 -0.006075821
v -0.018405495 0.008859932 0.000769243
v -0.022557255 0.009812411 -0.007771526
v -0.009214602 -0.005755384 0.014553263
v -0.001271284 -0.015885386 0.014871781
v 0.000703054 -0.024781836 0.000656198
v -0.022872006 0.008489927 -0.013150074
v -0.018904616 0.003950907 -0.015338683
v -0.000545008 -0.022992103 0.008615274
v -0.021393297 0.009810133 -0.001931021
v -0.005873230 -0.007670706 0.014855507
v -0.020992034 0.004386752 -0.015490277
v -0.002541274 -0.013606622 0.014895566
f 8 2 3
f 8 5 2
f 9 6 3
f 10 3 6
f 11 6 9
f 12 7 1
f 12 1 3
f 13 5 7
f 14 7 5
f 14 1 7
f 15 8 3
f 15 14 5
f 15 5 8
f 16 9 3
f 16 3 2
f 17 10 4
f 17 3 10
f 17 13 3
f 17 5 13
f 17 4 11
f 18 10 6
f 18 6 11
f 19 2 5
f 19 17 11
f 19 5 17
f 19 16 2
f 19 11 9
f 19 9 16
f 20 12 3
f 20 7 12
f 20 13 7
f 20 3 13
f 21 3 1
f 21 1 14
f 22 18 11
f 22 11 4
f 22 4 10
f 22 10 18
f 23 21 14
f 23 14 15
f 23 15 3
f 23 3 21
