v -0.014105430 0.017995501 0.040566685
v -0.009828110 0.010250365 0.040384887
v -0.015826039 0.021162918 0.010268968
v -0.022448000 0.015714557 0.009725880
v -0.018237424 0.018954769 0.040184180
v -0.016954307 0.010184722 0.010045688
v -0.015913873 0.025971951 0.024236464
v -0.010304580 0.011152424 0.040498104
v -0.013877855 0.011268407 0.040013696
v -0.015589707 0.017946954 0.009761857
v -0.016083931 0.026237711 0.025311835
v -0.010436764 0.009910764 0.037025602
v -0.019867327 0.011182706 0.009677156
v -0.016077952 0.017541897 0.009496097
v -0.022487100 0.022699861 0.029588683
v -0.016238027 0.009933139 0.012488116
v -0.021833664 0.022405773 0.032026979
v -0.022875477 0.016634197 0.010219138
v -0.013998661 0.009879376 0.021854422
v -0.022681061 0.022093494 0.025534892
v -0.016939468 0.025749495 0.025481894
f 7 2 3
f 8 1 5
f 9 8 5
f 9 2 8
f 10 3 2
f 11 5 1
f 11 1 8
f 11 8 2
f 11 2 7
f 11 7 3
f 12 2 9
f 12 10 2
f 13 9 5
f 14 4 3
f 14 3 10
f 14 13 4
f 14 10 6
f 14 6 13
f 16 6 10
f 16 13 6
f 16 9 13
f 17 5 11
f 17 11 15
f 17 13 5
f 17 15 4
f 17 4 13
f 18 3 4
f 18 4 15
f 19 12 9
f 19 9 16
f 19 16 10
f 19 10 12
f 20 18 15
f 21 20 15
f 21 15 11
f 21 18 20
f 21 11 3
f 21 3 18
