v -0.011044979 0.012052740 0.056498601
v -0.003832187 0.001051633 0.043005970
v -0.003083498 0.010382006 0.032395370
v -0.015068837 0.010587552 0.032075313
v -0.008062938 0.001910599 0.042354679
v -0.004203829 0.001214326 0.031801041
v -0.012038660 0.012152347 0.051792147
v -0.004688776 0.010705028 0.044391090
v -0.007501129 0.002245801 0.046139992
v -0.014091646 0.008810222 0.031880805
v -0.009907492 0.001523851 0.031977864
v -0.006937051 0.011853451 0.049109357
v -0.010753233 0.011408064 0.056113009
v -0.012801309 0.006544297 0.031856443
v -0.014388255 0.010976567 0.036611614
v -0.006005843 0.011645983 0.047267694
v -0.010602576 0.011889759 0.056031015
v -0.010709232 0.002901112 0.031904972
f 6 3 2
f 8 2 3
f 9 5 2
f 10 4 3
f 10 3 6
f 10 1 4
f 11 6 2
f 11 2 5
f 11 5 9
f 12 7 1
f 13 9 2
f 13 11 9
f 13 1 11
f 14 10 6
f 14 1 10
f 15 12 3
f 15 3 4
f 15 7 12
f 15 4 1
f 15 1 7
f 16 8 3
f 16 3 12
f 16 12 2
f 16 2 8
f 17 12 1
f 17 1 13
f 17 13 2
f 17 2 12
f 18 14 6
f 18 6 11
f 18 11 1
f 18 1 14
