v 0.011966242 0.019341188 -0.000255332
v 0.012355863 -0.004396207 -0.004591719
v 0.007607274 0.004183418 -0.030036242
v 0.000584523 0.017828141 -0.029449340
v -0.001922728 0.018491119 -0.013786759
v 0.006994757 0.006350439 -0.029562416
v 0.005942241 0.016378617 -0.001173888
v -0.001434504 0.018896286 -0.013520885
v -0.000258468 -0.007052364 -0.025982893
v 0.011079397 0.006070215 0.000150292
v -0.000386431 0.017258447 -0.029301267
v 0.006758877 0.019116353 0.000076475
v 0.010513556 -0.007457909 -0.014966537
v -0.004115854 0.001107647 -0.025187895
v 0.012086967 0.000163956 -0.002081885
v -0.003252651 0.000569197 -0.029590263
v 0.007210251 0.014579063 -0.000369200
v 0.003694178 -0.007191468 -0.023892407
v 0.012015255 -0.006873514 -0.006707147
v -0.004448283 0.000612384 -0.027269447
v 0.000466725 -0.007066243 -0.022683254
v 0.004065821 0.001906439 -0.030056568
v 0.006263965 0.003289058 -0.030131680
f 1 2 3
f 6 1 3
f 6 3 4
f 6 4 1
f 8 1 4
f 11 8 4
f 11 5 8
f 12 1 8
f 12 10 1
f 12 8 5
f 12 5 7
f 14 7 5
f 15 2 1
f 15 1 10
f 16 11 4
f 17 12 7
f 17 10 12
f 18 13 9
f 18 3 13
f 19 13 3
f 19 3 2
f 20 14 5
f 20 5 11
f 20 11 16
f 20 16 9
f 21 2 15
f 21 19 2
f 21 9 13
f 21 13 19
f 21 20 9
f 21 14 20
f 21 15 10
f 21 10 17
f 21 17 7
f 21 7 14
f 22 16 4
f 22 9 16
f 23 18 9
f 23 3 18
f 23 9 22
f 23 22 4
f 23 4 3
