v -0.008154000 0.016861999 0.060733002
v -0.001023210 0.016571615 0.046800320
v 0.000217071 0.018757174 0.041641284
v -0.001557539 0.018716156 0.031977541
v -0.013564645 0.010779829 0.040183854
v -0.001439577 0.010412552 0.040090627
v -0.017897132 0.019149277 0.042452331
v -0.001331996 0.017168481 0.047822691
v -0.000486406 0.014571528 0.040084323
v -0.001422843 0.018513657 0.032038944
v -0.001328179 0.016731053 0.047817314
v -0.010602576 0.011889759 0.056031015
v -0.007390347 0.018835683 0.056506754
v -0.012333670 0.019353184 0.051686375
v -0.018237424 0.018954769 0.040184180
v 0.000130704 0.018276068 0.040420743
v -0.012230597 0.010874696 0.047158577
v -0.014745716 0.018781399 0.057228687
v -0.001344633 0.018659794 0.045488650
v -0.008182024 0.017600223 0.060308842
v -0.015168155 0.013534254 0.040038202
v -0.001993261 0.010245222 0.040594243
v -0.011394889 0.014195422 0.059046076
v -0.015569400 0.019144617 0.054133389
v -0.004991630 0.017238605 0.054747291
v -0.006961850 0.018767519 0.056116634
v -0.009158444 0.018428906 0.060186215
v -0.017748828 0.018066105 0.040086927
v -0.005910640 0.010717041 0.046698357
v -0.011064230 0.012284247 0.057066724
v -0.011566259 0.013698630 0.058606263
v -0.012796660 0.015740921 0.058289517
f 8 2 3
f 9 3 2
f 9 2 6
f 10 6 5
f 10 5 4
f 10 9 6
f 10 4 3
f 11 6 2
f 11 1 6
f 11 8 1
f 11 2 8
f 12 6 1
f 14 3 4
f 14 4 7
f 14 13 3
f 15 7 4
f 16 10 3
f 16 3 9
f 16 9 10
f 18 7 15
f 19 8 3
f 20 8 19
f 21 4 5
f 22 17 5
f 22 5 6
f 22 6 12
f 23 1 18
f 24 14 7
f 24 7 18
f 24 13 14
f 25 20 1
f 25 1 8
f 25 8 20
f 26 20 19
f 26 19 3
f 26 3 13
f 27 18 1
f 27 1 20
f 27 24 18
f 27 13 24
f 27 26 13
f 27 20 26
f 28 15 4
f 28 4 21
f 29 22 12
f 29 12 17
f 29 17 22
f 30 12 1
f 30 1 23
f 30 17 12
f 30 21 5
f 30 5 17
f 31 30 23
f 31 21 30
f 31 28 21
f 31 15 28
f 32 31 23
f 32 23 18
f 32 18 15
f 32 15 31
