v 0.015784034 -0.016295794 -0.005501395
v 0.017620068 -0.030076582 -0.015124405
v 0.017547891 -0.016791529 -0.010314450
v 0.010040073 -0.016538642 -0.020161029
v 0.003808553 -0.032217816 -0.005034275
v 0.017303433 -0.027395564 -0.015970062
v 0.017290261 -0.016111856 -0.008275547
v 0.012931848 -0.029821220 -0.005778625
v 0.012424187 -0.016531463 -0.004806820
v 0.011634715 -0.032782514 -0.019436024
v 0.017482103 -0.030599254 -0.016368855
v 0.010069398 -0.016085558 -0.019894276
v 0.017309535 -0.029920902 -0.014107597
v 0.005346284 -0.034360143 -0.004852622
v 0.008681606 -0.019892005 -0.018211836
v 0.011526775 -0.019195884 -0.019521845
v 0.010259871 -0.015976026 -0.015258468
v 0.004320993 -0.033161589 -0.004777536
v 0.012978258 -0.034303570 -0.018710561
v 0.005931118 -0.032314939 -0.009212376
v 0.016045531 -0.026261443 -0.017070787
v 0.012535544 -0.034297294 -0.018772606
v 0.004706338 -0.032291449 -0.006894930
v 0.012261010 -0.033759489 -0.019095103
f 6 4 3
f 7 2 3
f 9 8 1
f 11 6 3
f 11 3 2
f 12 7 3
f 12 3 4
f 13 2 7
f 13 7 1
f 13 1 8
f 13 11 2
f 14 8 9
f 15 4 10
f 15 12 4
f 15 5 12
f 16 11 10
f 16 10 4
f 16 4 6
f 17 12 5
f 17 5 9
f 17 9 1
f 17 1 7
f 17 7 12
f 18 14 9
f 18 9 5
f 19 10 11
f 19 8 14
f 19 13 8
f 19 11 13
f 20 15 10
f 21 16 6
f 21 6 11
f 21 11 16
f 22 19 14
f 22 20 10
f 22 14 20
f 23 5 15
f 23 15 20
f 23 18 5
f 23 20 14
f 23 14 18
f 24 22 10
f 24 10 19
f 24 19 22
