v -0.008624900 0.018353824 0.059968513
v -0.006619960 0.018888128 0.054577502
v -0.018691500 0.033994244 0.054588182
v -0.022377896 0.028601993 0.047086081
v -0.016903483 0.019049720 0.047158640
v -0.018365891 0.029705714 0.046914403
v -0.015058857 0.019269891 0.057058251
v -0.016393946 0.031742751 0.053732327
v -0.012574255 0.018197025 0.047490026
v -0.019427936 0.030960846 0.046969477
v -0.019797223 0.024070143 0.047037356
v -0.011420609 0.021957828 0.058954764
v -0.022584283 0.031706845 0.052955279
v -0.007744743 0.018116905 0.058650786
v -0.018162999 0.034329999 0.052350000
v -0.011223051 0.018628841 0.059092711
v -0.017705265 0.020427158 0.047085409
v -0.010444247 0.021129126 0.059077438
v -0.022015762 0.029976929 0.052853730
v -0.022494511 0.029977835 0.047827246
v -0.019774180 0.034018977 0.054417175
v -0.011861175 0.024684618 0.056178899
v -0.007043368 0.018535786 0.054345465
v -0.020071742 0.027089867 0.054329842
v -0.018207105 0.032544594 0.055260412
f 7 4 5
f 9 7 5
f 9 6 2
f 9 5 6
f 10 6 4
f 11 5 4
f 11 4 6
f 14 8 1
f 15 8 2
f 15 2 6
f 15 6 10
f 15 3 8
f 16 7 9
f 16 1 12
f 16 12 13
f 16 14 1
f 16 9 14
f 17 11 6
f 17 6 5
f 17 5 11
f 18 12 1
f 18 3 12
f 18 8 3
f 18 1 8
f 19 13 4
f 20 10 4
f 20 4 13
f 20 15 10
f 21 13 12
f 21 3 15
f 21 20 13
f 21 15 20
f 22 14 2
f 22 2 8
f 22 8 14
f 23 14 9
f 23 9 2
f 23 2 14
f 24 13 19
f 24 16 13
f 24 7 16
f 24 19 4
f 24 4 7
f 25 21 12
f 25 12 3
f 25 3 21
