v 0.017690647 -0.007083706 -0.005244439
v 0.017290261 -0.016111856 -0.008275547
v 0.009679386 -0.016527601 -0.020634666
v 0.003751825 -0.006909983 -0.019497663
v 0.012424187 -0.016531463 -0.004806820
v 0.008001354 -0.007524633 -0.018337649
v 0.017547891 -0.016791529 -0.010314450
v 0.016072635 -0.016100841 -0.005965908
v 0.012490296 -0.006676274 -0.005846672
v 0.005957380 -0.016403100 -0.019686919
v 0.007522189 -0.011935747 -0.021191980
v 0.004226866 -0.006712743 -0.018637188
v 0.010524918 -0.016797148 -0.019646859
v 0.008022993 -0.016397928 -0.021511425
v 0.011581259 -0.006568776 -0.007182189
v 0.004361300 -0.008992811 -0.019892141
v 0.005610946 -0.006623002 -0.016441196
f 7 1 2
f 8 2 1
f 8 1 5
f 8 7 2
f 8 5 7
f 9 5 1
f 10 5 4
f 11 4 6
f 11 6 1
f 11 7 3
f 11 1 7
f 12 6 4
f 12 1 6
f 12 4 5
f 13 7 5
f 13 5 10
f 13 3 7
f 14 11 3
f 14 13 10
f 14 3 13
f 15 9 1
f 15 5 9
f 16 14 10
f 16 10 4
f 16 4 11
f 16 11 14
f 17 15 1
f 17 1 12
f 17 12 5
f 17 5 15
