v 0.003809071 -0.023239914 0.014195474
v 0.010552490 -0.026683171 0.000042615
v 0.011137349 -0.023309009 0.000351567
v -0.003382951 -0.023082742 -0.005905373
v 0.003833778 -0.033977475 -0.000977280
v 0.006007155 -0.030835331 -0.005109224
v -0.000374894 -0.022894866 0.009749362
v 0.004427034 -0.029630071 0.010394582
v 0.005601287 -0.034365038 -0.005335093
v -0.001119993 -0.023791686 -0.005657489
v 0.004569027 -0.023146649 0.012804576
v -0.002702315 -0.022890028 -0.001931746
v 0.002443258 -0.031930301 -0.002041574
v 0.003014493 -0.027188210 0.014048192
v 0.009768818 -0.029749196 0.000239347
v 0.000618703 -0.022994522 0.014455827
v 0.010672836 -0.023206025 0.001274130
v 0.005408675 -0.025411406 0.010297069
v 0.002118419 -0.031664668 -0.002910890
v 0.003905000 -0.029619999 0.011382000
v 0.002419332 -0.026100264 0.014312464
v 0.004502488 -0.034180188 -0.003515183
v 0.001107308 -0.023883177 0.014358590
v 0.005346284 -0.034360143 -0.004852622
f 9 6 3
f 9 3 2
f 10 4 3
f 10 3 6
f 10 9 4
f 10 6 9
f 12 4 7
f 15 9 2
f 15 8 9
f 16 1 11
f 16 7 4
f 17 16 11
f 17 7 16
f 17 12 7
f 17 3 4
f 17 4 12
f 17 8 15
f 17 15 2
f 17 2 3
f 18 11 1
f 18 17 11
f 18 8 17
f 19 5 13
f 19 4 9
f 19 16 4
f 20 14 5
f 20 5 8
f 20 1 14
f 20 18 1
f 20 8 18
f 21 14 1
f 21 1 16
f 21 5 14
f 22 19 9
f 22 5 19
f 23 21 16
f 23 5 21
f 23 13 5
f 23 19 13
f 23 16 19
f 24 22 9
f 24 5 22
f 24 9 8
f 24 8 5
