v 0.009309787 -0.016370505 -0.016979418
v 0.011161827 -0.033298713 -0.017711700
v 0.009679386 -0.016527601 -0.020634666
v -0.000258468 -0.007052364 -0.025982893
v 0.009616725 -0.032168537 -0.015562925
v 0.009998791 -0.030230593 -0.020326532
v 0.007516508 -0.007266127 -0.018851819
v 0.010554243 -0.016344064 -0.019380106
v 0.010657996 -0.019799484 -0.017096094
v 0.000636767 -0.015626520 -0.025422713
v 0.003694178 -0.007191468 -0.023892407
v 0.003317829 -0.006605245 -0.019972705
v 0.010538081 -0.033812083 -0.015700264
v 0.001321751 -0.016868295 -0.022221022
v 0.001567423 -0.007042607 -0.025017959
v 0.009969708 -0.033318611 -0.015388391
v 0.000466725 -0.007066243 -0.022683254
v 0.001013141 -0.016649171 -0.024529836
v 0.010472137 -0.031680072 -0.015733042
f 8 3 7
f 8 6 3
f 8 2 6
f 9 2 8
f 9 8 7
f 9 7 1
f 10 4 3
f 10 3 6
f 11 7 3
f 12 5 1
f 12 1 7
f 12 7 11
f 13 2 9
f 14 5 12
f 14 4 10
f 15 12 11
f 15 4 12
f 15 11 3
f 15 3 4
f 16 2 13
f 16 5 14
f 16 1 5
f 17 14 12
f 17 12 4
f 17 4 14
f 18 16 14
f 18 14 10
f 18 2 16
f 18 10 6
f 18 6 2
f 19 16 13
f 19 13 9
f 19 9 1
f 19 1 16
