v 0.000770539 0.001450485 -0.023431734
v 0.000567068 -0.016070593 -0.023063485
v 0.002827462 0.003698068 -0.031795321
v 0.002214511 0.001150243 -0.037968610
v -0.007330991 -0.001525664 -0.028099754
v 0.002850831 0.002494001 -0.035286125
v 0.001844833 0.001726920 -0.026490165
v -0.002410438 0.001616624 -0.023548663
v -0.002685988 -0.003962733 -0.037479597
v 0.001595537 -0.002555917 -0.038305498
v 0.002486683 0.004229345 -0.029644952
v -0.005934094 -0.005472696 -0.026082234
v -0.002857842 -0.001957356 -0.037555238
v 0.000519901 -0.015887078 -0.024786757
v -0.005813139 0.000153969 -0.026075285
v -0.000934770 -0.013325532 -0.023423192
v -0.007142499 -0.003785668 -0.029192032
v -0.000602557 -0.003938810 -0.038230501
v -0.007218281 -0.001001968 -0.026806228
v -0.004582556 -0.008598267 -0.026503306
v -0.005747977 -0.003345734 -0.032568748
v -0.006953412 -0.004069775 -0.026849850
v -0.000048049 -0.015393726 -0.024475073
v -0.003566207 -0.003725843 -0.036162005
v -0.006967835 -0.003322347 -0.030260537
v 0.000217536 -0.015669601 -0.023417723
v -0.006874395 -0.002631963 -0.030206316
v -0.003595277 -0.001943232 -0.036159914
f 6 3 2
f 6 4 3
f 7 1 2
f 8 2 1
f 10 4 6
f 11 7 2
f 11 2 3
f 11 1 7
f 11 8 1
f 13 3 4
f 14 10 6
f 14 6 2
f 15 8 11
f 15 11 3
f 16 2 8
f 16 8 12
f 18 9 13
f 18 14 9
f 18 10 14
f 18 13 4
f 18 4 10
f 19 12 8
f 19 8 15
f 19 15 3
f 20 16 12
f 22 12 19
f 22 20 12
f 22 17 20
f 22 19 5
f 22 5 17
f 23 14 2
f 23 20 21
f 23 21 9
f 23 9 14
f 24 21 13
f 24 13 9
f 24 9 21
f 25 17 5
f 25 21 20
f 25 20 17
f 26 23 2
f 26 20 23
f 26 2 16
f 26 16 20
f 27 25 5
f 27 13 21
f 27 21 25
f 28 27 5
f 28 13 27
f 28 5 19
f 28 19 3
f 28 3 13
