v 0.000584523 0.017828141 -0.029449340
v 0.008038591 0.004179042 -0.030841332
v 0.010372012 0.001093636 -0.047309570
v 0.004888460 0.006054314 -0.047135834
v 0.001742829 -0.001618168 -0.035889585
v 0.001733607 0.013180871 -0.044900440
v 0.006994757 0.006350439 -0.029562416
v 0.009166910 0.001493468 -0.040610084
v 0.006142580 0.000488431 -0.047081223
v 0.007379523 0.005314447 -0.047406597
v -0.003090277 0.007979246 -0.041816996
v 0.001697017 0.000788938 -0.028906898
v 0.002083920 -0.002150072 -0.038039744
v 0.009299993 0.002665774 -0.047536486
v -0.001470965 0.011290912 -0.044439401
v 0.003040654 0.001683643 -0.028810968
v -0.002837926 0.012256797 -0.030000218
v -0.002580095 0.007181989 -0.045043120
v 0.007118780 0.003777552 -0.030302088
v 0.002185759 0.001195146 -0.028640696
v -0.002986046 0.011320132 -0.032416752
v -0.001730172 0.016365239 -0.029397014
f 7 2 3
f 7 3 1
f 8 3 2
f 10 6 1
f 10 4 6
f 10 9 4
f 12 11 5
f 13 3 8
f 13 9 3
f 13 12 5
f 14 10 1
f 14 1 3
f 14 3 9
f 14 9 10
f 16 12 13
f 16 13 8
f 18 9 13
f 18 11 15
f 18 4 9
f 18 15 6
f 18 6 4
f 18 13 5
f 18 5 11
f 19 2 7
f 19 7 16
f 19 16 8
f 19 8 2
f 20 16 7
f 20 7 1
f 20 12 16
f 20 17 12
f 21 11 12
f 21 12 17
f 22 21 17
f 22 15 11
f 22 11 21
f 22 1 6
f 22 6 15
f 22 20 1
f 22 17 20
