v -0.000797710 0.029747264 0.013069518
v 0.011966242 0.019341188 -0.000255332
v 0.006304475 0.032219947 0.001349803
v 0.000128874 0.018278376 -0.027320834
v -0.001774465 0.019427669 -0.011369795
v 0.010383544 0.027983412 0.000632804
v -0.000666451 0.031023057 0.010801910
v 0.006758877 0.019116353 0.000076475
v 0.000767785 0.018476616 -0.027369632
v -0.000038680 0.028971070 0.012837636
v -0.000902523 0.027408533 0.000784044
v -0.001840156 0.023033993 -0.000894199
v -0.000896713 0.018055961 -0.026075461
v 0.009505745 0.018220604 -0.005969800
v 0.000706767 0.018750831 -0.027026233
v 0.006353795 0.031693524 -0.000248457
v -0.000584698 0.028736938 0.013168664
v 0.000737429 0.030174722 0.005712751
v 0.001325386 0.018163625 -0.025982705
f 6 3 1
f 7 1 3
f 9 6 2
f 10 6 1
f 10 2 6
f 12 1 7
f 12 5 8
f 12 7 11
f 13 8 5
f 13 12 11
f 13 5 12
f 13 11 3
f 13 3 4
f 14 2 8
f 14 8 13
f 15 9 4
f 15 4 3
f 16 3 6
f 16 6 9
f 16 15 3
f 16 9 15
f 17 8 2
f 17 2 10
f 17 12 8
f 17 10 1
f 17 1 12
f 18 11 7
f 18 7 3
f 18 3 11
f 19 9 2
f 19 2 14
f 19 4 9
f 19 14 13
f 19 13 4
