v 0.006898234 -0.008905161 0.045379040
v 0.006751567 -0.009598823 0.044910948
v 0.006397486 -0.009189875 0.028102856
v -0.001115513 -0.017478484 0.021576172
v -0.001583896 -0.008925140 0.043788493
v 0.005790886 -0.016512424 0.029090035
v 0.000605620 -0.013139713 0.042686908
v -0.002072857 -0.009142869 0.040705944
v 0.002453341 -0.014912496 0.021635201
v 0.006096742 -0.016181600 0.037322448
v 0.001085691 -0.014219728 0.041995122
v 0.003587811 -0.008979453 0.045113379
v 0.000648597 -0.020697202 0.021202482
v 0.005995322 -0.014584037 0.027000786
v 0.004823639 -0.009455101 0.027059353
v 0.006360102 -0.014097568 0.040718255
v 0.003581243 -0.009866790 0.044693530
v 0.000147092 -0.011175704 0.043599445
v 0.000974525 -0.019515876 0.021208551
v 0.002420738 -0.020099625 0.031816951
v -0.000763346 -0.015454835 0.024490598
v 0.002267921 -0.017486175 0.038555280
v 0.004406165 -0.013043940 0.042500480
v -0.001130487 -0.009724771 0.043769583
v 0.006243837 -0.015023916 0.039391785
v 0.002531037 -0.018732783 0.036299772
v 0.002535670 -0.019909685 0.032938461
v 0.002773788 -0.017429991 0.038269900
v 0.002582986 -0.019870792 0.032962977
v 0.003636243 -0.018534774 0.035253563
f 5 1 3
f 8 5 3
f 11 2 1
f 11 1 7
f 12 1 5
f 13 7 5
f 13 8 4
f 13 5 8
f 14 9 3
f 14 6 13
f 14 10 6
f 14 3 1
f 15 8 3
f 15 3 9
f 15 9 4
f 16 1 2
f 16 14 1
f 16 10 14
f 17 7 1
f 17 1 12
f 18 17 12
f 18 7 17
f 19 13 4
f 19 4 9
f 19 14 13
f 19 9 14
f 20 13 6
f 20 6 10
f 21 15 4
f 21 4 8
f 21 8 15
f 22 11 7
f 23 16 2
f 23 2 11
f 23 22 16
f 23 11 22
f 24 18 12
f 24 12 5
f 24 5 7
f 24 7 18
f 25 10 16
f 25 16 22
f 26 10 25
f 26 13 20
f 26 22 7
f 26 7 13
f 27 26 20
f 28 26 25
f 28 25 22
f 28 22 26
f 29 27 20
f 29 20 10
f 30 10 26
f 30 26 27
f 30 29 10
f 30 27 29
