v 0.005812933 0.010646471 0.024618345
v 0.016479412 0.000160168 0.000088684
v 0.006441064 0.001037272 0.025404035
v 0.016674365 0.001284889 0.000191668
v 0.000581926 0.010356712 0.025473379
v 0.013348986 0.010329061 0.010247861
v 0.011880387 0.000889970 0.001363739
v 0.011486845 0.010744217 0.013931432
v 0.004454237 -0.023571308 0.008149555
v 0.008387123 0.010231870 0.010712828
v 0.010265014 0.010756226 0.016238717
v 0.008119543 -0.023596586 0.001227499
v -0.000811774 0.001048505 0.025353704
v 0.011815856 -0.020864615 0.000093023
v 0.003980256 -0.023497113 0.009066092
v -0.000251500 0.005632584 0.025650708
v 0.012884268 -0.016170779 0.000040446
v 0.011137349 -0.023309009 0.000351567
v 0.002316276 -0.015243867 0.014643017
v 0.015216047 -0.005658388 0.000038277
v 0.007019957 -0.023172980 0.008203047
f 3 2 4
f 5 3 1
f 6 3 4
f 7 4 2
f 8 3 6
f 10 6 4
f 10 4 7
f 10 7 5
f 10 8 6
f 10 5 8
f 11 1 3
f 11 3 8
f 11 8 5
f 11 5 1
f 13 12 9
f 13 5 7
f 13 7 12
f 14 12 7
f 15 13 9
f 16 13 3
f 16 3 5
f 16 5 13
f 17 14 7
f 17 3 14
f 18 9 12
f 18 12 14
f 18 14 3
f 19 15 3
f 19 3 13
f 19 13 15
f 20 17 7
f 20 7 2
f 20 2 3
f 20 3 17
f 21 15 9
f 21 9 18
f 21 18 3
f 21 3 15
