v 0.000130704 0.018276068 0.040420743
v 0.000049966 0.001020956 0.043563292
v 0.000267334 0.000448430 0.032470550
v -0.000854538 0.018020215 0.031727026
v -0.007496486 0.010341501 0.040708148
v 0.000371516 0.002991533 0.042912442
v -0.006242978 0.018503705 0.040753506
v -0.003832187 0.001051633 0.043005970
v -0.004203829 0.001214326 0.031801041
v -0.003724384 0.010484707 0.042557404
v -0.002103308 0.018404182 0.032914974
v -0.004142636 0.004546378 0.042838545
v -0.007356459 0.011487526 0.040782377
f 1 3 4
f 6 1 2
f 6 2 3
f 6 3 1
f 8 3 2
f 9 4 3
f 9 8 5
f 9 3 8
f 10 2 1
f 10 1 7
f 11 7 1
f 11 1 4
f 11 9 7
f 11 4 9
f 12 8 2
f 12 2 10
f 12 5 8
f 12 10 7
f 13 12 7
f 13 5 12
f 13 9 5
f 13 7 9
