v 0.004712819 0.001064599 0.047106731
v 0.004678477 -0.008971533 0.045260722
v 0.002175943 0.001249828 0.032024640
v -0.004477055 0.001073974 0.032275590
v -0.007282569 0.001646344 0.045517668
v -0.005010438 -0.003234551 0.032071897
v 0.004599048 -0.009678759 0.041860122
v 0.004791504 -0.006685030 0.046289678
v 0.003666991 0.001663043 0.042348590
v -0.008573323 0.001618667 0.038952858
v 0.001873461 0.000759851 0.031534036
v -0.001583896 -0.008925140 0.043788493
v -0.009253947 0.001229853 0.034416095
v -0.002003941 -0.001251666 0.031739247
v 0.000811724 -0.009808934 0.041443044
v 0.001415308 -0.008918440 0.044714375
v -0.006184753 -0.004190503 0.034269747
v -0.008276441 -0.000547548 0.034221977
v -0.002406443 -0.008595279 0.040603279
v -0.006986399 -0.002813665 0.034197716
f 7 3 1
f 8 1 5
f 8 7 1
f 8 2 7
f 9 5 1
f 9 1 3
f 10 9 3
f 10 5 9
f 11 4 3
f 11 7 6
f 11 3 7
f 13 10 3
f 13 3 4
f 13 4 6
f 14 11 6
f 14 6 4
f 14 4 11
f 15 7 2
f 15 6 7
f 16 8 5
f 16 5 12
f 16 2 8
f 16 15 2
f 16 12 15
f 17 6 15
f 18 13 6
f 19 17 15
f 19 15 12
f 20 18 6
f 20 6 17
f 20 13 18
f 20 10 13
f 20 17 19
f 20 5 10
f 20 19 12
f 20 12 5
