v -0.005425778 0.001222310 0.034108710
v -0.005568806 -0.003897940 0.034683351
v -0.009932973 -0.006165979 0.000680939
v -0.016659498 0.005676602 0.000632027
v -0.015552128 0.010978894 0.030771092
v -0.004178036 0.000165859 0.030178652
v -0.015068837 0.010587552 0.032075313
v -0.012196332 -0.005457398 0.000433703
v -0.011557595 0.009937964 0.032341092
v -0.005750876 -0.006432041 0.018332877
v -0.009253947 0.001229853 0.034416095
v -0.019554182 0.010694111 0.009847301
v -0.012997697 -0.004079366 0.000361107
v -0.016641430 0.009708437 0.010247390
v -0.005525142 -0.004521368 0.029066506
v -0.009279925 -0.006460377 0.003119103
v -0.006463646 -0.006226228 0.027020224
v -0.019043746 0.010985872 0.013249527
v -0.016066971 0.001341081 0.000507062
v -0.017083127 0.008945025 0.006572249
v -0.006296782 -0.006259801 0.026870949
v -0.006184753 -0.004190503 0.034269747
v -0.014288136 -0.001813507 0.000385488
v -0.016938521 0.006689605 0.001866128
f 6 3 4
f 6 1 2
f 8 7 5
f 9 5 7
f 9 1 6
f 11 2 1
f 11 9 7
f 11 1 9
f 11 7 8
f 13 4 3
f 13 3 8
f 14 9 6
f 15 10 6
f 15 6 2
f 15 2 10
f 16 3 6
f 16 6 10
f 16 8 3
f 17 8 16
f 18 5 9
f 18 14 12
f 18 9 14
f 18 12 8
f 18 8 5
f 19 12 4
f 19 8 12
f 20 14 6
f 20 12 14
f 21 10 2
f 21 17 16
f 21 16 10
f 22 2 11
f 22 11 8
f 22 8 17
f 22 21 2
f 22 17 21
f 23 19 4
f 23 4 13
f 23 13 8
f 23 8 19
f 24 20 6
f 24 6 4
f 24 4 12
f 24 12 20
