v 0.008991981 0.016634733 0.020242978
v 0.010406072 0.009250575 0.020237683
v 0.011477669 0.012859783 0.000295816
v 0.005666252 0.013754790 0.000368635
v 0.005587785 0.009300271 0.021230351
v 0.009834571 0.016654996 0.010667843
v 0.003218106 0.016239007 0.010524967
v 0.005666252 0.009331174 0.000368635
v 0.011311163 0.013706312 0.000346255
v 0.005666252 0.016703867 0.020274905
v 0.012153301 0.009302771 0.000355523
v 0.010811693 0.009187107 0.015784966
v 0.011591867 0.009195356 0.006941271
f 5 2 1
f 6 1 2
f 7 6 4
f 8 4 3
f 8 7 4
f 8 5 7
f 9 6 3
f 9 3 4
f 9 4 6
f 10 7 5
f 10 5 1
f 10 1 6
f 10 6 7
f 11 8 3
f 11 3 6
f 12 2 5
f 12 5 8
f 13 12 8
f 13 8 11
f 13 2 12
f 13 11 6
f 13 6 2
