v -0.001576988 0.029275345 0.020325122
v -0.001093523 0.008705524 0.020662405
v -0.005910920 0.008347940 0.010701463
v -0.017347029 0.025671787 0.010780483
v -0.018294999 0.026186001 0.020397000
v -0.001434755 0.027465306 0.014033203
v -0.015698121 0.022593097 0.020845528
v -0.014950438 0.008739972 0.020342374
v -0.010236500 0.025656533 0.010921205
v -0.001506656 0.028933680 0.015382614
v -0.001473806 0.005297782 0.014115791
v -0.015618450 0.026698414 0.020633541
v -0.014108247 0.008760240 0.010767174
v -0.017636931 0.022629743 0.020652346
v -0.014813141 0.026138991 0.010753996
v -0.011077905 0.026236793 0.010978761
v -0.003922311 0.004905670 0.012166606
v -0.001793980 0.004831990 0.013918373
v -0.017071650 0.024240204 0.010765909
v -0.003641003 0.004688788 0.012459833
f 6 1 2
f 7 2 1
f 8 2 7
f 9 6 3
f 10 1 6
f 11 6 2
f 12 7 1
f 13 8 4
f 14 8 7
f 14 5 4
f 14 4 8
f 14 12 5
f 14 7 12
f 15 9 3
f 15 1 10
f 15 12 1
f 15 4 5
f 15 5 12
f 16 10 6
f 16 6 9
f 16 15 10
f 16 9 15
f 17 3 6
f 17 6 11
f 17 13 3
f 18 11 2
f 18 2 8
f 18 17 11
f 19 13 4
f 19 4 15
f 19 15 3
f 19 3 13
f 20 8 13
f 20 13 17
f 20 18 8
f 20 17 18
