v 0.004372487 -0.001458028 -0.021920488
v 0.012771550 -0.004630176 -0.029198517
v 0.003821171 -0.000526064 -0.036677011
v -0.008095526 -0.000200566 -0.037869470
v -0.006068327 -0.011153827 -0.037083515
v -0.009460238 -0.000185242 -0.022455260
v 0.010783031 -0.002907844 -0.027048783
v 0.001809607 -0.007184608 -0.024694366
v 0.012144773 -0.007674434 -0.035474276
v -0.003326352 -0.000239153 -0.037396642
v 0.007316439 -0.006047968 -0.024030589
v 0.012274850 -0.003925647 -0.034750852
v -0.008563510 -0.004766416 -0.022685013
v 0.007017922 -0.009013141 -0.030246208
v -0.009085772 -0.000114834 -0.026846885
v 0.008633979 -0.003135416 -0.024700289
v 0.012267390 -0.003710811 -0.029229786
v 0.012675169 -0.004767419 -0.035576195
v 0.001098976 -0.008451061 -0.027161596
v -0.009054761 -0.002320217 -0.022420193
v 0.005534533 -0.005356238 -0.023313362
v -0.002638281 -0.010504586 -0.036780126
v 0.009091292 -0.007622685 -0.027947856
v -0.008368847 -0.000117363 -0.034957506
v 0.008098689 -0.006237567 -0.024685689
v 0.012190175 -0.007619005 -0.035371110
v -0.006264363 -0.010655471 -0.035944757
v 0.001185022 -0.007853560 -0.025917902
v 0.001554520 -0.009038631 -0.028556078
v 0.006924951 -0.006002301 -0.023808976
v 0.008386796 -0.008389646 -0.029354744
v 0.008588760 -0.003811701 -0.024764993
v 0.008628131 -0.006477176 -0.025363580
v 0.002488417 -0.006644130 -0.023999303
v 0.009158432 -0.007241439 -0.027158253
f 6 1 3
f 7 3 1
f 9 4 3
f 10 3 4
f 12 3 7
f 15 6 3
f 15 3 10
f 16 7 1
f 16 1 11
f 16 2 7
f 17 12 7
f 17 7 2
f 17 2 12
f 18 9 3
f 18 3 12
f 18 12 2
f 20 13 1
f 20 1 6
f 20 6 13
f 21 1 13
f 22 14 5
f 22 9 14
f 22 5 4
f 22 4 9
f 24 15 10
f 24 10 4
f 24 13 6
f 24 6 15
f 24 4 5
f 25 16 11
f 26 18 2
f 26 9 18
f 26 23 9
f 26 2 23
f 27 19 13
f 27 5 19
f 27 24 5
f 27 13 24
f 28 8 13
f 28 13 19
f 28 11 8
f 29 19 5
f 29 5 14
f 29 28 19
f 29 11 28
f 30 11 1
f 30 1 21
f 30 8 11
f 31 14 9
f 31 9 23
f 31 29 14
f 31 23 11
f 31 11 29
f 32 25 2
f 32 2 16
f 32 16 25
f 33 2 25
f 33 25 11
f 34 30 21
f 34 21 13
f 34 13 8
f 34 8 30
f 35 23 2
f 35 2 33
f 35 33 11
f 35 11 23
