v 0.012798120 0.010022343 -0.008499879
v 0.014666047 0.002377894 -0.013086521
v 0.013733587 0.009918995 -0.018869234
v 0.009352598 0.010068444 -0.018800366
v 0.009840586 0.002236199 -0.008213551
v 0.009764447 0.000106325 -0.017851166
v 0.013941784 0.004060443 -0.008529211
v 0.009352598 0.010068444 -0.008478597
v 0.015116149 0.002669974 -0.018812276
v 0.014967695 0.001824336 -0.015303157
v 0.013879132 0.004331124 -0.008404348
v 0.009551040 0.001562578 -0.012693221
v 0.014441277 0.006226565 -0.018872032
f 1 3 4
f 7 5 2
f 8 5 1
f 8 1 4
f 9 6 4
f 10 2 5
f 10 5 6
f 10 6 9
f 11 1 5
f 11 5 7
f 11 7 2
f 11 10 9
f 11 2 10
f 12 6 5
f 12 5 8
f 12 8 4
f 12 4 6
f 13 9 4
f 13 4 3
f 13 11 9
f 13 3 1
f 13 1 11
