v 0.013488028 -0.013538267 0.034732804
v 0.014841707 -0.020082919 0.033593444
v 0.014003923 -0.013404388 0.028606662
v 0.006911305 -0.013427191 0.022530925
v 0.004818406 -0.013456319 0.033789648
v 0.015283007 -0.020294879 0.029059416
v 0.007210085 -0.019955515 0.033300264
v 0.004904112 -0.013268543 0.034010497
v 0.009024672 -0.014715924 0.022346156
v 0.014419736 -0.018077354 0.034021360
v 0.009777696 -0.020592310 0.026562029
v 0.007784012 -0.020052854 0.027011320
v 0.004883876 -0.013356727 0.032219043
v 0.005859401 -0.013376567 0.034331790
v 0.008808536 -0.013628193 0.022438657
v 0.009388946 -0.019942987 0.033402726
v 0.015220227 -0.020306926 0.029791101
v 0.007254865 -0.019997279 0.032883490
v 0.007181120 -0.014850058 0.022555158
v 0.004757955 -0.013544086 0.032453086
v 0.009388379 -0.020554850 0.026625538
f 1 2 3
f 6 3 2
f 8 1 3
f 8 3 4
f 8 5 7
f 9 3 6
f 10 2 1
f 11 9 6
f 13 8 4
f 14 8 7
f 14 1 8
f 14 10 1
f 14 7 10
f 15 9 4
f 15 4 3
f 15 3 9
f 16 10 7
f 16 7 2
f 16 2 10
f 17 11 6
f 17 6 2
f 17 2 11
f 18 11 2
f 18 2 7
f 19 4 9
f 19 9 11
f 20 5 8
f 20 8 13
f 20 7 5
f 20 18 7
f 20 12 18
f 20 19 12
f 20 13 4
f 20 4 19
f 21 18 12
f 21 11 18
f 21 19 11
f 21 12 19
