v -0.000852268 0.000820607 0.008730213
v -0.001449931 -0.000711128 0.000054722
v -0.001485757 0.016119098 -0.002460186
v -0.001594610 0.015944339 0.004194151
v -0.008341864 0.008593905 0.006266789
v -0.007104396 -0.001846467 -0.000243501
v -0.007706973 0.016110953 0.006641173
v -0.007604595 0.000483943 0.006266789
v -0.008341864 0.015966598 0.000368635
v -0.008341864 0.008593905 0.000368635
f 1 2 3
f 1 3 4
f 6 2 1
f 6 3 2
f 7 5 1
f 7 1 4
f 7 4 3
f 8 6 1
f 8 1 5
f 9 5 7
f 9 7 3
f 9 3 6
f 10 8 5
f 10 6 8
f 10 9 6
f 10 5 9
