v 0.001979905 -0.006151480 0.019537636
v -0.000430686 -0.027058112 0.019966521
v -0.000795478 -0.006280711 0.010329203
v -0.011280032 -0.006008656 0.010756649
v -0.012059867 -0.006016420 0.019599940
v -0.008126298 -0.024876122 0.015937069
v 0.002082633 -0.006110192 0.013949215
v -0.000807346 -0.023545802 0.016616881
v -0.010496244 -0.010230039 0.011021987
v -0.007710871 -0.028777477 0.019688073
v -0.011997537 -0.006004490 0.018868174
v 0.001859484 -0.011992996 0.014757304
v -0.008319738 -0.023624824 0.015417050
v -0.005600063 -0.026065392 0.017353297
v -0.011145258 -0.006720197 0.010768582
v -0.006244386 -0.028583882 0.019915246
v 0.001881355 -0.009961539 0.019323325
v -0.000655000 -0.024698000 0.017388999
v 0.001791261 -0.012158174 0.014412716
v -0.005560000 -0.024139777 0.016047031
v -0.007743603 -0.028413566 0.019270562
v -0.011924752 -0.006727827 0.019611871
v -0.002667805 -0.025966015 0.018065973
v -0.006313364 -0.025484203 0.016684068
v -0.000463418 -0.026694201 0.019549010
v -0.001099495 -0.022105238 0.016013508
v -0.001883701 -0.024028584 0.016656597
v -0.007765255 -0.024894422 0.016010472
f 5 2 1
f 7 3 4
f 10 9 6
f 11 5 1
f 11 1 7
f 11 7 4
f 11 9 5
f 13 9 3
f 13 6 9
f 15 4 3
f 15 3 9
f 15 11 4
f 15 9 11
f 17 12 7
f 17 7 1
f 17 1 2
f 17 2 12
f 19 8 3
f 19 3 7
f 19 7 12
f 19 18 8
f 19 12 2
f 20 6 13
f 21 10 6
f 22 10 16
f 22 5 9
f 22 9 10
f 22 16 2
f 22 2 5
f 23 14 18
f 23 21 14
f 23 16 10
f 23 10 21
f 24 18 14
f 24 21 6
f 24 14 21
f 25 19 2
f 25 18 19
f 25 23 18
f 25 2 16
f 25 16 23
f 26 20 13
f 26 13 3
f 26 3 8
f 26 8 20
f 27 8 18
f 27 18 24
f 28 27 24
f 28 24 6
f 28 8 27
f 28 20 8
f 28 6 20
