v 0.004191713 0.010068444 -0.018800366
v 0.004109453 -0.001210679 -0.018990021
v 0.004191713 0.010068444 -0.023223982
v -0.011383843 0.010191878 -0.023167054
v -0.011758002 0.010120204 -0.018776494
v -0.008435316 -0.004791575 -0.022779448
v 0.004414305 -0.001736713 -0.022526772
v -0.011217791 0.007273254 -0.018728237
v -0.009397895 -0.000173325 -0.023187024
v -0.000091627 -0.003170115 -0.021990689
v -0.009176843 -0.003298667 -0.018921198
v 0.004105352 -0.001891192 -0.022756617
v -0.003278745 -0.004025052 -0.022793372
v -0.008563510 -0.004766416 -0.022685013
v 0.004059449 -0.001597071 -0.019921656
f 1 3 4
f 5 1 4
f 7 1 2
f 7 3 1
f 8 1 5
f 8 5 4
f 9 4 3
f 11 2 1
f 11 1 8
f 12 9 3
f 12 3 7
f 13 11 6
f 13 10 2
f 13 2 11
f 13 12 10
f 13 6 9
f 13 9 12
f 14 9 6
f 14 6 11
f 14 11 8
f 14 8 4
f 14 4 9
f 15 12 7
f 15 7 2
f 15 2 10
f 15 10 12
