v 0.007919300 0.019859590 0.025395647
v 0.009375325 0.013656751 0.022360094
v 0.006330515 0.030556884 0.020203291
v -0.015648531 0.026668934 0.020300517
v -0.016523728 0.015239613 0.024065649
v 0.009564259 0.013654434 0.020228738
v 0.006067000 0.030850001 0.022550000
v -0.002447637 0.013612599 0.025370756
v -0.016198465 0.015277819 0.020297296
v 0.006288712 0.030729642 0.020302111
v -0.002402000 0.017953076 0.025451950
v -0.015618450 0.026698414 0.020633541
v 0.008548183 0.016602988 0.025336535
v -0.001936000 0.012503000 0.021973999
v -0.017612229 0.022662144 0.020302667
v 0.009293965 0.015076826 0.020204480
v 0.006547476 0.019612533 0.025491563
v -0.002479049 0.013748011 0.025432689
v -0.016448205 0.015198580 0.023298571
v -0.017636931 0.022629743 0.020652346
v -0.001557735 0.018112329 0.025493404
f 10 3 4
f 10 7 6
f 10 6 3
f 12 11 7
f 12 5 11
f 12 10 4
f 12 7 10
f 13 8 2
f 13 7 1
f 13 2 6
f 13 6 7
f 14 6 2
f 14 2 8
f 14 9 6
f 14 8 5
f 15 4 3
f 15 3 9
f 16 9 3
f 16 3 6
f 16 6 9
f 17 1 7
f 17 13 1
f 18 11 5
f 18 5 8
f 18 8 13
f 18 13 17
f 19 14 5
f 19 9 14
f 20 12 4
f 20 4 15
f 20 5 12
f 20 19 5
f 20 15 9
f 20 9 19
f 21 17 7
f 21 7 11
f 21 18 17
f 21 11 18
