v -0.001705272 -0.006885247 0.034999477
v -0.000713883 -0.028925293 0.027218572
v -0.001706441 -0.006888750 0.019537636
v -0.011893386 -0.006862943 0.019549540
v -0.013228889 -0.006731945 0.034378537
v -0.007682341 -0.029094669 0.020051984
v -0.000430686 -0.027058112 0.019966521
v -0.009474565 -0.024951053 0.031358604
v -0.012049412 -0.006751688 0.021075402
v -0.000450535 -0.028815096 0.022211225
v -0.000974843 -0.023988462 0.019472108
v -0.002152716 -0.023609374 0.031981241
v -0.007569836 -0.022905933 0.031974598
v -0.008023983 -0.030319838 0.026583443
v -0.001190005 -0.028189890 0.021004276
v -0.009668586 -0.018515449 0.019615935
v -0.001516597 -0.026257169 0.030520985
v -0.010207853 -0.021447728 0.032072108
v -0.002885107 -0.020118513 0.032706124
v -0.004618827 -0.023626998 0.031919196
v -0.005537010 -0.030366130 0.025219695
v -0.007632510 -0.029702082 0.020807925
v -0.001023000 -0.028016999 0.028750001
v -0.001664751 -0.011187411 0.034277768
v -0.009164568 -0.026295345 0.030770196
v -0.009765464 -0.023594228 0.031714920
v -0.001896110 -0.029608429 0.023477732
v -0.006283890 -0.030308971 0.025943919
v -0.001930688 -0.028872558 0.021662589
v -0.007605000 -0.030452000 0.022117000
v -0.004786836 -0.029570108 0.027158947
v -0.008460693 -0.028975493 0.028609434
v -0.009769106 -0.022229523 0.031965182
v -0.001861948 -0.029561804 0.025941425
v -0.007742009 -0.030312758 0.026503889
v -0.005568094 -0.030345863 0.023315849
v -0.003407423 -0.029519175 0.022227723
v -0.004885470 -0.029504224 0.021498173
v -0.002562305 -0.028853126 0.027795590
v -0.006216968 -0.028229490 0.029158231
v -0.006953606 -0.028972488 0.028425980
v -0.007070318 -0.030349658 0.022164258
v -0.001082883 -0.028152539 0.028557121
v -0.008834498 -0.027622642 0.029902664
v -0.006923070 -0.027604583 0.029786035
f 5 1 3
f 6 5 4
f 7 3 1
f 9 5 3
f 9 3 4
f 9 4 5
f 10 7 1
f 10 1 2
f 11 7 6
f 11 4 3
f 11 3 7
f 15 6 7
f 15 7 10
f 16 11 6
f 16 6 4
f 16 4 11
f 18 1 5
f 20 8 12
f 20 19 13
f 20 12 19
f 22 6 15
f 24 12 17
f 24 19 12
f 24 13 19
f 24 17 23
f 24 23 2
f 24 2 1
f 25 17 12
f 25 12 8
f 26 20 13
f 26 8 20
f 26 18 5
f 26 5 8
f 27 10 2
f 28 14 21
f 29 22 15
f 29 15 10
f 30 21 14
f 30 6 22
f 30 8 5
f 30 5 6
f 31 14 2
f 33 26 13
f 33 18 26
f 33 13 24
f 33 24 1
f 33 1 18
f 34 27 2
f 34 21 27
f 34 28 21
f 34 2 28
f 35 28 2
f 35 2 14
f 35 14 28
f 36 30 27
f 36 27 21
f 36 21 30
f 37 30 10
f 37 10 27
f 38 29 10
f 38 10 30
f 38 30 22
f 38 22 29
f 39 31 2
f 39 23 31
f 40 23 17
f 41 31 23
f 41 40 32
f 41 23 40
f 41 32 14
f 41 14 31
f 42 37 27
f 42 27 30
f 42 30 37
f 43 39 2
f 43 2 23
f 43 23 39
f 44 17 25
f 44 32 40
f 44 25 8
f 44 8 30
f 44 30 14
f 44 14 32
f 45 44 40
f 45 40 17
f 45 17 44
