v 0.010880622 0.004483026 0.025196823
v 0.011653656 0.000359909 0.025378437
v 0.013026818 0.004764104 0.000302409
v -0.013172492 0.008657116 0.000397809
v -0.013797774 0.000369478 0.025433263
v 0.010293965 0.009122877 0.021781100
v 0.011518547 0.001071318 0.025366479
v -0.011622892 0.000561496 0.000404441
v 0.012153301 0.009302771 0.000355523
v -0.015077457 0.008767328 0.021721710
v 0.013026698 0.000340405 0.009887080
v 0.012319807 0.008456243 0.000305083
v -0.002424905 0.009410775 0.022101026
v 0.009152223 0.001417494 0.000614165
v 0.012308853 0.000344190 0.017998558
v -0.001706441 0.009331174 0.000368635
v -0.001249703 0.009489809 0.020733866
v 0.013467976 0.002381243 0.000471858
v -0.013515653 0.008732549 0.004118971
v 0.013364852 0.001450731 0.003644037
f 7 5 2
f 7 2 1
f 7 1 5
f 8 5 4
f 8 4 3
f 9 6 1
f 10 5 1
f 10 4 5
f 11 5 8
f 11 1 2
f 11 9 1
f 12 3 4
f 12 11 3
f 12 9 11
f 13 10 1
f 13 1 6
f 14 11 8
f 15 11 2
f 15 2 5
f 15 5 11
f 16 12 4
f 16 9 12
f 17 13 6
f 17 6 9
f 17 9 16
f 17 16 10
f 17 10 13
f 18 14 8
f 18 8 3
f 18 3 11
f 19 16 4
f 19 4 10
f 19 10 16
f 20 18 11
f 20 11 14
f 20 14 18
