v 0.013733587 0.009918995 -0.018869234
v 0.018294999 -0.006497000 -0.034931000
v 0.015249164 0.009959170 -0.036111883
v 0.004393837 0.009155271 -0.036905000
v 0.004109453 -0.001210679 -0.018990021
v 0.004116772 -0.003898064 -0.036467277
v 0.004191713 0.010068444 -0.018800366
v 0.015566941 0.000483897 -0.019179232
v 0.011491210 0.010108482 -0.036490231
v 0.012144773 -0.007674434 -0.035474276
v 0.015147561 0.002534802 -0.018874732
v 0.004059449 -0.001597071 -0.019921656
v 0.004188290 -0.003153596 -0.023048323
v 0.004191713 -0.003939672 -0.027647597
f 1 2 3
f 7 4 6
f 9 6 4
f 9 4 7
f 9 7 1
f 9 1 3
f 10 6 9
f 10 9 3
f 10 3 2
f 11 7 5
f 11 1 7
f 11 5 8
f 11 8 2
f 11 2 1
f 12 7 6
f 12 5 7
f 13 8 5
f 13 2 8
f 13 10 2
f 13 5 12
f 14 13 12
f 14 12 6
f 14 6 10
f 14 10 13
