v 0.011262486 0.018045070 -0.008501232
v 0.012798120 0.010022343 -0.008499879
v 0.012964626 0.013599424 -0.018134813
v -0.009763514 0.013469078 -0.018042591
v -0.012694410 0.010223160 -0.008407189
v -0.011726131 0.009702618 -0.018231814
v 0.012202735 0.017535095 -0.018038452
v 0.008013290 0.017449218 -0.008426414
v 0.013639835 0.010042310 -0.018075140
v -0.013318002 0.013499872 -0.008446741
v 0.012257588 0.017291558 -0.018132141
v 0.013016641 0.009923041 -0.010757529
v -0.012743693 0.013188189 -0.014271592
v -0.004501313 0.015133310 -0.008418778
v -0.011893629 0.013764880 -0.008426407
v 0.003603974 0.016633112 -0.008420592
f 6 2 5
f 8 5 2
f 8 2 1
f 8 1 7
f 9 6 3
f 10 8 7
f 11 6 4
f 11 4 7
f 11 7 3
f 11 3 6
f 12 2 6
f 12 6 9
f 12 9 3
f 12 3 7
f 12 7 1
f 12 1 2
f 13 4 6
f 13 6 5
f 13 5 10
f 13 10 7
f 13 7 4
f 15 10 5
f 15 5 14
f 15 14 8
f 15 8 10
f 16 14 5
f 16 5 8
f 16 8 14
