v -0.008587747 0.015924243 0.010734451
v -0.003183664 0.008590132 0.006257891
v -0.008341864 0.015966598 0.000368635
v -0.014586464 0.016041425 0.000403160
v -0.014076879 0.008625130 0.010704816
v -0.008341864 0.008593905 0.000368635
v -0.014992122 0.016104865 0.004856096
v -0.007155786 0.015895378 0.006018376
v -0.005910920 0.008347940 0.010701463
v -0.003257924 0.009223089 0.006011906
v -0.013172492 0.008657116 0.000397809
v -0.015491198 0.016009346 0.010710144
v -0.008305637 0.014371301 0.010815987
v -0.003444517 0.008341809 0.006487562
v -0.014243514 0.009471786 0.010755282
v -0.014950601 0.013163857 0.010757913
f 6 4 3
f 7 1 3
f 7 3 4
f 8 3 1
f 9 2 1
f 10 6 3
f 10 2 6
f 10 3 8
f 10 8 1
f 10 1 2
f 11 4 6
f 11 9 5
f 12 1 7
f 12 7 4
f 12 4 11
f 13 9 1
f 13 1 12
f 14 6 2
f 14 2 9
f 14 11 6
f 14 9 11
f 15 5 9
f 15 9 13
f 15 12 11
f 15 11 5
f 16 15 13
f 16 13 12
f 16 12 15
