v 0.010905700 0.015840499 0.000310428
v 0.013467976 0.002381243 0.000471858
v 0.014147187 0.002990499 -0.008540144
v -0.013318002 0.013499872 -0.008446741
v -0.014181150 0.013907291 0.000438987
v -0.010972869 -0.002864608 0.000471504
v 0.011262486 0.018045070 -0.008501232
v 0.008445410 0.001275600 0.000576846
v -0.010438417 -0.001564993 -0.008403277
v 0.011550456 0.016560058 -0.008544978
v 0.010756170 0.018319686 -0.003365525
v 0.011414558 0.001919359 0.000552252
v -0.009227585 -0.002510763 0.000550541
v -0.007017469 -0.000938427 -0.008489747
v -0.014451343 0.015329989 0.000415116
v -0.001875662 -0.000939461 0.000575991
v 0.012892612 0.002759542 -0.008558076
v -0.014083284 0.015286882 -0.003657479
v 0.012964626 0.009175814 -0.008550318
v -0.014264242 0.015365849 -0.001780183
f 9 6 5
f 10 4 7
f 11 1 2
f 12 2 1
f 12 1 8
f 12 8 3
f 12 3 2
f 13 5 6
f 13 6 3
f 14 9 4
f 14 6 9
f 14 4 10
f 15 1 11
f 15 8 1
f 15 5 8
f 16 8 5
f 16 5 13
f 16 13 3
f 16 3 8
f 17 14 10
f 17 3 6
f 17 6 14
f 18 11 7
f 18 7 4
f 18 5 15
f 18 9 5
f 18 4 9
f 19 17 10
f 19 3 17
f 19 10 7
f 19 2 3
f 19 11 2
f 19 7 11
f 20 18 15
f 20 15 11
f 20 11 18
