v 0.004191713 0.010068444 -0.023223982
v 0.004414305 -0.001736713 -0.022526772
v 0.004222167 0.009083989 -0.036997918
v -0.009390686 0.006649605 -0.038051698
v -0.011383843 0.010191878 -0.023167054
v 0.003821171 -0.000526064 -0.036677011
v 0.004344186 0.009379589 -0.036248081
v -0.009397895 -0.000173325 -0.023187024
v -0.009072493 0.005078132 -0.038248245
v -0.010541833 0.010211904 -0.032742319
v -0.009834756 0.002096037 -0.023160472
v -0.008095526 -0.000200566 -0.037869470
v -0.004604523 0.007228502 -0.037922876
v -0.011321483 0.010203824 -0.023898814
v -0.010226439 0.009740624 -0.035291386
v -0.011248630 0.009480510 -0.023155109
v 0.003492957 0.008778397 -0.037207590
v 0.004047190 0.007057813 -0.037060337
f 5 2 1
f 7 1 2
f 7 6 3
f 7 2 6
f 10 1 7
f 11 8 2
f 11 5 10
f 12 6 2
f 12 2 8
f 12 8 11
f 13 9 4
f 14 10 5
f 14 5 1
f 14 1 10
f 15 10 7
f 15 7 3
f 15 4 9
f 15 9 12
f 15 12 11
f 15 11 10
f 15 13 4
f 16 11 2
f 16 2 5
f 16 5 11
f 17 6 12
f 17 12 9
f 17 9 13
f 17 15 3
f 17 13 15
f 18 17 3
f 18 3 6
f 18 6 17
