v 0.009564815 0.005574801 0.037728536
v 0.010609274 0.000486418 0.036930996
v 0.010880622 0.004483026 0.025196823
v -0.013350199 0.000490639 0.025292256
v -0.015063436 0.002204324 0.035779134
v 0.011653656 0.000359909 0.025378437
v -0.014728288 0.000571783 0.035523263
v -0.015244216 0.004862784 0.032061459
v 0.010220707 0.004374960 0.025108790
v 0.010811839 0.000339927 0.034953744
v -0.015625532 0.004960073 0.036172360
v -0.002431562 0.005380867 0.032505703
v -0.014181181 0.000636397 0.029192271
v -0.006706991 0.001986345 0.025158141
v -0.013492454 0.000434638 0.025426103
v -0.010513132 0.005029090 0.036509808
v 0.009967394 0.005391318 0.033568901
v 0.000545499 0.005765137 0.037254338
v -0.003038597 0.002802676 0.025189616
v 0.011591181 0.000347878 0.026110570
v -0.002434689 0.005671870 0.037071377
f 6 3 2
f 7 2 1
f 8 7 5
f 9 3 6
f 9 8 3
f 10 6 2
f 10 2 7
f 11 8 5
f 12 3 8
f 13 7 8
f 14 9 6
f 14 6 4
f 14 4 8
f 15 10 7
f 15 4 6
f 15 7 13
f 15 13 8
f 15 8 4
f 16 11 5
f 16 5 7
f 17 3 12
f 17 1 2
f 17 2 3
f 18 17 12
f 18 1 17
f 18 7 1
f 19 14 8
f 19 8 9
f 19 9 14
f 20 15 6
f 20 6 10
f 20 10 15
f 21 11 16
f 21 16 7
f 21 7 18
f 21 8 11
f 21 18 12
f 21 12 8
