v 0.012184054 0.000320301 0.019462064
v 0.014409021 -0.011332364 0.019528419
v 0.012964402 0.000328524 0.010618697
v 0.002622010 0.000595271 0.010574903
v 0.001881355 -0.009961539 0.019323325
v 0.001853630 -0.012146238 0.014418227
v 0.001979905 0.000483943 0.019537636
v 0.014677243 -0.011115145 0.016014674
v 0.003361158 -0.004583745 0.010329506
v 0.006755257 -0.011245042 0.019568747
v 0.001783151 -0.012001806 0.014351098
v 0.014502673 -0.011455586 0.018734362
v 0.002723743 -0.000131704 0.010476050
v 0.013611706 -0.003376339 0.011318160
v 0.003915727 -0.006163672 0.011322553
f 1 2 3
f 1 3 4
f 7 2 1
f 7 1 4
f 10 6 2
f 10 5 6
f 10 7 5
f 10 2 7
f 11 6 5
f 11 5 7
f 11 7 4
f 11 9 6
f 12 2 6
f 12 6 8
f 13 4 3
f 13 3 9
f 13 11 4
f 13 9 11
f 14 8 6
f 14 9 3
f 14 12 8
f 14 3 2
f 14 2 12
f 15 14 6
f 15 6 9
f 15 9 14
