v 0.008808536 -0.013628193 0.022438657
v 0.016481680 -0.022230513 0.019679621
v 0.014711536 -0.011325585 0.016082591
v 0.006286520 -0.011297871 0.014809886
v 0.009231053 -0.024266421 0.019765485
v 0.015119595 -0.019154651 0.017492396
v 0.006755257 -0.011245042 0.019568747
v 0.014440390 -0.011467510 0.019466136
v 0.015862104 -0.022642657 0.019953723
v 0.015893793 -0.018090196 0.017360615
v 0.008874845 -0.021256022 0.017264784
v 0.008504059 -0.011051897 0.015072507
v 0.007181120 -0.014850058 0.022555158
v 0.006911305 -0.013427191 0.022530925
v 0.016278475 -0.020505078 0.018236476
v 0.008669331 -0.019964362 0.016797279
v 0.009052636 -0.022541237 0.018040087
v 0.006382606 -0.011174480 0.015052066
v 0.007058350 -0.011104009 0.014858097
v 0.013667640 -0.011089298 0.015860004
v 0.009981168 -0.024180947 0.019896779
v 0.015884118 -0.018524058 0.017416597
v 0.009198321 -0.023902510 0.019347973
v 0.010654994 -0.021177772 0.017547194
v 0.015767018 -0.021593276 0.018876895
v 0.016444783 -0.021878280 0.019332390
v 0.010604991 -0.023063793 0.018881102
v 0.009897091 -0.022506142 0.018201789
f 8 1 2
f 9 2 1
f 10 8 2
f 10 3 8
f 13 9 1
f 13 4 5
f 14 8 7
f 14 1 8
f 14 13 1
f 14 7 4
f 14 4 13
f 15 10 2
f 15 11 6
f 16 11 4
f 16 6 11
f 17 4 11
f 18 4 7
f 19 4 18
f 19 18 7
f 19 7 12
f 19 16 4
f 20 19 12
f 20 8 3
f 20 12 7
f 20 7 8
f 21 13 5
f 21 5 9
f 21 9 13
f 22 15 6
f 22 10 15
f 22 6 16
f 22 16 19
f 22 19 20
f 22 20 3
f 22 3 10
f 23 5 4
f 23 4 17
f 23 9 5
f 23 2 9
f 24 17 11
f 24 11 15
f 24 15 17
f 26 25 15
f 26 15 2
f 27 23 17
f 27 2 23
f 27 26 2
f 27 25 26
f 28 27 17
f 28 25 27
f 28 17 15
f 28 15 25
