v 0.007739000 0.014965000 0.038042001
v 0.009564815 0.005574801 0.037728536
v 0.006363352 0.016896261 0.029897197
v -0.017039543 0.015257939 0.029872702
v -0.015651001 0.005087000 0.036185998
v -0.002721099 0.018202394 0.029751934
v 0.007978952 0.016796226 0.031361993
v 0.008546658 0.010631733 0.038287955
v -0.016623000 0.010301000 0.035890002
v -0.002440704 0.004842239 0.032178732
v -0.005016959 0.013414830 0.028062641
v -0.002279639 0.016096926 0.033741129
v 0.009938504 0.005497998 0.033664213
v 0.007636329 0.016107598 0.036731256
v 0.007808857 0.017010093 0.030716340
v 0.004975472 0.007996003 0.037878338
v -0.002427939 0.004954837 0.036951110
v -0.015012154 0.004758765 0.032051160
v -0.002464450 0.015336780 0.028386659
v -0.017017855 0.014692093 0.030852248
v 0.007713447 0.016531450 0.034940636
v 0.004243136 0.008688971 0.037918505
v 0.009371586 0.006516173 0.037876084
v -0.011974961 0.005005924 0.036416116
v -0.015244216 0.004862784 0.032061459
v -0.012697550 0.005652304 0.036446890
v -0.016037497 0.009836346 0.030268193
v -0.016364355 0.011700764 0.029932732
f 9 5 1
f 12 6 4
f 13 11 3
f 13 10 11
f 14 6 12
f 14 12 9
f 14 9 1
f 15 3 6
f 15 13 3
f 15 7 13
f 17 13 2
f 17 10 13
f 18 11 10
f 18 10 17
f 19 6 3
f 19 3 11
f 19 11 4
f 19 4 6
f 20 12 4
f 20 9 12
f 21 7 15
f 21 15 6
f 21 6 14
f 22 16 8
f 23 8 16
f 23 1 8
f 23 14 1
f 23 21 14
f 23 7 21
f 23 13 7
f 23 2 13
f 23 17 2
f 23 16 17
f 24 17 16
f 24 18 17
f 24 5 18
f 24 16 22
f 25 18 5
f 25 5 9
f 26 22 8
f 26 24 22
f 26 5 24
f 26 8 1
f 26 1 5
f 27 11 18
f 27 18 25
f 27 25 9
f 27 20 4
f 27 9 20
f 28 27 4
f 28 4 11
f 28 11 27
