v -0.005486346 0.012661310 0.030092943
v 0.010281276 0.009226356 0.021700691
v 0.009564259 0.013654434 0.020228738
v -0.016198465 0.015277819 0.020297296
v -0.014950438 0.008739972 0.020342374
v -0.002464450 0.015336780 0.028386659
v -0.016065951 0.010154247 0.029904176
v 0.010406072 0.009250575 0.020237683
v -0.002443710 0.015229328 0.020274905
v 0.009375325 0.013656751 0.022360094
v -0.002400996 0.008610706 0.021966812
v -0.013620968 0.010505642 0.030250457
v -0.017039543 0.015257939 0.029872702
v 0.010000828 0.011384311 0.020201105
v -0.001119876 0.008842382 0.020664668
v -0.007731363 0.012059301 0.030175841
v -0.016364355 0.011700764 0.029932732
f 7 4 5
f 9 6 3
f 9 3 4
f 9 4 6
f 10 6 1
f 10 1 2
f 10 3 6
f 10 8 3
f 10 2 8
f 11 7 5
f 11 2 7
f 11 8 2
f 12 7 2
f 13 6 4
f 13 1 6
f 14 8 5
f 14 5 4
f 14 4 3
f 14 3 8
f 15 11 5
f 15 5 8
f 15 8 11
f 16 12 2
f 16 2 1
f 16 13 12
f 16 1 13
f 17 7 12
f 17 12 13
f 17 13 4
f 17 4 7
