v 0.007603628 0.016471517 0.036313782
v 0.007575122 0.016788751 0.035949863
v -0.017050579 0.015056005 0.030434743
v -0.016519893 0.015237530 0.024026699
v 0.008540474 0.016493391 0.025141988
v 0.007297317 0.019877442 0.032406989
v 0.008478127 0.016798734 0.025705362
v -0.002372352 0.013320139 0.025149559
v -0.014794282 0.015990462 0.030071326
v 0.007919300 0.019859590 0.025395647
v -0.003814551 0.014845722 0.034677797
v -0.016334126 0.014793926 0.030945206
v -0.010038013 0.016426524 0.023875391
v -0.017031167 0.015382378 0.030075069
v 0.004359173 0.019657310 0.031764021
v -0.006743543 0.014771423 0.033874191
v 0.007775924 0.019937489 0.026851902
f 6 1 2
f 7 2 1
f 7 1 5
f 7 6 2
f 8 5 1
f 10 7 5
f 10 4 9
f 11 8 1
f 11 1 6
f 12 3 4
f 12 4 8
f 13 8 4
f 13 5 8
f 13 10 5
f 13 4 10
f 14 9 4
f 14 4 3
f 14 3 9
f 15 9 3
f 15 3 12
f 15 11 6
f 16 12 8
f 16 8 11
f 16 15 12
f 16 11 15
f 17 15 6
f 17 10 9
f 17 9 15
f 17 6 7
f 17 7 10
