v 0.014841707 -0.020082919 0.033593444
v 0.016442001 -0.025915001 0.028124001
v 0.016124225 -0.020275238 0.019484678
v 0.008439142 -0.020051918 0.019587082
v 0.008542421 -0.025538492 0.030312701
v 0.009443729 -0.026802197 0.022848245
v 0.013805462 -0.019985298 0.033574677
v 0.015754061 -0.023810230 0.031335295
v 0.016752876 -0.025426646 0.023540691
v 0.009259582 -0.024583613 0.020129396
v 0.009221880 -0.027469188 0.026805757
v 0.007830409 -0.022790843 0.032414206
v 0.016054751 -0.024824989 0.030143217
v 0.008710204 -0.021476172 0.019612249
v 0.016701805 -0.024666252 0.022474259
v 0.016711273 -0.026100319 0.025469091
v 0.007636542 -0.021938715 0.032762028
v 0.015230337 -0.021902361 0.032760961
v 0.013720371 -0.023180222 0.031998499
v 0.015162036 -0.024525630 0.030616208
v 0.008916423 -0.026739773 0.028683174
v 0.016507839 -0.025212232 0.023116911
v 0.009320844 -0.025264716 0.020910818
v 0.016510343 -0.022547676 0.020043518
v 0.009939133 -0.027378508 0.026684699
v 0.016515939 -0.025834147 0.024248691
v 0.007235013 -0.020076780 0.033280866
v 0.015473496 -0.022756136 0.032226187
v 0.014958508 -0.020596706 0.033384766
v 0.007973029 -0.023376022 0.032069005
v 0.012164544 -0.026628863 0.027979914
v 0.016228773 -0.025352451 0.029309530
v 0.016722361 -0.024929266 0.022811286
v 0.013614195 -0.026574285 0.027406028
v 0.009404161 -0.027496127 0.024794520
v 0.016737059 -0.025981915 0.024919132
v 0.009976530 -0.026680808 0.028558978
v 0.009355000 -0.027586000 0.025544999
v 0.009447721 -0.027093689 0.023435887
v 0.009913924 -0.027393473 0.024791910
v 0.015108497 -0.025858108 0.028700963
f 7 1 3
f 7 3 4
f 13 2 1
f 14 10 4
f 14 4 3
f 14 3 10
f 15 1 2
f 15 3 1
f 16 9 2
f 19 5 8
f 20 13 8
f 20 8 5
f 20 5 13
f 21 13 5
f 22 9 6
f 23 15 6
f 23 6 10
f 23 10 15
f 24 15 10
f 24 10 3
f 24 3 15
f 25 2 11
f 27 17 1
f 27 1 7
f 27 7 4
f 27 4 17
f 28 8 13
f 28 19 8
f 29 12 18
f 29 17 12
f 29 1 17
f 29 18 28
f 29 28 13
f 29 13 1
f 30 5 19
f 30 19 28
f 30 28 18
f 30 18 12
f 31 11 2
f 32 2 13
f 33 9 22
f 33 15 2
f 33 2 9
f 33 22 6
f 33 6 15
f 34 25 16
f 34 16 2
f 34 2 25
f 35 10 6
f 35 4 10
f 36 26 9
f 36 9 16
f 37 21 11
f 37 11 31
f 37 32 13
f 37 13 21
f 38 25 11
f 38 11 21
f 38 21 5
f 38 12 17
f 38 17 4
f 38 4 35
f 38 30 12
f 38 5 30
f 38 16 25
f 39 35 6
f 39 6 9
f 39 9 26
f 40 36 16
f 40 35 39
f 40 39 26
f 40 26 36
f 40 38 35
f 40 16 38
f 41 37 31
f 41 31 2
f 41 2 32
f 41 32 37
