v 0.006288712 0.030729642 0.020302111
v 0.008991981 0.016634733 0.020242978
v 0.007240217 0.030213514 0.010654144
v 0.001983427 0.029254715 0.010854386
v -0.001220101 0.009347794 0.020705942
v 0.005587785 0.009300271 0.021230351
v -0.001576988 0.029275345 0.020325122
v 0.002983630 0.009310551 0.010695237
v -0.001686110 0.009223923 0.014942997
v 0.005815210 0.030644224 0.020332700
v 0.003002150 0.009537376 0.010642085
v 0.009834571 0.016654996 0.010667843
v -0.001144968 0.027936881 0.014221480
v 0.001126034 0.028058618 0.010921653
v 0.009335489 0.016559465 0.016521872
v 0.009293914 0.019500835 0.010620146
v -0.001548601 0.029122648 0.018124049
v -0.001267168 0.028689186 0.014996705
v -0.000807661 0.029101189 0.015914175
f 6 2 1
f 7 5 6
f 9 5 7
f 9 8 6
f 9 6 5
f 10 7 6
f 10 6 1
f 10 1 3
f 10 3 7
f 11 4 3
f 11 8 9
f 12 6 8
f 12 8 11
f 14 11 9
f 14 4 11
f 14 9 13
f 15 2 6
f 15 6 12
f 15 1 2
f 15 12 3
f 15 3 1
f 16 12 11
f 16 11 3
f 16 3 12
f 17 9 7
f 17 7 3
f 17 3 4
f 18 14 13
f 18 4 14
f 18 13 9
f 18 9 17
f 19 18 17
f 19 17 4
f 19 4 18
