v 0.012964402 0.000328524 0.010618697
v 0.013570673 -0.002971302 0.010907074
v 0.005618155 0.000708027 0.000427570
v -0.011622892 0.000561496 0.000404441
v -0.012527306 0.000529515 0.010711445
v -0.010573455 -0.009701711 0.010752554
v 0.012962515 0.000817357 0.004934816
v 0.012195281 -0.003567295 0.011124643
v -0.010972869 -0.002864608 0.000471504
v 0.013351519 0.000627041 0.005588448
v -0.012028414 0.000624971 0.004857363
v -0.005492199 -0.008788441 0.011130064
v -0.011217634 -0.001573420 0.000440287
v -0.008420422 -0.009591187 0.011037831
v -0.011986745 -0.002316124 0.010759213
f 7 2 3
f 7 5 1
f 8 2 1
f 8 1 5
f 8 3 2
f 10 7 1
f 10 1 2
f 10 2 7
f 11 7 3
f 11 3 4
f 11 5 7
f 12 8 5
f 12 3 8
f 13 4 3
f 13 3 9
f 13 9 6
f 13 11 4
f 13 6 5
f 13 5 11
f 14 9 3
f 14 6 9
f 14 3 12
f 14 12 5
f 15 14 5
f 15 5 6
f 15 6 14
