v 0.009352598 0.010068444 -0.008478597
v 0.014147187 0.002990499 -0.008540144
v 0.015147561 0.002534802 -0.018874732
v -0.011758002 0.010120204 -0.018776494
v -0.010428586 -0.001586870 -0.008467243
v 0.009352598 0.010068444 -0.018800366
v 0.013941784 0.004060443 -0.008529211
v -0.012663042 0.010088050 -0.008469547
v 0.014420562 0.000357381 -0.019071200
v -0.012038853 0.010207636 -0.015787094
v -0.010573066 -0.000853239 -0.008415179
v 0.015523887 0.000590936 -0.018923096
v -0.009176843 -0.003298667 -0.018921198
v -0.011987494 0.006531004 -0.008409870
v -0.008454063 -0.003234256 -0.019059047
f 6 1 3
f 7 3 1
f 9 6 3
f 9 4 6
f 10 6 4
f 10 1 6
f 10 8 1
f 10 4 8
f 11 5 2
f 11 2 7
f 11 7 1
f 12 9 3
f 12 2 5
f 12 5 9
f 12 7 2
f 12 3 7
f 13 8 4
f 14 11 1
f 14 1 8
f 14 5 11
f 14 13 5
f 14 8 13
f 15 9 5
f 15 5 13
f 15 13 4
f 15 4 9
