v -0.011077905 0.026236793 0.010978761
v -0.000969172 0.015229328 0.000368635
v -0.000834690 0.027773675 -0.002528414
v -0.015856000 0.024862999 -0.004345000
v -0.015491198 0.016009346 0.010710144
v -0.001133648 0.016118120 -0.003381514
v -0.017347029 0.025671787 0.010780483
v -0.001375598 0.026779902 0.004325172
v -0.008587747 0.015924243 0.010734451
v -0.000984398 0.027709986 -0.003030771
v -0.014107591 0.015418187 -0.003666907
v -0.001345305 0.027999830 0.002897731
v -0.015657671 0.016855861 0.010760589
v -0.000872303 0.027976868 0.000406111
v -0.009679961 0.014492028 -0.004002053
v -0.010236500 0.025656533 0.010921205
v -0.001594610 0.015944339 0.004194151
v -0.014100183 0.026270306 0.010744578
v -0.009066131 0.018790954 0.010820396
v -0.014451343 0.015329989 0.000415116
v -0.002862673 0.027733470 0.002160616
f 6 3 2
f 7 4 5
f 10 6 4
f 10 3 6
f 11 5 4
f 12 1 8
f 13 7 5
f 13 1 7
f 13 5 9
f 14 8 2
f 14 2 3
f 14 12 8
f 15 9 5
f 15 2 9
f 15 6 2
f 15 11 4
f 15 4 6
f 16 8 1
f 17 9 2
f 17 2 8
f 17 8 9
f 18 7 1
f 18 1 12
f 18 14 3
f 18 3 10
f 18 10 4
f 18 4 7
f 19 13 9
f 19 1 13
f 19 16 1
f 19 9 8
f 19 8 16
f 20 15 5
f 20 5 11
f 20 11 15
f 21 18 12
f 21 12 14
f 21 14 18
