v -0.009801189 0.013672588 -0.015108120
v 0.001945144 0.012437300 -0.026229314
v -0.010451026 0.012263226 -0.033074528
v -0.010226439 0.009740624 -0.035291386
v -0.011976989 0.009662293 -0.015307551
v 0.001246600 0.010037010 -0.032797706
v -0.000931111 0.014849247 -0.017934140
v -0.012653159 0.013147619 -0.015070456
v 0.002154089 0.010756041 -0.031052062
v -0.006110846 0.009856063 -0.035514025
v -0.004500498 0.014392983 -0.018740201
v -0.000969172 0.010068444 -0.018063097
v -0.012101213 0.010195690 -0.015055334
v -0.010923902 0.012200570 -0.032728579
v -0.010139128 0.012161550 -0.033187657
v 0.002143749 0.011540027 -0.028856988
v -0.004509955 0.014444004 -0.018006602
v 0.001917278 0.010565047 -0.031504196
v -0.010765290 0.011733558 -0.033511676
v -0.012305883 0.012950585 -0.018712019
v -0.006299055 0.009974182 -0.035396170
f 6 5 4
f 7 2 3
f 10 6 4
f 11 7 3
f 12 2 7
f 12 5 6
f 12 7 1
f 13 1 8
f 13 12 1
f 13 5 12
f 15 9 6
f 15 3 9
f 15 10 3
f 16 9 3
f 16 3 2
f 16 12 9
f 16 2 12
f 17 1 7
f 17 7 11
f 17 8 1
f 17 11 3
f 17 3 14
f 18 12 6
f 18 6 9
f 18 9 12
f 19 14 3
f 19 4 14
f 19 10 4
f 19 3 10
f 20 13 8
f 20 17 14
f 20 8 17
f 20 5 13
f 20 14 4
f 20 4 5
f 21 15 6
f 21 6 10
f 21 10 15
