v 0.010609274 0.000486418 0.036930996
v 0.013488028 -0.013538267 0.034732804
v 0.012152673 0.000455421 0.019524464
v 0.001979905 0.000483943 0.019537636
v -0.001756753 -0.014400690 0.033556400
v -0.000876000 0.002510000 0.031624999
v -0.001657997 -0.011904438 0.034157483
v 0.014975077 -0.014184926 0.019303166
v -0.001706441 -0.006888750 0.019537636
v 0.000553805 -0.012641726 0.034157595
v -0.001665538 -0.002342514 0.035766065
v 0.013753966 -0.013669568 0.032004185
v 0.012319174 -0.000391103 0.019474009
v -0.001722133 -0.010477401 0.019503512
v 0.002719906 -0.013145713 0.034170148
v 0.002757685 0.000605386 0.036510332
v -0.001892258 -0.014384173 0.031368434
v 0.010086937 -0.014228914 0.019500308
v 0.007160583 -0.013379269 0.019604598
f 6 1 3
f 6 3 4
f 8 1 2
f 8 3 1
f 9 6 4
f 10 7 5
f 11 6 9
f 11 5 7
f 11 7 10
f 11 10 2
f 12 8 2
f 12 2 5
f 12 5 8
f 13 8 4
f 13 4 3
f 13 3 8
f 14 9 4
f 14 4 8
f 15 10 5
f 15 5 2
f 15 2 10
f 16 1 6
f 16 6 11
f 16 11 2
f 16 2 1
f 17 11 9
f 17 5 11
f 17 9 14
f 18 14 8
f 18 8 5
f 18 5 17
f 19 18 17
f 19 17 14
f 19 14 18
