v 0.001982549 0.000491868 0.036447726
v 0.002009550 -0.002376265 0.035966656
v 0.002441230 -0.000148408 0.012438274
v -0.012527306 0.000529515 0.010711445
v -0.014728288 0.000571783 0.035523263
v 0.002397224 -0.009487682 0.020443843
v 0.002321698 0.000561676 0.012367452
v -0.000979541 -0.006153668 0.010686673
v -0.013228889 -0.006731945 0.034378537
v -0.010512749 0.000606622 0.035765715
v 0.002082633 -0.006110192 0.013949215
v -0.002286114 0.000369281 0.010585852
v -0.011280032 -0.006008656 0.010756649
v -0.001665140 -0.006764962 0.035021972
v -0.012745743 0.000628787 0.012969087
v 0.002315289 -0.003833869 0.013505032
v -0.001641977 -0.002607076 0.010448283
v -0.011924752 -0.006727827 0.019611871
v 0.001979905 -0.006888750 0.028384867
v -0.014243483 0.000624417 0.029924260
f 6 1 2
f 6 3 1
f 7 1 3
f 8 7 3
f 9 2 1
f 9 1 5
f 10 5 1
f 10 1 7
f 11 8 3
f 11 6 8
f 12 4 7
f 13 8 6
f 13 9 5
f 13 5 4
f 14 9 6
f 14 2 9
f 15 10 7
f 15 7 4
f 16 11 3
f 16 3 6
f 16 6 11
f 17 12 7
f 17 7 8
f 17 8 13
f 17 13 4
f 17 4 12
f 18 13 6
f 18 6 9
f 18 9 13
f 19 14 6
f 19 6 2
f 19 2 14
f 20 5 10
f 20 10 15
f 20 15 4
f 20 4 5
