v 0.012202735 0.017535095 -0.018038452
v 0.013639835 0.010042310 -0.018075140
v 0.015214071 0.010088390 -0.036122256
v 0.005766665 0.009759763 -0.036379870
v -0.000969172 0.010068444 -0.018063097
v 0.014513518 0.009927003 -0.027713343
v 0.013476000 0.016844001 -0.030959999
v -0.000931111 0.014849247 -0.017934140
v 0.013795916 0.009930939 -0.019600999
v 0.008631725 0.009761981 -0.036753660
v 0.015025760 0.011111257 -0.036079498
v 0.003636680 0.015956569 -0.017942399
v -0.001054231 0.011887802 -0.026773756
v 0.001274723 0.009814007 -0.033458522
v 0.007459794 0.010604487 -0.035927000
v 0.011590437 0.010328292 -0.036492304
v 0.011700348 0.017444098 -0.018010430
v 0.012923000 0.016737999 -0.031009000
f 6 1 2
f 8 5 2
f 9 2 5
f 9 6 2
f 10 3 6
f 10 9 4
f 10 6 9
f 11 6 3
f 11 7 1
f 11 1 6
f 12 8 2
f 12 1 7
f 13 5 8
f 14 9 5
f 14 4 9
f 14 5 13
f 15 10 4
f 16 11 3
f 16 3 10
f 17 12 2
f 17 2 1
f 17 1 12
f 18 12 7
f 18 8 12
f 18 13 8
f 18 14 13
f 18 4 14
f 18 15 4
f 18 10 15
f 18 7 11
f 18 16 10
f 18 11 16
