v 0.007240217 0.030213514 0.010654144
v 0.010406456 0.013674260 0.010653228
v 0.010812231 0.018034763 -0.003384186
v -0.000849265 0.027735856 -0.003018829
v -0.001675766 0.009165659 0.005777438
v 0.008507000 0.029526999 -0.002192000
v 0.002983630 0.009310551 0.010695237
v 0.001126034 0.028058618 0.010921653
v -0.001002383 0.016146067 -0.003330595
v 0.005666252 0.009331174 0.000368635
v 0.002110507 0.029270153 0.010740725
v -0.001585267 0.027845565 0.000415514
v 0.001244767 0.025707572 0.010964472
v 0.011311163 0.013706312 0.000346255
v 0.011217578 0.015900203 -0.003348359
v -0.001706441 0.009331174 0.000368635
v 0.005806395 0.029954672 0.010744696
v -0.001080035 0.027068279 0.004264455
v -0.001144601 0.027721760 0.003401593
v 0.010812118 0.013610782 0.006200308
f 6 3 4
f 6 1 2
f 9 4 3
f 10 7 5
f 10 2 7
f 12 4 9
f 12 11 4
f 13 8 5
f 13 5 7
f 13 7 2
f 14 3 6
f 15 9 3
f 15 14 10
f 15 3 14
f 16 10 5
f 16 15 10
f 16 9 15
f 16 12 9
f 16 5 12
f 17 11 8
f 17 4 11
f 17 6 4
f 17 1 6
f 17 8 13
f 17 13 2
f 17 2 1
f 18 12 5
f 18 5 8
f 19 8 11
f 19 11 12
f 19 18 8
f 19 12 18
f 20 2 10
f 20 10 14
f 20 14 6
f 20 6 2
