v 0.003830986 0.012873846 0.014092983
v 0.003886006 0.012620387 0.009229304
v 0.004137440 0.022594973 0.000289062
v -0.004354214 0.023047203 0.000028683
v -0.005443271 0.012795151 0.000396173
v 0.000794490 0.021054599 0.009045221
v 0.005354641 0.012782652 0.000379126
v -0.004203907 0.012714660 0.014167642
v 0.002573736 0.020852408 0.008771747
v 0.002637807 0.023924682 -0.000075690
v 0.004733114 0.012646665 0.003148175
v -0.004858569 0.012670137 0.003183263
v -0.003801707 0.014673242 0.014189754
v 0.001479816 0.015716512 0.013356711
v 0.002849899 0.020749636 0.008234612
v -0.002686933 0.023969527 -0.000031646
v 0.004773933 0.015570028 0.000242429
v -0.003092000 0.020842999 0.009004000
v 0.003290384 0.014794125 0.013388009
v -0.004872659 0.015588221 0.000271282
v -0.002735297 0.020973557 0.009011277
f 7 3 1
f 8 2 1
f 8 4 5
f 10 9 3
f 10 6 9
f 11 7 1
f 11 1 2
f 11 5 7
f 12 8 5
f 12 2 8
f 12 11 2
f 12 5 11
f 13 8 1
f 13 4 8
f 14 9 6
f 14 13 1
f 14 6 13
f 15 1 3
f 15 3 9
f 16 6 10
f 17 10 3
f 17 3 7
f 17 7 5
f 18 4 13
f 18 16 4
f 19 14 1
f 19 9 14
f 19 15 9
f 19 1 15
f 20 16 10
f 20 5 4
f 20 4 16
f 20 17 5
f 20 10 17
f 21 18 13
f 21 13 6
f 21 6 16
f 21 16 18
