v 0.019281206 0.016606644 -0.017046586
v 0.026160330 -0.009079130 -0.017301288
v 0.023615707 0.013208950 -0.024682212
v 0.019412314 0.012945368 -0.024791781
v 0.019527864 0.001541245 -0.017035799
v 0.025278153 -0.011477442 -0.024979700
v 0.019414580 0.017647933 -0.020327662
v 0.025232179 0.002256610 -0.017095137
v 0.018439254 0.014152002 -0.019223333
v 0.026409609 0.000583593 -0.024602814
v 0.022959134 -0.009607432 -0.025068924
v 0.022219370 0.014363800 -0.018353360
v 0.019258359 0.009075981 -0.016637764
v 0.020883154 -0.000167256 -0.024925240
v 0.019261988 0.017726563 -0.019982981
v 0.025799061 -0.011391338 -0.024947417
v 0.026126883 0.001431516 -0.018969067
v 0.024715061 -0.009755958 -0.017038480
v 0.023189283 0.013746954 -0.021201449
v 0.021471813 0.014815709 -0.017170274
v 0.018631987 0.014007561 -0.016917215
v 0.026385909 -0.010906611 -0.024799314
v 0.026053203 -0.004656230 -0.017228770
v 0.022602957 -0.007732627 -0.017122328
v 0.025861367 -0.010373458 -0.020160783
v 0.020478168 0.015697273 -0.017263253
v 0.018440306 0.014195658 -0.019022052
v 0.026078620 -0.000768323 -0.018195181
v 0.025701377 -0.009634176 -0.017284503
v 0.026274434 -0.010380813 -0.021157267
v 0.025352147 -0.010422563 -0.020117428
v 0.025853646 -0.011210087 -0.024021046
v 0.018942562 0.017158410 -0.018126627
v 0.026160533 -0.009605470 -0.018285910
v 0.025372920 -0.011276697 -0.024057089
f 7 3 4
f 11 4 3
f 11 3 6
f 14 9 4
f 14 5 9
f 14 11 5
f 14 4 11
f 15 7 4
f 15 4 9
f 15 12 7
f 16 6 3
f 16 3 10
f 17 2 10
f 17 10 3
f 17 12 8
f 18 11 6
f 18 8 13
f 19 3 7
f 19 7 12
f 19 17 3
f 19 12 17
f 20 8 12
f 20 13 8
f 20 1 13
f 20 12 15
f 21 5 13
f 21 13 1
f 22 16 10
f 22 10 2
f 23 2 17
f 23 18 2
f 23 8 18
f 24 5 11
f 24 11 18
f 24 18 13
f 24 13 5
f 26 20 15
f 26 15 1
f 26 1 20
f 27 9 5
f 27 5 21
f 28 23 17
f 28 17 8
f 28 8 23
f 29 2 18
f 29 18 25
f 30 22 2
f 30 29 25
f 31 25 18
f 31 18 6
f 32 6 16
f 32 30 25
f 32 16 22
f 32 22 30
f 33 15 9
f 33 9 27
f 33 1 15
f 33 27 21
f 33 21 1
f 34 30 2
f 34 2 29
f 34 29 30
f 35 31 6
f 35 6 32
f 35 32 25
f 35 25 31
