v 0.021815048 0.003208528 -0.035259454
v 0.023448515 -0.011317774 -0.035037182
v 0.018519931 -0.003831667 -0.043220253
v 0.005754605 0.003207313 -0.048875496
v 0.005949364 -0.014425255 -0.044101349
v 0.013830031 0.003380268 -0.045137315
v 0.023443917 -0.002377074 -0.036821436
v 0.017075742 -0.002603565 -0.036147151
v 0.014698251 -0.014668274 -0.044019753
v 0.009336798 -0.005066662 -0.048879357
v 0.008329443 0.003371562 -0.048102508
v 0.023689441 -0.001195753 -0.035103804
v 0.021176175 -0.007337861 -0.039479768
v 0.019308388 0.003314545 -0.039623227
v 0.018177567 -0.012359341 -0.036310737
v 0.006103394 0.002971179 -0.046081804
v 0.014950275 -0.004352741 -0.046009871
v 0.005653197 -0.015741517 -0.047557652
v 0.023081548 -0.006418259 -0.036788863
v 0.022181057 -0.004455438 -0.038623891
v 0.017528184 -0.013121096 -0.042177147
v 0.021453566 0.003263786 -0.035994166
v 0.019486467 -0.003505390 -0.042212645
v 0.022666856 -0.013382700 -0.035259467
v 0.018542591 0.003031382 -0.036090029
v 0.006216104 -0.003330311 -0.044398274
v 0.012884502 -0.006309350 -0.046972255
v 0.011129914 -0.014952019 -0.046004765
v 0.005559548 -0.014111323 -0.048064432
v 0.022197523 -0.013029558 -0.036762700
v 0.020245476 -0.013146599 -0.039373535
v 0.016563198 -0.008252557 -0.044036403
v 0.022292408 -0.002557199 -0.038478694
v 0.019396985 -0.004392813 -0.042237032
v 0.015379424 -0.015206637 -0.042290505
v 0.021043132 -0.013874961 -0.036026140
v 0.014805632 -0.005334445 -0.045977760
v 0.011064961 -0.006298885 -0.047880906
v 0.005572863 -0.009264272 -0.049089887
v 0.008301807 -0.015436618 -0.046954438
v 0.023083664 -0.011260790 -0.035747796
v 0.019452568 -0.014188840 -0.039729909
v 0.018417635 -0.004391144 -0.043200942
v 0.019362788 -0.009243822 -0.041230583
v 0.012062917 -0.015312734 -0.045253245
v 0.005869684 -0.015416002 -0.045707964
v 0.015591765 -0.007280934 -0.045008424
v 0.010136300 -0.013078402 -0.046841792
v 0.011992984 -0.009194754 -0.046818694
v 0.005654070 -0.004071060 -0.049252797
v 0.007344655 -0.013087343 -0.047844721
v 0.006477376 -0.014065160 -0.047846929
v 0.014844623 -0.015087466 -0.043495007
v 0.021287605 -0.013597060 -0.037741794
v 0.020262613 -0.014192894 -0.037557278
v 0.018376155 -0.009247106 -0.042202841
v 0.013124862 -0.015467183 -0.043340226
v 0.008280081 -0.007255921 -0.048787054
v 0.006509412 -0.009215294 -0.048881095
v 0.022359324 -0.013384557 -0.036030965
v 0.019248022 -0.014371249 -0.038309790
f 8 2 1
f 11 10 4
f 12 7 1
f 12 1 2
f 12 2 7
f 15 8 5
f 16 4 5
f 16 11 4
f 17 6 3
f 17 11 6
f 17 10 11
f 19 7 2
f 20 7 19
f 22 1 7
f 22 7 14
f 22 14 6
f 22 6 11
f 23 3 6
f 23 6 14
f 24 2 8
f 24 8 15
f 25 8 1
f 25 1 22
f 25 22 11
f 25 11 16
f 26 16 5
f 26 5 8
f 26 25 16
f 26 8 25
f 27 10 17
f 28 27 9
f 29 18 5
f 29 5 4
f 30 20 19
f 30 13 20
f 30 2 24
f 31 13 30
f 32 21 9
f 33 23 14
f 33 14 7
f 33 7 20
f 33 20 23
f 34 23 20
f 34 20 13
f 34 13 31
f 34 3 23
f 36 24 15
f 36 15 5
f 37 27 17
f 37 9 27
f 37 17 3
f 38 10 27
f 39 29 4
f 41 30 19
f 41 19 2
f 41 2 30
f 42 9 21
f 42 21 31
f 43 32 3
f 43 21 32
f 44 34 31
f 44 31 21
f 45 28 9
f 45 40 28
f 45 18 40
f 46 36 5
f 46 5 18
f 47 32 9
f 47 9 37
f 47 37 3
f 47 3 32
f 48 38 28
f 48 10 38
f 48 28 40
f 49 38 27
f 49 27 28
f 49 28 38
f 50 39 4
f 50 4 10
f 50 10 39
f 51 48 40
f 52 40 18
f 52 18 29
f 52 51 40
f 52 29 51
f 53 42 35
f 53 9 42
f 53 45 9
f 54 42 31
f 54 31 30
f 55 35 42
f 55 42 24
f 55 24 36
f 56 44 21
f 56 21 43
f 56 34 44
f 56 43 3
f 56 3 34
f 57 18 45
f 57 46 18
f 57 36 46
f 57 53 35
f 57 45 53
f 58 39 10
f 58 10 48
f 58 48 51
f 59 51 29
f 59 29 39
f 59 58 51
f 59 39 58
f 60 54 30
f 60 30 24
f 60 24 42
f 60 42 54
f 61 55 36
f 61 36 57
f 61 57 35
f 61 35 55
