v 0.008555839 0.013815781 0.046939144
v 0.015757138 -0.000329107 0.034033797
v 0.006815409 0.013176855 0.028402358
v -0.006819663 0.013538007 0.027105380
v -0.013462822 0.000568566 0.041417558
v 0.010493423 0.000737704 0.024550073
v 0.012647038 0.013564105 0.039055727
v 0.009026291 0.000570740 0.045206342
v -0.011658547 0.013616993 0.044463576
v 0.006548737 0.012421933 0.027212951
v -0.012287651 0.000031809 0.026872353
v -0.008119607 0.014204013 0.047923417
v 0.014439507 0.007921658 0.039000328
v 0.011100473 -0.000077947 0.024932160
v -0.007074309 0.000058956 0.046678006
v 0.009331343 0.002998322 0.024911264
v 0.006080961 0.012909197 0.027402814
v -0.014489048 0.011624743 0.039623631
v -0.013553798 0.013533642 0.039156545
v -0.011657015 0.002477727 0.044151684
v 0.012390391 0.013549809 0.041760760
v 0.013429883 0.012559092 0.039708717
v 0.012584309 0.000494502 0.041564005
v -0.015770988 -0.000348618 0.033090393
v 0.008278207 0.009022750 0.047453956
v -0.013418787 0.009856965 0.042597024
v -0.013571593 0.013591178 0.040891922
v -0.012566321 0.003363108 0.043359224
v -0.010897609 0.000549570 0.044278582
v 0.015476888 0.002252075 0.036143117
v 0.013397190 0.010762574 0.040781900
v -0.012885478 -0.000191676 0.027998234
v -0.015393796 0.000407002 0.037912440
v 0.008200279 0.002396373 0.046354722
v 0.008257303 0.010920011 0.047486070
v 0.010648865 0.006200910 0.045138323
v -0.013445590 0.012620821 0.041743035
v -0.013463128 0.005192599 0.042514840
v 0.014308261 0.000475944 0.038718496
v 0.013353343 0.012585056 0.039913206
v 0.010543803 0.011737087 0.045245816
v -0.015492116 0.006862638 0.038437706
v 0.010657498 0.001552421 0.044119917
v 0.012401639 0.002411296 0.042364926
v 0.008830399 0.009061925 0.047023535
v 0.009730094 0.007131812 0.046121537
v -0.012493287 0.012639879 0.043511684
v -0.014378626 0.011692491 0.039906410
v -0.014403802 0.003277256 0.040682658
v 0.015347258 0.000357305 0.036095052
v 0.012363769 0.011718100 0.042587179
v 0.011442272 0.013571649 0.043527773
v 0.009711332 0.011809501 0.046148844
v 0.008818859 0.002532572 0.045969661
v 0.011510697 0.001506239 0.043217869
v -0.014353250 0.009848823 0.040758492
v 0.009058165 0.013714878 0.046500320
v 0.008802968 0.010875316 0.047054862
f 7 3 4
f 10 3 7
f 11 4 6
f 12 7 4
f 12 1 7
f 14 10 7
f 14 6 10
f 14 11 6
f 15 2 8
f 16 10 6
f 16 6 4
f 16 4 10
f 17 10 4
f 17 4 3
f 17 3 10
f 19 12 4
f 19 4 11
f 20 15 12
f 21 7 1
f 22 7 21
f 22 14 7
f 22 2 14
f 23 8 2
f 24 14 2
f 24 2 15
f 24 15 5
f 24 19 11
f 24 18 19
f 25 12 15
f 27 9 12
f 27 12 19
f 27 19 18
f 28 20 12
f 28 12 9
f 28 5 20
f 29 20 5
f 29 5 15
f 29 15 20
f 30 22 13
f 30 2 22
f 31 13 22
f 32 24 11
f 32 11 14
f 32 14 24
f 33 24 5
f 34 25 15
f 34 15 8
f 35 1 12
f 35 12 25
f 37 9 27
f 38 28 9
f 38 9 26
f 38 5 28
f 39 23 2
f 39 30 13
f 40 31 22
f 40 22 21
f 40 21 31
f 42 18 24
f 42 24 33
f 43 8 23
f 44 39 13
f 44 23 39
f 45 35 25
f 46 45 25
f 47 37 26
f 47 26 9
f 47 9 37
f 48 37 27
f 48 27 18
f 49 33 5
f 49 5 38
f 49 42 33
f 49 38 26
f 50 39 2
f 50 2 30
f 50 30 39
f 51 31 21
f 51 41 36
f 51 36 44
f 51 44 13
f 51 13 31
f 52 21 1
f 52 51 21
f 52 41 51
f 53 46 36
f 53 36 41
f 54 34 8
f 54 8 43
f 54 43 36
f 54 36 46
f 54 46 25
f 54 25 34
f 55 43 23
f 55 23 44
f 55 44 36
f 55 36 43
f 56 26 37
f 56 37 48
f 56 49 26
f 56 42 49
f 56 48 18
f 56 18 42
f 57 52 1
f 57 41 52
f 57 53 41
f 57 1 53
f 58 53 1
f 58 1 35
f 58 35 45
f 58 45 46
f 58 46 53
