v 0.003727017 0.022350700 0.001297222
v 0.010257656 0.013679545 -0.005165956
v 0.011639361 0.025009467 -0.013009088
v -0.006822123 0.024994659 -0.013005330
v -0.004909792 -0.000076689 0.000575360
v -0.002578462 0.025468181 -0.001498478
v 0.010293309 0.017045903 -0.005932818
v 0.005775987 0.001685098 0.000196093
v 0.010876422 0.020438488 -0.014123905
v 0.002479680 0.025457409 -0.001525230
v -0.006650327 0.025718385 -0.009666101
v -0.004253645 0.023518029 -0.000451826
v 0.003912290 0.022379700 0.001092405
v 0.011668470 0.020665336 -0.011131409
v 0.006744629 0.008011037 0.000474302
v -0.010809411 0.008058174 -0.007129919
v 0.005836546 0.000815612 -0.001203318
v -0.002475863 0.024456409 -0.000469248
v 0.009316488 0.025490604 -0.010782516
v -0.006970863 0.007729090 0.000233752
v -0.004267104 0.024578047 -0.001509909
v 0.011192985 0.025267434 -0.011821351
v 0.004180344 0.024542479 -0.001551381
v 0.010224498 0.013695989 -0.008015759
v 0.003903045 -0.000193281 0.000551450
v -0.010710142 0.015868267 -0.011189788
v 0.005972505 0.004181657 -0.004801334
v 0.002436311 0.024409772 -0.000517873
v -0.010550918 0.007644060 -0.003662781
v 0.009691292 0.025452225 -0.010961613
v -0.004932603 0.000169104 -0.001308508
v -0.006816388 0.020654795 -0.013113408
v -0.010827098 0.022642462 -0.010979992
v 0.003960033 0.000010217 -0.001072636
v -0.005038533 0.004234444 -0.004517236
v -0.006822372 0.025441016 -0.010947833
v -0.010358073 0.017022711 -0.005958740
v -0.011141727 0.009143934 -0.007573790
f 9 4 3
f 11 6 10
f 13 2 7
f 14 7 2
f 14 9 3
f 15 8 2
f 15 13 1
f 15 2 13
f 17 2 8
f 18 10 6
f 18 12 1
f 18 6 12
f 19 11 10
f 20 5 1
f 20 1 12
f 21 12 6
f 21 6 11
f 22 13 7
f 22 3 4
f 22 14 3
f 22 7 14
f 23 10 1
f 23 1 13
f 23 22 10
f 23 13 22
f 24 14 2
f 24 9 14
f 24 2 17
f 25 15 1
f 25 1 5
f 25 8 15
f 25 17 8
f 26 9 16
f 27 16 9
f 27 24 17
f 27 9 24
f 28 18 1
f 28 1 10
f 28 10 18
f 29 16 5
f 29 5 20
f 29 20 12
f 30 19 10
f 30 10 22
f 30 11 19
f 31 5 16
f 32 4 9
f 32 9 26
f 33 32 26
f 33 4 32
f 33 21 11
f 33 12 21
f 34 25 5
f 34 5 31
f 34 17 25
f 34 31 27
f 34 27 17
f 35 31 16
f 35 16 27
f 35 27 31
f 36 33 11
f 36 4 33
f 36 22 4
f 36 30 22
f 36 11 30
f 37 29 12
f 37 12 33
f 38 33 26
f 38 26 16
f 38 16 29
f 38 37 33
f 38 29 37
