v 0.009396780 0.025386854 -0.010800476
v 0.022846347 0.013824529 -0.020053578
v 0.020475730 0.022422692 -0.024973787
v 0.011445354 0.022333492 -0.025354909
v -0.003908641 0.014579926 -0.017162472
v 0.019412314 0.012945368 -0.024791781
v 0.011875162 0.025173908 -0.012255809
v 0.013805451 0.015095979 -0.010936420
v 0.001029277 0.022982497 -0.022317474
v 0.023131916 0.013689509 -0.024753663
v 0.017349727 0.023999879 -0.017690147
v -0.001923717 0.016209282 -0.011044749
v 0.015336879 0.017411863 -0.011330125
v 0.019034263 0.013589132 -0.017124997
v 0.008802944 0.013456773 -0.024613688
v 0.001825617 0.025003547 -0.013000298
v 0.019288370 0.023227180 -0.021260957
v 0.010653386 0.019679814 -0.010223404
v -0.002088329 0.015832544 -0.011385969
v 0.010181151 0.025306776 -0.011175331
v 0.014775123 0.024663856 -0.014616562
v 0.017072135 0.017135910 -0.013366463
v 0.020027184 0.013292490 -0.019807185
v 0.001152058 0.020862706 -0.021883340
v 0.004474172 0.022651497 -0.023861074
v -0.001041364 0.020804038 -0.010483597
v 0.018755890 0.023487415 -0.020058936
v 0.020364095 0.022513826 -0.024553953
v 0.009637015 0.022574477 -0.010319730
v -0.003775649 0.016689789 -0.017369296
v 0.018355912 0.023641974 -0.019344668
v 0.000950626 0.023548079 -0.019704973
f 10 3 2
f 10 2 6
f 10 6 4
f 10 4 3
f 13 8 2
f 14 2 8
f 14 8 5
f 15 6 5
f 15 4 6
f 16 1 7
f 18 12 8
f 18 8 13
f 19 5 8
f 19 8 12
f 20 13 7
f 20 7 1
f 20 1 13
f 21 11 7
f 21 7 13
f 22 13 2
f 22 2 11
f 22 21 13
f 22 11 21
f 23 6 2
f 23 2 14
f 23 14 5
f 23 5 6
f 24 15 5
f 24 5 9
f 24 9 15
f 25 15 9
f 25 4 15
f 25 9 16
f 25 16 7
f 25 7 4
f 26 1 16
f 26 12 18
f 26 19 12
f 27 2 17
f 27 17 4
f 28 17 2
f 28 2 3
f 28 3 4
f 28 4 17
f 29 18 13
f 29 13 1
f 29 26 18
f 29 1 26
f 30 5 19
f 30 19 26
f 30 9 5
f 30 26 16
f 31 11 2
f 31 2 27
f 31 7 11
f 31 27 4
f 31 4 7
f 32 30 16
f 32 16 9
f 32 9 30
