v 0.002602790 0.015586989 0.049903504
v 0.008354639 0.000427718 0.045631390
v 0.007871246 0.017804232 0.046281343
v -0.011301613 0.013763477 0.044907935
v -0.004502070 0.000660224 0.047873382
v -0.006870160 0.018384168 0.047596989
v 0.008113430 0.013727798 0.047335588
v 0.000867424 0.006280412 0.049883237
v -0.010318171 0.000399977 0.044731138
v 0.000830338 0.017464724 0.049842520
v 0.009035567 0.013932712 0.046468193
v 0.006017657 0.017352978 0.047975914
v 0.003536493 0.000643053 0.047915303
v -0.004548739 0.010065639 0.049828004
v 0.005308504 0.006311990 0.048793951
v -0.011136985 0.002348976 0.044618211
v -0.007416532 -0.000202175 0.046417739
v 0.007986599 0.004385651 0.046990573
v 0.007054945 0.017383982 0.047201478
v 0.005222102 0.015575944 0.048907102
v 0.004312002 0.017365009 0.048916303
v 0.001756077 0.002520646 0.048873796
v -0.001851608 0.006282995 0.049867571
v -0.008063483 0.013738837 0.048032007
v -0.003629153 0.015589715 0.049868192
v 0.003514415 0.010053306 0.049879195
v -0.007187607 0.004383888 0.047914691
v 0.007103971 0.006268807 0.047899861
v 0.006226257 0.000629909 0.046930480
v 0.006909542 0.015469085 0.047921707
v 0.003519620 0.003508734 0.048784238
v -0.002733427 0.002529327 0.048849655
v -0.008749181 0.014250369 0.047435667
v -0.001815015 0.017461808 0.049832596
v -0.004502610 0.013769359 0.049815660
v -0.005323090 0.017363994 0.048857585
v -0.003658065 0.008173876 0.049873443
v 0.002681937 0.008168239 0.049909518
v 0.003474422 0.013761837 0.049869796
v -0.006312167 0.002561207 0.047843881
v -0.008900017 0.004402835 0.046923452
v 0.007082863 0.001634273 0.046812906
v 0.006154430 0.003480432 0.047804424
v 0.004399633 0.004435401 0.048747054
v -0.010853060 0.013677689 0.045484672
v -0.006314994 0.007226676 0.048858409
v -0.005426115 0.005335946 0.048873802
v -0.007198413 0.000669412 0.046835571
v -0.010732188 0.002518340 0.045036804
v -0.009918394 0.000608332 0.045109299
v -0.008103851 0.007188874 0.047934282
v 0.008003151 0.000661702 0.045945835
f 3 2 4
f 6 3 4
f 10 3 6
f 11 2 3
f 16 4 2
f 16 2 9
f 17 9 2
f 17 13 5
f 17 2 13
f 18 11 7
f 18 2 11
f 19 11 3
f 19 3 12
f 21 10 1
f 21 20 12
f 21 1 20
f 21 12 3
f 21 3 10
f 22 5 13
f 26 7 20
f 28 18 7
f 28 26 15
f 28 7 26
f 29 13 2
f 30 7 11
f 30 11 19
f 30 19 12
f 30 20 7
f 30 12 20
f 31 8 22
f 31 22 13
f 32 5 22
f 32 22 8
f 32 8 23
f 33 24 6
f 34 10 6
f 34 25 1
f 34 1 10
f 35 24 14
f 35 14 25
f 36 6 24
f 36 35 25
f 36 24 35
f 36 34 6
f 36 25 34
f 37 25 14
f 37 23 8
f 38 26 1
f 38 8 31
f 38 15 26
f 38 37 8
f 38 1 25
f 38 25 37
f 39 26 20
f 39 20 1
f 39 1 26
f 43 29 42
f 43 28 15
f 43 42 18
f 43 18 28
f 44 31 13
f 44 13 29
f 44 29 43
f 44 43 15
f 44 38 31
f 44 15 38
f 45 33 6
f 45 6 4
f 45 4 16
f 46 37 14
f 47 32 23
f 47 23 37
f 47 37 46
f 47 46 27
f 47 27 40
f 47 40 5
f 47 5 32
f 48 40 27
f 48 17 5
f 48 5 40
f 48 27 41
f 49 16 9
f 49 45 16
f 50 9 17
f 50 48 41
f 50 17 48
f 50 49 9
f 50 41 49
f 51 24 33
f 51 33 45
f 51 49 41
f 51 45 49
f 51 41 27
f 51 27 46
f 51 46 14
f 51 14 24
f 52 42 29
f 52 29 2
f 52 2 18
f 52 18 42
