v -0.021829618 0.003214540 -0.035251932
v -0.005002695 -0.015134593 -0.044909855
v -0.004957018 -0.000814280 -0.045613187
v -0.009505786 0.003275951 -0.047589481
v -0.019371512 -0.013148817 -0.040363208
v -0.004837528 -0.006509470 -0.049846459
v -0.007929555 0.003100861 -0.045481830
v -0.017103396 -0.002631583 -0.036142131
v -0.018563196 -0.003855684 -0.043186498
v -0.004672777 -0.010233652 -0.049085958
v -0.018560998 0.003028027 -0.036097390
v -0.006960872 0.002097521 -0.045627780
v -0.010309685 0.003352683 -0.047235320
v -0.005174532 -0.004066884 -0.044336700
v -0.018153860 -0.013375966 -0.036123469
v -0.023457603 -0.002401256 -0.036783623
v -0.004723229 -0.015069309 -0.048031969
v -0.021484482 0.003266072 -0.035970784
v -0.009395917 -0.005081372 -0.048873850
v -0.005080562 -0.014739498 -0.044251519
v -0.015430990 -0.015226109 -0.042289677
v -0.023541527 -0.010349928 -0.035048348
v -0.022211502 -0.004446640 -0.038591200
v -0.005602733 -0.010192464 -0.048893302
v -0.019344903 0.003327667 -0.039597037
v -0.007596680 -0.005006723 -0.049338924
v -0.014895202 -0.004378134 -0.046045263
v -0.022672057 -0.013403250 -0.035286352
v -0.020270024 -0.014218936 -0.037519067
v -0.004806142 -0.015849659 -0.047670733
v -0.012945495 -0.014858784 -0.045059723
v -0.023680116 -0.001233564 -0.035091639
v -0.019469361 -0.003537738 -0.042206584
v -0.023079631 -0.006410091 -0.036758174
v -0.022210511 -0.013056805 -0.036711850
v -0.008338332 -0.007250642 -0.048765887
v -0.013825614 0.003385311 -0.045148103
v -0.017574301 -0.013113123 -0.042148136
v -0.017874009 -0.014124651 -0.037953436
v -0.019473616 -0.014210469 -0.039677071
v -0.012123447 -0.015303100 -0.045246582
v -0.012921096 -0.006300330 -0.046935021
v -0.022319922 -0.002572936 -0.038442394
v -0.019357145 -0.004400805 -0.042293884
v -0.022168033 -0.009301000 -0.037626061
v -0.023132710 -0.010302933 -0.035814523
v -0.007399494 -0.013080347 -0.047815231
v -0.016614966 -0.008245335 -0.044009844
v -0.015768545 -0.014641442 -0.043210699
v -0.021317062 -0.013613179 -0.037700844
v -0.008363205 -0.015442734 -0.046936800
v -0.014795806 -0.005335646 -0.046010072
v -0.011110682 -0.014946159 -0.045998832
v -0.018420123 -0.009235298 -0.042171688
v -0.021257227 -0.011223427 -0.038511078
v -0.005567975 -0.015032559 -0.047855432
v -0.014898832 -0.015076442 -0.043478356
v -0.022377970 -0.013412627 -0.035986150
v -0.010193736 -0.013072780 -0.046820254
v -0.013855686 -0.013087550 -0.044913355
v -0.014738421 -0.010182001 -0.044987888
v -0.011119558 -0.006292766 -0.047856938
v -0.012014996 -0.009185751 -0.046813543
v -0.020291085 -0.008296420 -0.040361790
f 6 4 3
f 10 6 3
f 11 1 8
f 12 3 4
f 12 4 7
f 12 11 3
f 12 7 11
f 13 7 4
f 14 11 8
f 14 3 11
f 17 10 3
f 17 3 2
f 18 11 7
f 18 1 11
f 18 7 13
f 18 16 1
f 19 13 4
f 20 14 8
f 20 2 3
f 20 3 14
f 20 15 2
f 20 8 15
f 22 15 8
f 22 8 1
f 24 6 10
f 24 10 17
f 25 16 18
f 26 19 4
f 26 4 6
f 26 6 19
f 27 13 19
f 28 15 22
f 29 21 2
f 29 15 28
f 30 17 2
f 30 2 21
f 32 22 1
f 32 1 16
f 32 16 22
f 34 22 16
f 34 16 23
f 35 28 22
f 36 19 6
f 36 6 24
f 37 25 18
f 37 18 13
f 37 33 25
f 37 9 33
f 37 27 9
f 37 13 27
f 39 29 2
f 39 2 15
f 39 15 29
f 40 21 29
f 40 29 28
f 41 30 21
f 42 27 19
f 43 33 23
f 43 23 16
f 43 16 25
f 43 25 33
f 44 33 9
f 44 23 33
f 45 34 23
f 46 35 22
f 46 22 34
f 46 45 35
f 46 34 45
f 47 36 24
f 47 19 36
f 48 38 9
f 49 38 48
f 49 40 5
f 49 5 38
f 50 5 40
f 51 30 41
f 52 27 42
f 52 48 9
f 52 9 27
f 53 51 41
f 53 41 31
f 54 38 5
f 54 5 44
f 54 44 9
f 54 9 38
f 55 45 23
f 55 35 45
f 55 50 35
f 55 5 50
f 56 47 24
f 56 24 17
f 56 51 47
f 56 17 30
f 56 30 51
f 57 21 40
f 57 40 49
f 57 41 21
f 57 49 31
f 57 31 41
f 58 50 40
f 58 40 28
f 58 28 35
f 58 35 50
f 59 19 47
f 59 47 51
f 59 51 53
f 60 52 42
f 60 42 31
f 60 31 49
f 61 49 48
f 61 48 52
f 61 60 49
f 61 52 60
f 62 42 19
f 62 59 53
f 62 19 59
f 63 53 31
f 63 31 42
f 63 62 53
f 63 42 62
f 64 55 23
f 64 23 44
f 64 44 5
f 64 5 55
