v -0.006310131 0.023041914 -0.008400657
v 0.000949447 0.014583704 -0.017163161
v 0.001029277 0.022982497 -0.022317474
v -0.020484053 0.022403535 -0.024903219
v -0.016635674 0.011926380 -0.013045878
v -0.008812530 0.013462704 -0.024545808
v -0.006650327 0.025718385 -0.009666101
v 0.001865180 0.023952886 -0.017840768
v -0.006986318 0.015945520 -0.010848497
v 0.001073409 0.014566904 -0.018040149
v -0.004472304 0.022654876 -0.023811289
v -0.023138698 0.013652034 -0.024756712
v -0.019607326 0.015368886 -0.013553995
v 0.001494168 0.022480030 -0.016974367
v -0.016273166 0.012025527 -0.012586526
v 0.001152058 0.020862706 -0.021883340
v -0.019455330 0.012913588 -0.024784869
v -0.009737472 0.025437732 -0.010947437
v -0.022303635 0.013776194 -0.018329090
v -0.007225623 0.022076602 -0.008353824
v -0.019787419 0.013772016 -0.013513272
v -0.017095026 0.012001141 -0.013671198
v -0.017345946 0.023991591 -0.017592878
v -0.022239034 0.014345099 -0.018264776
v -0.006773378 0.022553501 -0.008267814
v -0.020500041 0.013733422 -0.014644499
v -0.014842022 0.024630904 -0.014652396
v -0.019363180 0.023186920 -0.021297857
v -0.018451499 0.023605185 -0.019368863
v -0.008243423 0.025585379 -0.010273939
v -0.009405742 0.025477425 -0.010765770
v -0.020313643 0.015130384 -0.014646770
v -0.015316732 0.024531618 -0.015109265
v -0.011845976 0.025169981 -0.012175776
v -0.020334476 0.022535989 -0.024129314
v -0.018766589 0.023467331 -0.020004660
v -0.020418212 0.022481413 -0.024543705
f 8 7 1
f 8 3 7
f 9 2 1
f 10 2 5
f 10 5 6
f 10 8 2
f 11 6 4
f 11 3 6
f 11 7 3
f 14 8 1
f 14 1 2
f 14 2 8
f 15 5 2
f 15 2 9
f 16 10 6
f 16 6 3
f 16 3 8
f 16 8 10
f 17 6 5
f 17 12 4
f 17 4 6
f 20 15 9
f 20 18 13
f 21 5 15
f 21 20 13
f 21 15 20
f 22 17 5
f 22 12 17
f 22 19 12
f 24 4 12
f 24 12 19
f 25 20 9
f 25 9 1
f 25 1 7
f 26 19 22
f 26 24 19
f 26 21 13
f 26 22 5
f 26 5 21
f 28 11 4
f 30 25 7
f 30 7 11
f 31 18 20
f 31 20 25
f 31 25 30
f 32 26 13
f 32 24 26
f 32 29 24
f 32 13 23
f 32 23 29
f 33 23 13
f 33 13 27
f 33 30 11
f 33 28 23
f 33 11 28
f 34 27 13
f 34 13 18
f 34 31 30
f 34 18 31
f 34 33 27
f 34 30 33
f 35 24 28
f 36 28 24
f 36 24 29
f 36 29 23
f 36 23 28
f 37 35 28
f 37 28 4
f 37 4 24
f 37 24 35
