v 0.020363998 0.020575279 -0.033500855
v 0.020381620 0.013851903 -0.033522162
v 0.016584800 0.018847555 -0.041456767
v 0.004824081 0.017224199 -0.048898052
v 0.004837862 0.019756678 -0.037214896
v 0.007596436 0.008670670 -0.048599075
v 0.018915879 0.012390771 -0.037993313
v 0.016905578 0.013824623 -0.033656188
v 0.011202607 0.017800156 -0.046265391
v 0.005077942 0.008842377 -0.043954562
v 0.019908637 0.013397103 -0.035166022
v 0.018838652 0.019630591 -0.037850026
v 0.016776697 0.012162484 -0.040633573
v 0.017511406 0.019976708 -0.033638490
v 0.007439695 0.017396502 -0.048111748
v 0.004800712 0.012859092 -0.037426911
v 0.004832319 0.008982102 -0.049049820
v 0.007527752 0.010880522 -0.039101356
v 0.007919759 0.009019894 -0.042854802
v 0.019209082 0.012681176 -0.037251063
v 0.018362017 0.019438905 -0.038733844
v 0.012853324 0.018042887 -0.045152725
v 0.004704295 0.019557300 -0.037880212
v 0.007121123 0.008940574 -0.043218007
v 0.007751386 0.008895348 -0.043429067
v 0.019300307 0.019855051 -0.036816293
v 0.006779694 0.008894612 -0.043428907
f 5 1 3
f 5 3 4
f 8 2 1
f 11 1 2
f 13 7 6
f 13 3 7
f 14 8 1
f 14 1 5
f 14 5 8
f 15 9 6
f 15 6 4
f 15 4 9
f 16 8 5
f 17 4 6
f 17 6 10
f 17 10 16
f 18 2 8
f 18 16 10
f 18 8 16
f 19 7 2
f 19 2 18
f 20 11 2
f 20 2 7
f 21 12 7
f 21 7 3
f 21 3 1
f 22 3 13
f 22 9 4
f 22 4 3
f 22 13 6
f 22 6 9
f 23 16 5
f 23 5 4
f 23 17 16
f 23 4 17
f 24 19 18
f 24 18 10
f 25 6 7
f 25 7 19
f 25 10 6
f 26 20 7
f 26 7 12
f 26 1 11
f 26 11 20
f 26 21 1
f 26 12 21
f 27 24 10
f 27 10 25
f 27 25 19
f 27 19 24
