v 0.004381087 0.013957419 0.027316902
v 0.010955251 0.001007920 0.026222392
v 0.002494081 0.015101349 0.013601469
v -0.003684028 0.015218800 0.013748752
v -0.012287651 0.000031809 0.026872353
v 0.001671929 0.015000631 0.027156829
v 0.006428806 0.012407500 0.027063995
v 0.008863591 0.005697869 0.027025500
v -0.009230210 -0.000050280 0.014338046
v -0.006322388 0.013981927 0.027316477
v 0.003669022 0.013558412 0.014206758
v -0.011907240 0.000776258 0.027029207
v 0.006726321 0.011569511 0.027067859
v 0.009037230 -0.000095894 0.014636852
v -0.008800542 0.000747654 0.014147531
v -0.003688467 0.014983534 0.027168385
v -0.006819663 0.013538007 0.027105380
v -0.011762711 -0.000282293 0.025145725
v 0.008470075 0.000906161 0.014154048
f 6 1 3
f 6 3 4
f 7 3 1
f 8 2 7
f 9 5 4
f 11 7 2
f 11 3 7
f 12 5 2
f 12 2 8
f 12 8 1
f 12 1 10
f 13 8 7
f 13 7 1
f 13 1 8
f 14 11 2
f 15 9 4
f 15 4 3
f 16 10 1
f 16 1 6
f 16 6 4
f 16 4 10
f 17 10 4
f 17 4 5
f 17 12 10
f 17 5 12
f 18 14 2
f 18 2 5
f 18 5 9
f 18 9 14
f 19 3 11
f 19 11 14
f 19 15 3
f 19 14 9
f 19 9 15
