v -0.016970615 -0.000856223 -0.003060864
v -0.017249241 -0.006619247 -0.002946976
v -0.015887094 0.002807309 -0.011056921
v -0.023210749 0.008017159 -0.019954391
v -0.025086148 -0.006635675 -0.013519504
v -0.016986386 0.007907105 -0.008792354
v -0.022323745 -0.007176366 -0.008026738
v -0.023001073 -0.010295146 -0.019886609
v -0.015665801 0.008044315 -0.011080791
v -0.019407033 -0.005774476 -0.004306479
v -0.022165202 0.003363470 -0.009865681
v -0.017512551 -0.007513537 -0.006528343
v -0.026210642 -0.009615825 -0.018348363
v -0.017232044 0.004652973 -0.004643876
v -0.016140638 0.008143114 -0.011595183
v -0.020409130 0.000889715 -0.019887464
v -0.019450886 -0.006220771 -0.004348698
v -0.018492431 -0.005679472 -0.003415075
v -0.021208944 0.007894950 -0.014679848
v -0.026162000 0.001380000 -0.019001000
v -0.024121634 -0.003767276 -0.011765715
v -0.021232971 -0.002841621 -0.007150160
v -0.025066872 -0.008591589 -0.013734524
v -0.017024923 0.005391789 -0.005712129
v -0.017052980 0.003037344 -0.003980739
v -0.026427626 -0.009968866 -0.020109600
v -0.020510628 0.008091177 -0.019606664
v -0.020960869 -0.007462611 -0.006876011
v -0.018508883 -0.006207681 -0.003495328
v -0.024296723 0.002570405 -0.013515043
v -0.022402286 0.007950468 -0.017363342
v -0.020219077 0.007856907 -0.012914146
v -0.026103098 -0.005627349 -0.017231066
v -0.023362800 -0.007761036 -0.009910073
v -0.023132314 -0.003769690 -0.009847642
v -0.022163136 -0.004778265 -0.008054967
v -0.017545303 0.002953641 -0.004367981
v -0.026204393 0.001301097 -0.019889278
v -0.025377492 -0.009250622 -0.015559170
v -0.023096038 -0.008343602 -0.010580671
v -0.017868595 -0.006581898 -0.003278312
v -0.025105940 0.002095313 -0.015498231
v -0.017804364 0.004433203 -0.004948359
v -0.026166267 -0.009078431 -0.017291109
v -0.023099846 0.001085104 -0.010836279
v -0.021247399 0.001990829 -0.008204101
v -0.017542273 -0.000956386 -0.003529255
v -0.022541000 -0.009739000 -0.016985999
v -0.025074742 -0.001794129 -0.014538381
v -0.026096557 -0.000786860 -0.018274130
v -0.017490475 0.007803026 -0.009266571
v -0.020460581 0.003929785 -0.007833747
v -0.019391656 0.003908596 -0.006396375
v -0.022012994 -0.009371627 -0.015082562
v -0.018546863 -0.007957424 -0.008572266
v -0.019738520 -0.008330260 -0.010285425
f 1 2 3
f 9 1 3
f 12 8 3
f 12 3 2
f 15 6 9
f 16 9 3
f 16 3 8
f 17 10 7
f 18 2 1
f 18 10 17
f 19 6 15
f 24 14 9
f 24 9 6
f 24 6 14
f 25 1 9
f 25 9 14
f 26 16 8
f 26 4 16
f 27 15 9
f 27 9 16
f 27 16 4
f 27 4 15
f 28 17 7
f 29 18 17
f 29 2 18
f 30 5 21
f 31 19 15
f 31 15 4
f 31 4 30
f 31 30 11
f 31 11 19
f 32 6 19
f 32 19 11
f 34 21 5
f 34 5 23
f 34 28 7
f 35 34 7
f 35 21 34
f 36 7 10
f 36 10 22
f 36 35 7
f 37 1 25
f 38 26 20
f 38 20 4
f 38 4 26
f 39 26 8
f 39 13 26
f 40 12 2
f 40 2 28
f 40 28 34
f 40 34 23
f 40 23 39
f 41 28 2
f 41 2 29
f 41 29 17
f 41 17 28
f 42 30 4
f 42 4 20
f 43 14 6
f 43 37 25
f 43 25 14
f 44 23 5
f 44 5 33
f 44 39 23
f 44 13 39
f 44 26 13
f 44 33 20
f 44 20 26
f 45 30 21
f 45 21 35
f 45 11 30
f 45 36 11
f 45 35 36
f 46 36 22
f 46 11 36
f 46 22 10
f 47 37 18
f 47 18 1
f 47 1 37
f 48 39 8
f 49 5 30
f 49 30 42
f 49 42 33
f 49 33 5
f 50 42 20
f 50 20 33
f 50 33 42
f 51 43 6
f 51 6 32
f 51 32 43
f 52 43 32
f 52 32 11
f 53 10 18
f 53 18 37
f 53 37 43
f 53 46 10
f 53 43 52
f 53 52 11
f 53 11 46
f 54 48 8
f 54 40 39
f 54 39 48
f 55 54 8
f 55 8 12
f 56 12 40
f 56 40 54
f 56 55 12
f 56 54 55
