v 0.008883115 -0.002850682 -0.043554513
v 0.009112526 -0.000900029 -0.044066862
v -0.007624963 -0.000639323 -0.044806938
v -0.005616017 -0.005347111 -0.049926311
v 0.005513385 -0.015043452 -0.047878026
v 0.005582568 -0.000508558 -0.048105305
v 0.008638024 -0.002830363 -0.047808443
v -0.004927352 -0.014861791 -0.044478384
v 0.008412852 -0.000527631 -0.047220830
v -0.005640625 -0.000510976 -0.048097900
v 0.005869684 -0.015416002 -0.045707964
v 0.005590359 -0.005221919 -0.049899244
v -0.007521243 -0.006377249 -0.049226514
v 0.005653197 -0.015741517 -0.047557652
v 0.005949364 -0.014425255 -0.044101349
v 0.005513453 -0.006277731 -0.049748813
v 0.001806738 -0.004257154 -0.049860999
v -0.007800932 -0.006554985 -0.045199972
v -0.004686453 -0.015638656 -0.047855454
v -0.007485769 -0.004258061 -0.048945639
v 0.002925477 -0.016212315 -0.046738073
v 0.001822973 -0.008246807 -0.049876390
v -0.001862759 -0.004264328 -0.049845548
v 0.004622977 -0.015631433 -0.047858282
v -0.004963468 -0.015611661 -0.045647466
v -0.005644779 -0.005226945 -0.049885196
v -0.007592738 -0.000591154 -0.047497745
v -0.001846619 -0.008250394 -0.049866126
v 0.003680886 -0.012120781 -0.048840561
v -0.002829711 -0.016173181 -0.047581174
v -0.003790651 -0.007280040 -0.049872415
v -0.003726363 -0.012115842 -0.048828203
v -0.002986827 -0.016215452 -0.046730376
v 0.002830219 -0.016166211 -0.047572355
f 1 2 3
f 7 2 1
f 8 1 3
f 9 3 2
f 9 2 7
f 10 9 6
f 10 3 9
f 11 7 1
f 12 9 7
f 12 6 9
f 14 5 7
f 14 7 11
f 15 11 1
f 15 1 8
f 16 12 7
f 16 7 5
f 17 10 6
f 17 6 12
f 17 12 4
f 18 8 3
f 19 13 4
f 20 4 13
f 21 15 8
f 21 11 15
f 21 14 11
f 22 4 12
f 22 12 16
f 23 17 4
f 23 10 17
f 24 5 14
f 25 18 13
f 25 13 19
f 25 8 18
f 25 21 8
f 26 20 10
f 26 4 20
f 26 23 4
f 26 10 23
f 27 3 10
f 27 10 20
f 27 18 3
f 27 20 13
f 27 13 18
f 28 4 22
f 29 22 16
f 29 16 5
f 29 5 24
f 29 24 19
f 30 19 24
f 31 4 28
f 32 28 22
f 32 22 29
f 32 29 19
f 32 31 28
f 32 19 4
f 32 4 31
f 33 25 19
f 33 19 30
f 33 30 21
f 33 21 25
f 34 30 24
f 34 24 14
f 34 14 21
f 34 21 30
