v 0.006458022 0.008877990 0.000381868
v 0.022242086 0.008016551 -0.017038575
v 0.017405285 0.015950406 -0.011012424
v 0.013993574 0.017816722 -0.016654912
v 0.007065476 0.008223531 -0.005397108
v 0.021471813 0.014815709 -0.017170274
v 0.006439937 0.022589921 -0.006450694
v 0.013176378 0.007217970 -0.004895287
v 0.013581547 0.014594097 -0.017165026
v 0.019465269 0.007892173 -0.011794974
v 0.012800806 0.016753249 -0.007291184
v 0.006475939 0.022412462 -0.012039225
v 0.010798898 0.022643205 -0.010977017
v 0.019337077 0.008112011 -0.016602447
v 0.006930951 0.007724621 0.000220732
v 0.018824801 0.017012384 -0.017192612
v 0.020269612 0.015177174 -0.014594811
v 0.021196796 0.007892192 -0.014686017
v 0.017353536 0.012661347 -0.010219353
v 0.011059663 0.016962199 -0.006320744
v 0.015556817 0.016321828 -0.009292005
v 0.006914270 0.015866263 -0.011267098
v 0.006744629 0.008011037 0.000474302
v 0.019226460 0.014647148 -0.012948759
v 0.021330990 0.014786808 -0.016399746
v 0.020172546 0.012719950 -0.013868518
v 0.016473289 0.012660475 -0.009304689
v 0.018330209 0.011716769 -0.011116549
v 0.019288722 0.009792759 -0.011964701
f 9 6 2
f 12 1 7
f 12 4 9
f 13 12 7
f 14 8 5
f 14 2 8
f 14 9 2
f 14 5 9
f 15 5 8
f 16 9 4
f 16 6 9
f 16 13 6
f 16 4 12
f 16 12 13
f 17 13 3
f 18 10 8
f 18 8 2
f 20 11 7
f 20 7 1
f 20 1 11
f 21 7 11
f 21 13 7
f 21 3 13
f 22 5 1
f 22 1 12
f 22 12 9
f 22 9 5
f 23 15 8
f 23 1 5
f 23 5 15
f 23 8 21
f 23 21 11
f 23 11 1
f 24 17 3
f 25 6 13
f 25 13 17
f 25 2 6
f 25 18 2
f 26 10 18
f 26 24 10
f 26 17 24
f 26 25 17
f 26 18 25
f 27 19 3
f 27 8 19
f 27 21 8
f 27 3 21
f 28 19 8
f 28 8 10
f 28 24 3
f 28 3 19
f 29 28 10
f 29 10 24
f 29 24 28
