v 0.003964999 0.012714459 0.008147294
v 0.011523778 0.000200460 0.000254106
v 0.005354641 0.012782652 0.000379126
v -0.005443271 0.012795151 0.000396173
v -0.004219198 -0.010533805 0.008482659
v -0.013292925 -0.002781413 -0.000050817
v -0.004177350 0.012750961 0.008179831
v 0.011451326 0.001132721 0.000081554
v 0.006810377 -0.006224632 0.008221793
v 0.007751419 -0.005997260 0.000365737
v -0.008083064 0.000869012 0.008417019
v 0.007815016 0.001052885 0.008446743
v -0.013390215 -0.005903794 -0.000052541
v 0.002457244 -0.011376954 0.008541296
v 0.004895985 -0.009589802 0.008435156
v -0.007795535 0.002647364 0.008222165
v 0.007665460 0.002594056 0.008202885
v -0.006831636 -0.007104955 0.008275900
v -0.000882903 -0.010285097 0.004007471
v -0.002573456 -0.011479953 0.008520468
v 0.004021061 -0.010417955 0.008506031
v -0.005882718 -0.008802912 0.008399188
v 0.002430207 -0.010160041 0.004859030
v 0.001589321 -0.011112591 0.006761646
v -0.001708641 -0.011169725 0.006747733
v 0.000778019 -0.010265591 0.004021637
v 0.003160602 -0.010148647 0.005756125
v 0.002362132 -0.011154188 0.007658697
v -0.002503416 -0.011237311 0.007643970
v 0.003333891 -0.009344399 0.003816555
f 6 4 3
f 7 1 3
f 7 3 4
f 7 4 6
f 8 3 1
f 8 6 3
f 10 8 2
f 12 2 8
f 12 9 2
f 12 1 7
f 12 7 11
f 13 6 8
f 13 8 10
f 13 11 6
f 14 12 11
f 15 10 2
f 15 2 9
f 15 9 12
f 16 11 7
f 16 7 6
f 16 6 11
f 17 12 8
f 17 8 1
f 17 1 12
f 18 11 13
f 19 13 10
f 20 14 11
f 20 11 5
f 20 5 13
f 21 14 10
f 21 10 15
f 21 15 12
f 21 12 14
f 22 18 13
f 22 13 5
f 22 5 11
f 22 11 18
f 24 14 20
f 25 13 19
f 25 24 20
f 26 19 10
f 26 23 24
f 26 25 19
f 26 24 25
f 27 23 10
f 27 10 14
f 28 24 23
f 28 14 24
f 28 27 14
f 28 23 27
f 29 25 20
f 29 20 13
f 29 13 25
f 30 26 10
f 30 10 23
f 30 23 26
