v -0.023337364 0.004527680 -0.019737877
v -0.018769597 -0.013457136 -0.035841557
v -0.017512050 -0.002493505 -0.035503854
v -0.021829618 0.003214540 -0.035251932
v -0.026134302 -0.011101600 -0.027533333
v -0.018283603 0.000149312 -0.035930684
v -0.023018174 -0.010329349 -0.020064855
v -0.026101024 -0.000657190 -0.029241014
v -0.023235247 -0.012859978 -0.034962296
v -0.022672057 -0.013403250 -0.035286352
v -0.021482955 0.004128084 -0.024824113
v -0.018952510 -0.013179151 -0.035058391
v -0.026427626 -0.009968866 -0.020109600
v -0.023971837 0.004130258 -0.024839305
v -0.024167120 -0.001625589 -0.034804576
v -0.023262238 -0.013190639 -0.032759518
v -0.024881420 -0.012417796 -0.029722197
v -0.018827823 0.003120472 -0.035673680
v -0.020901635 -0.000203063 -0.024923508
v -0.026120910 -0.003586612 -0.029418174
v -0.026204393 0.001301097 -0.019889278
v -0.022299044 0.003259981 -0.034080696
v -0.025213213 -0.001562970 -0.032952329
v -0.024057929 -0.006428965 -0.034918399
v -0.023636975 -0.011316915 -0.024048165
v -0.025032305 -0.011981483 -0.031205413
v -0.025844449 -0.011256491 -0.024031021
v -0.026152560 0.000342035 -0.026462568
v -0.024402773 0.003367842 -0.019893619
v -0.024102470 -0.012634990 -0.033125120
v -0.025080027 -0.003538489 -0.033053956
v -0.026095927 -0.008443955 -0.028441556
v -0.026316585 -0.010377225 -0.021144641
v -0.024967642 -0.012290264 -0.028802754
v -0.025857036 -0.010421352 -0.020177960
v -0.026188006 0.001286815 -0.020860484
v -0.024096545 -0.010319583 -0.033963957
v -0.025037158 -0.008396892 -0.032113942
f 6 3 2
f 10 6 2
f 10 4 6
f 12 7 2
f 12 2 3
f 12 3 7
f 13 7 1
f 14 11 4
f 14 1 11
f 16 10 2
f 17 10 16
f 18 11 3
f 18 3 6
f 18 6 4
f 18 4 11
f 19 7 3
f 19 3 11
f 19 11 1
f 19 1 7
f 20 13 8
f 20 5 13
f 21 13 1
f 22 14 4
f 23 4 15
f 23 22 4
f 23 8 22
f 23 20 8
f 24 10 9
f 24 23 15
f 24 15 4
f 24 4 10
f 25 16 2
f 25 2 7
f 26 17 5
f 27 5 17
f 27 16 25
f 28 8 13
f 28 13 21
f 28 22 8
f 28 14 22
f 29 21 1
f 29 1 14
f 29 14 21
f 30 9 10
f 30 10 17
f 30 17 26
f 31 23 24
f 31 20 23
f 32 26 5
f 32 5 20
f 32 20 31
f 33 13 5
f 33 5 27
f 34 27 17
f 34 17 16
f 34 16 27
f 35 27 25
f 35 25 7
f 35 33 27
f 35 7 13
f 35 13 33
f 36 28 21
f 36 21 14
f 36 14 28
f 37 30 26
f 37 24 9
f 37 9 30
f 38 32 31
f 38 26 32
f 38 37 26
f 38 31 24
f 38 24 37
