v 0.003898123 0.012644745 0.014183765
v 0.010441907 -0.012350148 0.014286202
v 0.007665460 0.002594056 0.008202885
v -0.004177350 0.012750961 0.008179831
v -0.011181177 -0.012299316 0.014506973
v 0.003964999 0.012714459 0.008147294
v 0.010237079 -0.003740044 0.014546208
v -0.004203907 0.012714660 0.014167642
v 0.002457244 -0.011376954 0.008541296
v -0.006831636 -0.007104955 0.008275900
v 0.007815016 0.001052885 0.008446743
v -0.011145994 -0.004717653 0.014625268
v -0.003578528 -0.012364080 0.009609651
v 0.006810377 -0.006224632 0.008221793
v -0.004791646 0.010625468 0.008163900
v -0.008083064 0.000869012 0.008417019
v 0.005281711 -0.012323311 0.010387055
v -0.005882718 -0.008802912 0.008399188
v -0.007795535 0.002647364 0.008222165
v 0.007051957 -0.012337497 0.011335395
v 0.004895985 -0.009589802 0.008435156
v -0.008864141 -0.012259362 0.012230016
v 0.009998616 -0.012308818 0.013773598
v 0.004021061 -0.010417955 0.008506031
v -0.010744979 -0.012253099 0.013994465
f 7 6 1
f 7 3 6
f 7 5 2
f 8 6 4
f 8 1 6
f 11 7 2
f 11 3 7
f 12 8 4
f 12 5 7
f 12 7 1
f 12 1 8
f 13 2 5
f 14 6 3
f 14 9 10
f 14 3 11
f 14 11 2
f 15 4 6
f 15 14 10
f 15 6 14
f 16 10 5
f 16 5 12
f 17 13 9
f 18 10 9
f 18 9 13
f 19 15 10
f 19 10 16
f 19 4 15
f 19 16 12
f 19 12 4
f 20 2 13
f 20 13 17
f 21 9 14
f 21 20 17
f 21 14 20
f 22 18 13
f 22 13 5
f 22 10 18
f 23 20 14
f 23 14 2
f 23 2 20
f 24 21 17
f 24 17 9
f 24 9 21
f 25 22 5
f 25 5 10
f 25 10 22
