v 0.007802274 0.000256034 0.004382130
v 0.014552342 -0.006437712 -0.001692864
v 0.013996054 0.005055493 -0.002202261
v 0.014673778 0.008049971 -0.010083735
v 0.003878963 -0.005966749 0.000523872
v 0.006562560 0.008295185 0.000717136
v 0.014169404 -0.005816647 -0.000345761
v 0.014885811 0.003053765 -0.010042926
v 0.012859844 0.005196835 -0.001545703
v 0.013896845 0.006925083 -0.005034548
v 0.003853053 0.001607936 0.000243588
v 0.013808275 -0.000996213 -0.000761049
v 0.007014188 -0.005208975 0.003495956
v 0.005911919 0.008096296 -0.005011593
v 0.014837510 -0.004745007 -0.005212513
v 0.014180034 0.008153230 -0.009609054
v 0.007683049 -0.005624328 0.002000288
v 0.007801919 -0.002671570 0.004376227
v 0.006028812 0.004178094 -0.004818031
v 0.003880223 0.000732390 -0.001148250
v 0.014712893 -0.006791053 -0.003323304
v 0.007065476 0.008223531 -0.005397108
v 0.013042117 -0.005654760 0.000318324
v 0.004043943 -0.003387923 -0.000352032
v 0.012426494 0.008241080 -0.008233061
f 7 2 3
f 9 6 1
f 9 1 3
f 9 3 6
f 10 6 3
f 10 3 4
f 11 5 1
f 11 1 6
f 12 7 3
f 12 3 1
f 12 1 7
f 13 2 7
f 14 4 8
f 14 11 6
f 15 8 4
f 15 5 8
f 15 3 2
f 15 4 3
f 16 10 4
f 16 6 10
f 16 4 14
f 17 13 5
f 17 5 2
f 17 2 13
f 18 7 1
f 18 1 5
f 18 5 13
f 19 14 8
f 19 8 5
f 20 5 11
f 20 11 14
f 20 14 19
f 21 15 2
f 21 2 5
f 21 5 15
f 22 16 14
f 22 14 6
f 23 18 13
f 23 13 7
f 23 7 18
f 24 20 19
f 24 19 5
f 24 5 20
f 25 22 6
f 25 6 16
f 25 16 22
