v 0.003561559 0.017490520 0.049179700
v 0.012707756 0.013603104 0.040977572
v 0.001698874 0.025249714 0.033933332
v -0.006819663 0.013538007 0.027105380
v -0.008063483 0.013738837 0.048032007
v 0.005407921 0.013221678 0.027163950
v 0.005020337 0.024265393 0.042721280
v 0.008113430 0.013727798 0.047335588
v -0.010619667 0.020913119 0.036627280
v 0.007716158 0.022063783 0.033041280
v 0.003371485 0.014604320 0.027526993
v -0.013571593 0.013591178 0.040891922
v -0.003471778 0.023458974 0.046113800
v -0.005572269 0.013791393 0.049409122
v 0.006747186 0.019987661 0.046091155
v 0.010776680 0.013648570 0.044516042
v -0.008026593 0.022512927 0.033103147
v 0.012647038 0.013564105 0.039055727
v 0.010497232 0.019895749 0.038299207
v 0.004323911 0.025279078 0.037519200
v -0.005289176 0.014637076 0.027523311
v 0.005431822 0.023719495 0.033390640
v -0.011658547 0.013616993 0.044463576
v -0.012734162 0.013579671 0.038071333
v -0.006327210 0.013738979 0.049064906
v -0.002625503 0.020092264 0.048771870
v 0.006829443 0.018232966 0.047022946
v 0.002448379 0.022609436 0.046950907
v 0.011410182 0.015381901 0.042663700
v -0.008546997 0.021551731 0.033197159
v -0.004409313 0.025349524 0.041933688
v 0.006982314 0.013666689 0.029022099
v 0.011437958 0.018292735 0.038691990
v 0.008585676 0.020846139 0.042726609
v 0.006923903 0.023445577 0.035690936
v -0.002711315 0.025230004 0.033947479
v -0.006414423 0.023654081 0.033383346
v 0.007083806 0.022575262 0.033111754
v 0.003446366 0.025314423 0.035717648
v -0.007779493 0.020815789 0.045276891
v -0.013952552 0.013658056 0.039744923
v -0.004474906 0.018290473 0.048932848
v 0.007732242 0.016356461 0.047006903
v 0.004971383 0.023395889 0.044397618
v 0.001669726 0.025359951 0.043685129
v -0.001786110 0.021830348 0.047960904
v 0.003299891 0.020945696 0.047817122
v -0.009481192 0.021868528 0.034947628
v 0.012541367 0.015505311 0.039578443
v 0.009440488 0.021232947 0.036080130
v 0.006847317 0.023459405 0.041016888
v 0.010488909 0.019019589 0.040929775
v 0.008593367 0.018198813 0.045259584
v 0.005154141 0.024344934 0.034849689
v -0.004447703 0.025274566 0.035733896
v 0.007852730 0.022502160 0.034780890
v 0.004363760 0.024414152 0.033896778
v -0.007809380 0.018235568 0.046954207
v -0.005208302 0.024320950 0.043592565
v -0.011454002 0.016330135 0.043546059
v -0.006185948 0.015566815 0.048869780
v -0.004283364 0.020893061 0.047817955
v 0.005082526 0.019070442 0.047882286
v 0.008632008 0.016401057 0.046124505
f 11 6 4
f 14 8 1
f 16 6 2
f 18 2 6
f 21 11 4
f 21 3 11
f 22 6 11
f 22 11 3
f 23 12 6
f 23 6 16
f 24 4 6
f 24 6 12
f 25 8 14
f 25 5 23
f 25 23 16
f 25 16 8
f 26 14 1
f 29 16 2
f 30 17 4
f 32 18 6
f 32 6 10
f 32 10 18
f 36 3 21
f 37 21 4
f 37 4 17
f 37 36 21
f 38 10 6
f 38 6 22
f 39 3 36
f 41 24 12
f 41 4 24
f 42 14 26
f 43 1 8
f 44 15 34
f 45 13 28
f 45 31 13
f 45 7 20
f 45 39 31
f 45 20 39
f 45 44 7
f 45 28 44
f 46 28 13
f 47 44 28
f 47 15 44
f 47 28 46
f 47 46 26
f 47 26 1
f 48 17 30
f 48 37 17
f 48 9 31
f 48 41 9
f 48 30 4
f 48 4 41
f 49 18 10
f 49 2 18
f 49 29 2
f 50 19 33
f 50 49 10
f 50 33 49
f 51 34 19
f 51 44 34
f 51 7 44
f 51 19 50
f 51 50 35
f 51 35 20
f 51 20 7
f 52 33 19
f 52 19 34
f 52 49 33
f 52 29 49
f 53 34 15
f 53 52 34
f 53 29 52
f 53 15 27
f 53 16 29
f 54 20 35
f 54 39 20
f 54 38 22
f 54 35 38
f 55 36 37
f 55 39 36
f 55 31 39
f 55 48 31
f 55 37 48
f 56 38 35
f 56 10 38
f 56 50 10
f 56 35 50
f 57 22 3
f 57 3 39
f 57 54 22
f 57 39 54
f 58 23 5
f 59 40 13
f 59 13 31
f 59 31 9
f 59 9 40
f 60 12 23
f 60 58 40
f 60 23 58
f 60 41 12
f 60 40 9
f 60 9 41
f 61 25 14
f 61 14 42
f 61 5 25
f 61 58 5
f 61 42 58
f 62 42 26
f 62 13 40
f 62 58 42
f 62 40 58
f 62 46 13
f 62 26 46
f 63 43 27
f 63 1 43
f 63 47 1
f 63 27 15
f 63 15 47
f 64 43 8
f 64 8 16
f 64 16 53
f 64 53 27
f 64 27 43
