v 0.009914367 0.020159816 -0.033115682
v 0.013715767 0.011245818 -0.033348516
v 0.013193275 0.018392684 -0.038043095
v -0.009983583 0.017506623 -0.043576811
v -0.007256530 0.011151930 -0.032961209
v 0.002064527 0.008888799 -0.043434436
v 0.004838419 0.018707538 -0.042056398
v 0.005339772 0.018628519 -0.032941823
v 0.009696137 0.009745318 -0.039515358
v -0.009739530 0.008880839 -0.043425934
v 0.011415679 0.019678657 -0.037602164
v -0.011375988 0.020586886 -0.033320139
v -0.001886338 0.018455188 -0.043191714
v 0.005362011 0.016026628 -0.042002385
v 0.014015272 0.013457015 -0.036744030
v 0.008661611 0.011004879 -0.033702594
v -0.010961302 0.020638823 -0.033082052
v -0.010751984 0.016753414 -0.033446935
v -0.011567874 0.012673588 -0.041262876
v -0.010561239 0.018676981 -0.042136103
v 0.013875516 0.011611614 -0.034110610
v 0.011008063 0.019727331 -0.037376177
v -0.007348045 0.015724263 -0.032904413
v -0.009738414 0.009081933 -0.042498341
v -0.002467319 0.018455798 -0.043180766
v 0.013916094 0.012674943 -0.036000524
f 1 2 3
f 8 5 2
f 8 2 1
f 9 6 3
f 10 4 6
f 11 1 3
f 11 3 7
f 13 7 6
f 13 6 4
f 14 7 3
f 14 3 6
f 14 6 7
f 15 9 3
f 16 9 2
f 16 2 5
f 16 5 6
f 16 6 9
f 17 8 1
f 18 17 12
f 18 5 17
f 19 4 10
f 19 18 12
f 19 5 18
f 20 7 13
f 20 19 12
f 20 4 19
f 21 15 3
f 21 3 2
f 21 2 9
f 22 17 1
f 22 1 11
f 22 12 17
f 22 20 12
f 22 11 7
f 22 7 20
f 23 17 5
f 23 5 8
f 23 8 17
f 24 19 10
f 24 5 19
f 24 10 6
f 24 6 5
f 25 20 13
f 25 13 4
f 25 4 20
f 26 21 9
f 26 9 15
f 26 15 21
