v -0.004362130 0.008035628 0.000492313
v 0.003875418 -0.003500305 0.000503322
v -0.004995481 0.008152192 -0.004752995
v -0.018401926 0.008182156 -0.010446576
v -0.016962439 -0.006090416 -0.002228687
v -0.015390167 0.002921347 -0.010533214
v 0.003877221 -0.001991812 0.000673274
v -0.014810607 0.004843835 -0.002666712
v 0.003902453 -0.003395574 -0.000327450
v -0.015187154 0.008146903 -0.010605954
v -0.018094261 -0.007825913 -0.007968512
v -0.014870452 -0.005762009 -0.000686459
v -0.006970863 0.007729090 0.000233752
v -0.016850370 0.004603458 -0.004166835
v 0.003894857 -0.002428814 -0.000022996
v -0.017512374 0.002754033 -0.011296128
v -0.017249241 -0.006619247 -0.002946976
v -0.001980250 -0.005979584 0.000483977
v -0.012030271 0.003853046 -0.000802620
v -0.014759213 -0.003897484 -0.000717570
v -0.016219126 -0.006426746 -0.002089113
v -0.012882097 0.005177947 -0.001531157
v -0.015628093 0.001938987 -0.002609906
v -0.011074469 0.005365230 -0.000673947
v -0.016642652 -0.001935801 -0.002555751
v -0.010711205 -0.006458621 -0.001688756
v -0.017512551 -0.007513537 -0.006528343
f 1 3 4
f 7 3 1
f 9 7 2
f 10 4 3
f 10 9 6
f 10 3 9
f 11 6 9
f 13 1 4
f 13 4 8
f 13 12 1
f 14 8 4
f 15 9 3
f 15 3 7
f 15 7 9
f 16 10 6
f 16 4 10
f 16 11 4
f 16 6 11
f 17 4 11
f 17 14 4
f 17 5 14
f 18 11 9
f 18 9 2
f 18 2 7
f 18 7 1
f 18 1 12
f 20 12 13
f 20 5 12
f 21 12 5
f 21 5 17
f 21 18 12
f 22 13 8
f 22 20 19
f 22 8 20
f 23 20 8
f 23 8 14
f 24 20 13
f 24 19 20
f 24 22 19
f 24 13 22
f 25 14 5
f 25 5 20
f 25 23 14
f 25 20 23
f 26 21 17
f 26 18 21
f 27 26 17
f 27 17 11
f 27 11 18
f 27 18 26
