v -0.019248660 0.013706349 -0.018037209
v -0.020409130 0.000889715 -0.019887464
v -0.019455330 0.012913588 -0.024784869
v -0.023624321 0.013169011 -0.024704632
v -0.023985813 0.003836972 -0.019945344
v -0.022370696 -0.000197146 -0.024891804
v -0.023196068 0.013725169 -0.021120164
v -0.019881790 0.008063618 -0.017792500
v -0.020901635 -0.000203063 -0.024923508
v -0.023969708 0.004135462 -0.024794171
v -0.023010502 -0.000714954 -0.021831513
v -0.019454748 0.012957254 -0.024583240
v -0.022303635 0.013776194 -0.018329090
v -0.022674247 0.000261062 -0.019869713
v -0.022709006 0.007970870 -0.018217301
f 1 2 3
f 7 4 5
f 8 2 1
f 9 3 2
f 9 6 4
f 9 4 3
f 10 5 4
f 10 4 6
f 11 10 6
f 11 5 10
f 11 9 2
f 11 6 9
f 12 7 1
f 12 1 3
f 12 3 4
f 12 4 7
f 13 7 5
f 13 1 7
f 13 8 1
f 14 2 8
f 14 11 2
f 14 5 11
f 15 13 5
f 15 8 13
f 15 14 8
f 15 5 14
