v 0.020475730 0.022422692 -0.024973787
v 0.023131916 0.013689509 -0.024753663
v 0.020465586 0.020663855 -0.033092670
v 0.005177682 0.020548080 -0.033564230
v 0.005455340 0.020164164 -0.024362989
v 0.006138561 0.011105012 -0.034008586
v 0.020860342 0.021666766 -0.028466417
v 0.022651357 0.014187875 -0.024683287
v 0.005151836 0.022514517 -0.024495597
v 0.020900368 0.013422750 -0.033296793
v 0.009139789 0.012917054 -0.024881552
v 0.022761599 0.013338198 -0.028526442
v 0.004836625 0.018157999 -0.033613936
v 0.019411884 0.011651553 -0.030762198
v 0.008802944 0.013456773 -0.024613688
v 0.021807566 0.013361861 -0.031385511
v 0.008825740 0.011744006 -0.030293882
v 0.019411189 0.012901789 -0.024992844
v 0.013715767 0.011245818 -0.033348516
f 6 4 3
f 7 1 2
f 8 2 1
f 8 1 5
f 9 5 1
f 9 1 7
f 9 7 3
f 9 3 4
f 10 6 3
f 12 7 2
f 12 3 7
f 13 6 5
f 13 5 9
f 13 9 4
f 13 4 6
f 14 12 2
f 15 5 6
f 15 6 11
f 15 8 5
f 15 2 8
f 16 10 3
f 16 3 12
f 16 14 10
f 16 12 14
f 17 14 11
f 17 11 6
f 17 6 14
f 18 14 2
f 18 11 14
f 18 15 11
f 18 2 15
f 19 14 6
f 19 6 10
f 19 10 14
