v -0.005172318 0.022509627 -0.024476187
v -0.005557410 0.020142938 -0.024416870
v -0.006794556 0.012893950 -0.037429310
v -0.016795706 0.019653469 -0.037325938
v -0.023624321 0.013169011 -0.024704632
v -0.004382399 0.019545731 -0.034160735
v -0.020484053 0.022403535 -0.024903219
v -0.021490323 0.003166568 -0.024773409
v -0.006668040 0.016817654 -0.037510738
v -0.005187194 0.020533573 -0.033592912
v -0.004186693 0.018069713 -0.033985449
v -0.020486718 0.020621917 -0.033123537
v -0.006338186 0.010520443 -0.035878437
v -0.024247206 0.003109719 -0.024769230
v -0.017713525 0.003139170 -0.037531352
v -0.020908629 0.021627903 -0.028481540
v -0.019396781 0.019839229 -0.036739178
v -0.008812530 0.013462704 -0.024545808
v -0.018560998 0.003028027 -0.036097390
v -0.023388008 0.011323675 -0.032196988
v -0.020877098 0.003227468 -0.037134966
v -0.006824467 0.010982249 -0.033744330
v -0.022205619 0.010517222 -0.035921330
v -0.023197535 0.003238189 -0.031268801
v -0.009202153 0.012893507 -0.024918309
v -0.021343668 0.010910141 -0.036668667
v -0.022299044 0.003259981 -0.034080696
v -0.023161464 0.007109106 -0.032279467
v -0.022139748 0.010059065 -0.036007770
v -0.021484482 0.003266072 -0.035970784
v -0.021186105 0.004277745 -0.036785338
v -0.022118758 0.005219677 -0.034980764
f 5 2 1
f 7 5 1
f 10 1 6
f 10 9 4
f 10 6 9
f 11 6 1
f 11 1 2
f 11 9 6
f 11 3 9
f 13 11 2
f 13 3 11
f 14 2 5
f 15 9 3
f 15 4 9
f 15 3 13
f 15 13 8
f 16 5 7
f 16 7 1
f 16 1 10
f 17 10 4
f 17 16 10
f 17 12 16
f 18 14 8
f 18 2 14
f 19 15 8
f 19 8 14
f 20 16 12
f 20 5 16
f 20 12 17
f 20 14 5
f 21 17 4
f 21 4 15
f 21 15 19
f 21 19 14
f 22 13 2
f 22 2 18
f 22 8 13
f 23 20 17
f 24 21 14
f 24 14 20
f 25 22 18
f 25 18 8
f 25 8 22
f 26 23 17
f 26 17 21
f 27 21 24
f 28 24 20
f 28 20 23
f 28 27 24
f 28 23 27
f 29 26 21
f 29 23 26
f 29 27 23
f 30 21 27
f 31 30 29
f 31 29 21
f 31 21 30
f 32 30 27
f 32 27 29
f 32 29 30
