v 0.014081728 -0.003810417 -0.000303773
v 0.025701377 -0.009634176 -0.017284503
v 0.022160133 0.003399587 -0.009874999
v 0.019337077 0.008112011 -0.016602447
v 0.022421512 -0.007641186 -0.016955995
v 0.025232179 0.002256610 -0.017095137
v 0.014085798 0.004939603 -0.002231189
v 0.022321967 -0.007154557 -0.008025492
v 0.015156853 -0.006855726 -0.003622702
v 0.022453883 0.006977867 -0.017340835
v 0.019292976 0.003929834 -0.006289737
v 0.025024737 -0.005671578 -0.013545921
v 0.024715061 -0.009755958 -0.017038480
v 0.015360720 0.002955408 -0.010499905
v 0.014169404 -0.005816647 -0.000345761
v 0.019360845 0.001622946 -0.016658644
v 0.022242086 0.008016551 -0.017038575
v 0.017411028 0.003898647 -0.004478762
v 0.021232550 -0.002842808 -0.007147411
v 0.024237824 0.002632409 -0.013421596
v 0.025082701 -0.008551258 -0.013742669
v 0.025112640 0.002093409 -0.015499035
v 0.020960591 -0.007423091 -0.006860637
v 0.015301932 -0.004842536 -0.005594210
v 0.015148458 0.008152524 -0.010583992
v 0.019436472 -0.006207979 -0.004352969
v 0.020223332 0.007861504 -0.012910939
v 0.014812371 0.004845894 -0.002650247
v 0.022143720 -0.004769342 -0.008031045
v 0.021199369 0.002010251 -0.008144299
v 0.023364803 -0.007729939 -0.009909887
v 0.025558037 -0.009414159 -0.016389790
v 0.025184161 0.002212164 -0.016127871
v 0.025009584 -0.000831072 -0.014568301
v 0.024268929 -0.009377340 -0.015291117
v 0.014552342 -0.006437712 -0.001692864
v 0.014100116 0.007265185 -0.005801178
v 0.014842114 -0.005763640 -0.000694273
v 0.018387476 -0.004839357 -0.003486096
v 0.019278892 -0.004819642 -0.004378093
v 0.020458247 0.003958487 -0.007831775
v 0.021196796 0.007892192 -0.014686017
v 0.017369500 0.007824441 -0.009160227
v 0.014694130 -0.003888222 -0.000684546
v 0.023073238 0.001083302 -0.010834507
v 0.022112693 0.000071411 -0.009057348
v 0.024007871 -0.002783620 -0.011729085
v 0.023803915 -0.008450480 -0.011613184
v 0.024980700 -0.009343477 -0.015373937
v 0.016181392 -0.006411195 -0.002096072
v 0.018506757 -0.006174351 -0.003489018
v 0.014103687 0.006158122 -0.003980754
v 0.015611946 0.001936887 -0.002612967
v 0.024095739 0.001081933 -0.012766223
v 0.017855059 -0.006550412 -0.003271701
f 10 2 5
f 10 6 2
f 13 9 5
f 13 5 2
f 16 10 5
f 16 4 10
f 16 5 14
f 17 6 10
f 17 10 4
f 20 17 3
f 22 12 2
f 22 17 20
f 24 14 5
f 24 5 9
f 25 16 14
f 25 4 16
f 25 17 4
f 26 23 8
f 28 18 11
f 28 7 1
f 29 26 8
f 29 19 26
f 30 3 11
f 30 19 29
f 31 21 12
f 31 8 23
f 32 2 12
f 32 12 21
f 33 22 2
f 33 2 6
f 33 6 17
f 33 17 22
f 34 22 20
f 34 20 12
f 34 12 22
f 36 35 23
f 36 9 13
f 36 13 35
f 36 24 9
f 36 15 14
f 36 14 24
f 37 1 7
f 37 15 1
f 37 25 14
f 37 14 15
f 38 1 15
f 39 11 18
f 40 26 19
f 40 39 26
f 40 11 39
f 40 30 11
f 40 19 30
f 41 11 3
f 41 3 27
f 42 27 3
f 42 3 17
f 42 17 27
f 43 27 17
f 43 17 25
f 43 25 37
f 43 28 11
f 43 41 27
f 43 11 41
f 44 28 1
f 44 1 38
f 45 20 3
f 46 30 29
f 46 3 30
f 46 45 3
f 46 29 45
f 47 29 8
f 47 8 31
f 47 45 29
f 47 31 12
f 47 12 20
f 48 32 21
f 48 21 31
f 48 31 23
f 48 23 35
f 49 35 13
f 49 13 2
f 49 48 35
f 49 2 32
f 49 32 48
f 50 36 23
f 50 15 36
f 50 38 15
f 51 26 39
f 51 23 26
f 51 44 38
f 51 39 44
f 52 43 37
f 52 37 7
f 52 7 28
f 52 28 43
f 53 18 28
f 53 28 44
f 53 44 39
f 53 39 18
f 54 47 20
f 54 20 45
f 54 45 47
f 55 51 38
f 55 38 50
f 55 50 23
f 55 23 51
