v 0.002683143 0.000585521 0.048096504
v 0.015271773 -0.007208468 0.031332715
v 0.008293455 0.001983237 0.018041360
v -0.009230210 -0.000050280 0.014338046
v -0.014329210 -0.011810950 0.031193791
v 0.010823538 -0.012246444 0.014728227
v -0.015393796 0.000407002 0.037912440
v 0.015611236 0.000331642 0.035202621
v 0.000844120 -0.011616525 0.042122706
v 0.009037230 -0.000095894 0.014636852
v -0.011542000 -0.012179000 0.014916000
v 0.009678694 0.002183842 0.024784798
v 0.008672030 0.002169479 0.020904639
v 0.009701148 -0.006886212 0.041223120
v 0.014386082 -0.006471646 0.020164580
v -0.009773693 -0.007817136 0.041177454
v 0.013367821 -0.011856223 0.032115789
v -0.015388983 -0.006939673 0.021236847
v -0.014330615 -0.012110454 0.020320557
v -0.008258135 0.000573871 0.046229701
v 0.009026291 0.000570740 0.045206342
v -0.014504543 0.000452005 0.039716339
v 0.005330035 -0.006840380 0.043989047
v 0.015548819 -0.006419963 0.024136536
v 0.012445050 -0.004791962 0.016807787
v -0.008891086 -0.011568519 0.039246473
v 0.007020733 -0.011516606 0.040120401
v 0.014324122 -0.005208404 0.035900978
v -0.016472004 0.000056969 0.034544677
v -0.013602338 -0.005819337 0.017482063
v -0.016410945 -0.006314515 0.029508478
v 0.014325032 -0.011947358 0.028500330
v -0.002785836 0.000550743 0.048207764
v 0.012584309 0.000494502 0.041564005
v -0.012679334 0.000533317 0.042415222
v -0.014332531 -0.006063726 0.036713785
v 0.001731833 -0.005002750 0.045934829
v 0.005323491 -0.000317884 0.046988047
v 0.007940220 -0.002143667 0.044916898
v 0.015341844 -0.008214083 0.029488587
v 0.013435299 -0.012130807 0.019369279
v 0.010559308 -0.002372214 0.015202007
v 0.012469155 -0.010321586 0.016750980
v -0.005451144 -0.011596479 0.041196078
v 0.011551737 -0.011682971 0.035668217
v 0.004433217 -0.010584949 0.042036366
v 0.007909275 -0.007777362 0.042061066
v 0.014246922 -0.008972425 0.033011895
v 0.015224650 -0.004324945 0.034103223
v -0.011639578 -0.004812668 0.015099181
v -0.013415161 -0.011214785 0.017642541
v -0.010633700 -0.002173696 0.014757257
v -0.015396233 -0.011091209 0.024863156
v -0.016468438 -0.006086102 0.026086492
v -0.006453993 0.000569824 0.047152463
v 0.014627761 0.000380481 0.037980425
v 0.010623227 -0.001275526 0.043152769
v 0.011463479 -0.006944690 0.039381784
v -0.010897609 0.000549570 0.044278582
v -0.015301155 -0.000472532 0.037805749
v -0.014354612 -0.000458840 0.039649727
v -0.012531471 -0.006024097 0.039486671
v -0.016354311 -0.005344228 0.031347590
v 0.000850693 -0.003106503 0.046912072
f 10 6 4
f 10 4 3
f 10 3 8
f 11 4 6
f 12 8 3
f 13 3 4
f 13 4 7
f 13 12 3
f 19 9 5
f 19 11 6
f 21 12 1
f 22 13 7
f 22 12 13
f 24 15 8
f 25 8 15
f 29 7 4
f 30 18 29
f 32 17 9
f 32 9 19
f 32 19 6
f 33 1 12
f 34 12 21
f 35 12 22
f 38 21 1
f 38 37 23
f 38 1 37
f 39 38 23
f 39 21 38
f 40 24 8
f 40 8 2
f 40 32 24
f 40 2 32
f 41 15 24
f 41 32 6
f 41 24 32
f 42 10 8
f 42 8 25
f 42 25 6
f 42 6 10
f 43 25 15
f 43 6 25
f 43 41 6
f 43 15 41
f 44 26 5
f 44 5 9
f 44 16 26
f 45 14 27
f 45 27 9
f 45 9 17
f 46 27 23
f 46 9 27
f 46 37 9
f 46 23 37
f 47 27 14
f 47 23 27
f 47 39 23
f 47 14 39
f 48 32 2
f 48 17 32
f 48 45 17
f 48 28 45
f 49 2 8
f 49 48 2
f 49 28 48
f 50 11 30
f 51 19 18
f 51 18 30
f 51 30 11
f 51 11 19
f 52 30 29
f 52 29 4
f 52 50 30
f 52 4 11
f 52 11 50
f 53 19 5
f 53 5 31
f 53 18 19
f 54 31 29
f 54 29 18
f 54 53 31
f 54 18 53
f 55 33 12
f 55 12 20
f 55 44 33
f 55 20 16
f 55 16 44
f 56 8 12
f 56 12 34
f 56 34 28
f 56 49 8
f 56 28 49
f 57 34 21
f 57 39 14
f 57 21 39
f 58 28 34
f 58 45 28
f 58 14 45
f 58 57 14
f 58 34 57
f 59 20 12
f 59 12 35
f 59 16 20
f 60 22 7
f 60 7 29
f 61 35 22
f 61 60 36
f 61 22 60
f 62 61 36
f 62 35 61
f 62 59 35
f 62 16 59
f 62 26 16
f 62 36 5
f 62 5 26
f 63 31 5
f 63 5 36
f 63 29 31
f 63 60 29
f 63 36 60
f 64 37 1
f 64 1 33
f 64 33 44
f 64 44 9
f 64 9 37
