v -0.010550918 0.007644060 -0.003662781
v -0.010337324 0.008829149 -0.004171827
v -0.015654178 0.016291403 -0.009310544
v -0.022199755 0.013840867 -0.018041439
v -0.019881790 0.008063618 -0.017792500
v -0.019482205 0.007890185 -0.011789573
v -0.010358073 0.017022711 -0.005958740
v -0.010618728 0.015433640 -0.013194902
v -0.013197854 0.007198294 -0.004906789
v -0.019325845 0.014638081 -0.013011114
v -0.022709006 0.007970870 -0.018217301
v -0.010310385 0.013672740 -0.005209210
v -0.011233343 0.008203690 -0.007428274
v -0.010311057 0.020532629 -0.013697211
v -0.017431603 0.012656585 -0.010272983
v -0.012885805 0.016723350 -0.007327625
v -0.011419324 0.007397448 -0.003832713
v -0.014387263 0.020611181 -0.013323984
v -0.021167033 0.012767028 -0.015630301
v -0.018884666 0.014141233 -0.017858115
v -0.022402286 0.007950468 -0.017363342
v -0.010321684 0.018703660 -0.008818314
v -0.016473366 0.012653824 -0.009313984
v -0.019336758 0.009798301 -0.011958152
v -0.017494144 0.015914672 -0.011042698
v -0.011155853 0.016942998 -0.006322594
v -0.021464103 0.013767236 -0.016461508
v -0.022433906 0.011842599 -0.018284834
v -0.022137985 0.011816536 -0.017464228
v -0.010589108 0.020614952 -0.010395614
v -0.018329085 0.011710812 -0.011123847
v -0.020264748 0.011755203 -0.013832848
v -0.018678150 0.015674079 -0.012547099
v -0.011909744 0.020441070 -0.011187071
v -0.018832294 0.015891309 -0.013439267
v -0.013912557 0.020509488 -0.012819194
f 11 5 9
f 12 7 1
f 12 1 2
f 13 8 2
f 13 2 1
f 13 5 8
f 14 8 5
f 14 12 2
f 14 2 8
f 15 6 9
f 16 3 9
f 17 1 7
f 17 16 9
f 17 13 1
f 17 9 5
f 17 5 13
f 18 14 4
f 18 3 16
f 20 5 11
f 20 14 5
f 20 4 14
f 21 11 9
f 21 9 6
f 21 6 19
f 21 4 11
f 22 7 12
f 22 12 14
f 23 15 9
f 23 9 3
f 25 3 18
f 25 23 3
f 25 15 23
f 26 17 7
f 26 16 17
f 27 19 10
f 28 20 11
f 28 11 4
f 28 4 20
f 29 21 19
f 29 4 21
f 29 27 4
f 29 19 27
f 30 7 22
f 30 26 7
f 30 16 26
f 30 22 14
f 30 14 18
f 31 24 6
f 31 6 15
f 31 15 25
f 31 25 10
f 31 10 24
f 32 19 6
f 32 6 24
f 32 24 10
f 32 10 19
f 33 25 18
f 33 10 25
f 33 27 10
f 33 4 27
f 34 16 30
f 35 33 18
f 35 18 4
f 35 4 33
f 36 34 30
f 36 30 18
f 36 18 16
f 36 16 34
