v -0.016795706 0.019653469 -0.037325938
v -0.009505786 0.003275951 -0.047589481
v -0.010429631 0.009319318 -0.041403915
v -0.009737292 0.017645864 -0.046896625
v -0.019566625 0.009500946 -0.040620748
v -0.009908097 0.018672193 -0.042161350
v -0.016672491 0.018834880 -0.041384233
v -0.013956534 0.008314600 -0.046117059
v -0.020877098 0.003227468 -0.037134966
v -0.009411219 0.008376421 -0.048188142
v -0.013785715 0.010229808 -0.037187829
v -0.019221750 0.019760197 -0.037104136
v -0.012951102 0.018036008 -0.045080912
v -0.013825614 0.003385311 -0.045148103
v -0.009382050 0.006249723 -0.048290249
v -0.010300753 0.008220966 -0.047967188
v -0.015642497 0.018940505 -0.037904391
v -0.010363608 0.002941984 -0.044269422
v -0.018411712 0.019395802 -0.038789154
v -0.016616194 0.019518255 -0.038183605
v -0.021726861 0.010311934 -0.036945406
v -0.011306476 0.017783669 -0.046251252
v -0.015824675 0.009126188 -0.044237889
v -0.019344903 0.003327667 -0.039597037
v -0.011061406 0.003424747 -0.046906143
v -0.010190775 0.006327436 -0.047936035
v -0.017337010 0.003030617 -0.038029731
v -0.021196809 0.009119378 -0.037806127
v -0.021360992 0.010135578 -0.037689628
v -0.020515827 0.003285482 -0.037817153
v -0.015592142 0.005327105 -0.044189653
v -0.012930606 0.004385222 -0.045982523
v -0.011976077 0.006323010 -0.046980971
v -0.021578975 0.009077303 -0.037022436
v -0.019296216 0.007221728 -0.040535965
v -0.020265286 0.005262882 -0.038628596
v -0.013758959 0.007286479 -0.046047468
v -0.018313411 0.005309313 -0.041341929
f 6 3 2
f 7 6 4
f 10 4 6
f 11 3 6
f 12 11 1
f 13 7 4
f 13 5 7
f 15 10 6
f 15 6 2
f 16 4 10
f 16 10 15
f 17 11 6
f 17 6 1
f 17 1 11
f 18 2 3
f 18 3 11
f 18 14 2
f 19 7 5
f 19 12 6
f 19 6 7
f 20 12 1
f 20 1 6
f 20 6 12
f 21 9 11
f 21 11 12
f 21 12 19
f 22 13 4
f 22 8 13
f 22 16 8
f 22 4 16
f 23 13 8
f 23 8 5
f 23 5 13
f 24 18 9
f 24 14 18
f 25 2 14
f 26 16 15
f 26 8 16
f 26 15 2
f 26 2 25
f 27 18 11
f 27 11 9
f 27 9 18
f 29 21 19
f 29 19 5
f 29 5 28
f 30 24 9
f 30 9 28
f 31 5 8
f 31 8 14
f 31 14 24
f 32 25 14
f 33 26 25
f 33 8 26
f 33 25 32
f 34 29 28
f 34 28 9
f 34 9 21
f 34 21 29
f 35 30 5
f 35 24 30
f 36 30 28
f 36 28 5
f 36 5 30
f 37 32 14
f 37 14 8
f 37 33 32
f 37 8 33
f 38 31 24
f 38 24 35
f 38 35 5
f 38 5 31
