v 0.002726062 -0.011911415 0.041620106
v 0.013628465 -0.011945456 0.031256657
v 0.007334733 -0.011865933 0.039667262
v -0.001800609 -0.011709439 0.008456858
v -0.002653123 -0.025763451 0.017371484
v -0.008241901 -0.011797145 0.039543069
v 0.010414758 -0.016735834 0.015855258
v 0.006041892 -0.023789060 0.025394505
v -0.003707702 -0.011872268 0.041569772
v -0.014558033 -0.012129525 0.021162219
v 0.002496594 -0.022159916 0.012336769
v 0.011576959 -0.012227263 0.015753776
v 0.008755358 -0.019102296 0.030898865
v -0.002657198 -0.023760998 0.028965824
v 0.011478977 -0.018517018 0.021068281
v -0.011913344 -0.011873844 0.035890190
v -0.008695830 -0.018595647 0.014022601
v 0.005139844 -0.024756692 0.018290954
v 0.012620070 -0.012184526 0.017509957
v 0.005264294 -0.013293917 0.010427523
v 0.011559368 -0.012644566 0.034753176
v 0.004354758 -0.019990864 0.033562465
v 0.000822573 -0.025813110 0.024464756
v -0.011560957 -0.019312529 0.024637135
v -0.005324191 -0.019039479 0.034494591
v 0.009623614 -0.021212510 0.023677030
v -0.014719941 -0.012030410 0.029427249
v -0.009830781 -0.012286582 0.013065035
v -0.003384471 -0.023030787 0.013242406
v 0.001672324 -0.024774336 0.014836544
v 0.007627633 -0.022050010 0.016668463
v 0.000860580 -0.011809250 0.008438057
v 0.013325905 -0.014875741 0.022060314
v 0.011447813 -0.013100985 0.015792291
v 0.006857469 -0.017765725 0.012353698
v 0.012324050 -0.014552011 0.031099637
v 0.011849471 -0.011935265 0.034989174
v 0.008772400 -0.016244851 0.034525900
v 0.004437515 -0.014374708 0.039194900
v 0.005264216 -0.020942820 0.031754944
v -0.003565559 -0.025763403 0.022654127
v 0.003429001 -0.025774611 0.021714304
v -0.006948588 -0.023854549 0.018319305
v -0.011373859 -0.018475604 0.018452012
v -0.005409352 -0.015303348 0.038249754
v -0.007049518 -0.018084567 0.034515470
v -0.000946129 -0.020078795 0.034579139
v 0.007791481 -0.021924627 0.027180227
v 0.007847497 -0.022948536 0.023602377
v -0.011472949 -0.017284238 0.030073707
v -0.014352084 -0.013907653 0.022970399
v -0.012669392 -0.012191880 0.016585730
v -0.007085234 -0.015104394 0.011371601
v -0.002650227 -0.018762588 0.010458633
v -0.002596992 -0.022223487 0.012267022
v -0.001745488 -0.024840472 0.014817191
v 0.010434213 -0.018556805 0.017484506
v 0.009514799 -0.021222254 0.020130228
v 0.004135459 -0.023810200 0.014917083
v 0.007051957 -0.012337497 0.011335395
v 0.013694849 -0.012192819 0.020174934
v 0.012442228 -0.013086768 0.017529076
v 0.003436959 -0.017851780 0.010522106
v 0.007695317 -0.019473333 0.014039472
f 3 2 4
f 6 3 4
f 9 1 3
f 9 3 6
f 16 6 4
f 27 16 4
f 27 4 10
f 32 19 12
f 32 4 2
f 32 2 19
f 34 12 19
f 35 34 7
f 36 21 13
f 36 13 26
f 36 26 15
f 36 33 2
f 36 15 33
f 37 2 3
f 37 3 21
f 37 36 2
f 37 21 36
f 38 21 3
f 38 13 21
f 39 3 1
f 39 38 3
f 39 22 38
f 40 38 22
f 40 13 38
f 40 23 8
f 40 22 14
f 40 14 23
f 41 23 14
f 41 5 23
f 42 8 23
f 42 23 5
f 42 30 18
f 42 5 30
f 43 41 24
f 43 5 41
f 43 29 5
f 43 17 29
f 44 43 24
f 44 17 43
f 45 9 6
f 46 6 16
f 46 14 25
f 46 45 6
f 46 25 45
f 47 25 14
f 47 14 22
f 47 45 25
f 47 22 39
f 47 39 1
f 47 1 9
f 47 9 45
f 48 26 13
f 48 40 8
f 48 13 40
f 49 42 18
f 49 8 42
f 49 48 8
f 49 26 48
f 50 27 24
f 50 16 27
f 50 46 16
f 50 14 46
f 50 41 14
f 50 24 41
f 51 27 10
f 51 24 27
f 51 44 24
f 51 10 44
f 52 10 4
f 52 4 28
f 52 44 10
f 52 28 17
f 52 17 44
f 53 28 4
f 53 17 28
f 54 4 32
f 54 53 4
f 54 17 53
f 55 11 30
f 55 54 11
f 55 29 17
f 55 17 54
f 56 30 5
f 56 5 29
f 56 55 30
f 56 29 55
f 57 33 15
f 58 15 26
f 58 26 49
f 58 49 18
f 58 18 31
f 58 57 15
f 58 31 57
f 59 30 11
f 59 31 18
f 59 18 30
f 60 32 12
f 60 20 32
f 60 35 20
f 60 12 34
f 60 34 35
f 61 19 2
f 61 2 33
f 61 33 57
f 62 34 19
f 62 7 34
f 62 19 61
f 62 61 57
f 62 57 7
f 63 32 20
f 63 20 35
f 63 35 11
f 63 54 32
f 63 11 54
f 64 35 7
f 64 31 59
f 64 59 11
f 64 11 35
f 64 57 31
f 64 7 57
