v 0.026409609 0.000583593 -0.024602814
v 0.026385909 -0.010906611 -0.024799314
v 0.024229917 -0.004500305 -0.034951148
v 0.018795925 0.003121200 -0.035672995
v 0.020883154 -0.000167256 -0.024925240
v 0.018686601 -0.012201756 -0.035681259
v 0.021815048 0.003208528 -0.035259454
v 0.026102355 -0.000625500 -0.029273588
v 0.021491913 0.003167694 -0.024769087
v 0.023228755 -0.012831239 -0.035011266
v 0.019655425 -0.012568439 -0.035828636
v 0.017504265 -0.002469630 -0.035530538
v 0.022959134 -0.009607432 -0.025068924
v 0.026080037 -0.009406030 -0.028373195
v 0.022268707 0.003252160 -0.034102711
v 0.025206414 -0.001537972 -0.032944604
v 0.021353285 -0.013778890 -0.035583531
v 0.018273136 0.000149996 -0.035933601
v 0.025019847 -0.012000829 -0.031234461
v 0.026155561 0.000374599 -0.026488819
v 0.024661047 0.002673414 -0.024708296
v 0.024162050 -0.001596872 -0.034846254
v 0.026038822 -0.005517011 -0.029334015
v 0.022666856 -0.013382700 -0.035259467
v 0.025262608 -0.011503025 -0.025097987
v 0.024050399 -0.011283073 -0.033888046
v 0.024986880 -0.004512612 -0.033055389
v 0.026130364 -0.011119642 -0.027555511
v 0.024100765 -0.012604169 -0.033173323
v 0.025799061 -0.011391338 -0.024947417
v 0.024067365 -0.006426415 -0.034868377
v 0.024974543 -0.012253406 -0.028830516
v 0.023058940 -0.013292629 -0.033616429
v 0.024372262 -0.012398760 -0.029228815
v 0.022209947 -0.013475744 -0.034193342
f 8 1 2
f 9 5 2
f 9 2 1
f 12 6 5
f 12 9 4
f 12 5 9
f 13 2 5
f 13 5 6
f 14 8 2
f 15 7 4
f 15 4 9
f 16 15 8
f 16 7 15
f 17 6 11
f 18 4 7
f 18 17 11
f 18 7 3
f 18 3 17
f 18 12 4
f 18 11 6
f 18 6 12
f 20 15 1
f 20 1 8
f 20 8 15
f 21 15 9
f 21 9 1
f 21 1 15
f 22 16 3
f 22 3 7
f 22 7 16
f 23 16 8
f 23 8 14
f 24 17 3
f 24 3 10
f 25 13 6
f 25 6 17
f 27 14 19
f 27 23 14
f 27 16 23
f 27 3 16
f 27 26 3
f 27 19 26
f 28 19 14
f 28 14 2
f 29 24 10
f 29 26 19
f 29 10 26
f 30 2 13
f 30 13 25
f 31 26 10
f 31 10 3
f 31 3 26
f 32 29 19
f 32 19 28
f 32 28 2
f 32 2 30
f 32 30 25
f 33 24 29
f 33 29 32
f 33 17 24
f 34 32 25
f 34 25 17
f 34 33 32
f 35 34 17
f 35 17 33
f 35 33 34
