v 0.023615707 0.013208950 -0.024682212
v 0.024250734 0.003148591 -0.024775738
v 0.020268001 0.009757000 -0.039600000
v 0.007577000 0.007639000 -0.049316999
v 0.007465029 0.012700875 -0.039486868
v 0.019308388 0.003314545 -0.039623227
v 0.023395000 0.011360000 -0.032210000
v 0.019413366 0.012989024 -0.024590500
v 0.008261529 0.002931124 -0.045295952
v 0.009277055 0.013049795 -0.046366744
v 0.013951132 0.008342404 -0.046097434
v 0.022268707 0.003252160 -0.034102711
v 0.021491913 0.003167694 -0.024769087
v 0.007510293 0.003316108 -0.048387735
v 0.007713070 0.012903213 -0.047031341
v 0.019394301 0.012894850 -0.036744186
v 0.013763803 0.014095106 -0.037130852
v 0.018299014 0.005309939 -0.041360208
v 0.012820009 0.013113987 -0.044123644
v 0.010203443 0.008228256 -0.048018933
v 0.021166542 0.004271157 -0.036779373
v 0.022178592 0.010564024 -0.035883420
v 0.023167660 0.003229312 -0.031289759
v 0.013174287 0.011336166 -0.032192174
v 0.008126628 0.010425600 -0.039227477
v 0.007431786 0.006292117 -0.049071534
v 0.013830031 0.003380268 -0.045137315
v 0.008351584 0.007705376 -0.049015569
v 0.022302203 0.012910065 -0.031207048
v 0.013174797 0.013242191 -0.034126631
v 0.014761840 0.009030479 -0.045062732
v 0.020154175 0.004310305 -0.038570857
v 0.022372179 0.011020247 -0.034881897
v 0.021364157 0.010176065 -0.037668664
v 0.023085177 0.006150529 -0.032220694
v 0.007456807 0.009350707 -0.048176180
v 0.016438535 0.004368401 -0.043166751
v 0.010988237 0.003416279 -0.046912835
v 0.009169792 0.003438923 -0.047779284
v 0.023244487 0.012868963 -0.028400518
v 0.021291017 0.010914298 -0.036755238
v 0.022077747 0.005207076 -0.035004181
v 0.014603103 0.005366672 -0.044989407
v 0.010058663 0.005386590 -0.047812313
v 0.013760214 0.007287740 -0.046010817
v 0.023248637 0.011914452 -0.031197599
v 0.022106084 0.010066850 -0.035959703
f 7 1 2
f 8 2 1
f 12 9 6
f 13 2 8
f 13 9 2
f 14 9 5
f 17 8 1
f 17 15 5
f 17 10 15
f 18 11 3
f 18 3 6
f 19 11 10
f 19 16 3
f 19 17 16
f 19 10 17
f 20 10 11
f 21 12 6
f 23 7 2
f 23 2 9
f 23 9 12
f 24 13 8
f 24 8 5
f 25 5 9
f 25 9 13
f 25 24 5
f 25 13 24
f 26 14 5
f 26 4 14
f 27 6 9
f 27 9 14
f 28 15 10
f 28 4 15
f 28 10 20
f 28 20 11
f 29 17 1
f 29 16 17
f 30 17 5
f 30 5 8
f 30 8 17
f 31 19 3
f 31 3 11
f 31 11 19
f 32 21 6
f 32 6 3
f 32 3 21
f 33 22 16
f 33 7 22
f 33 29 7
f 33 16 29
f 34 3 16
f 34 21 3
f 35 22 7
f 35 7 23
f 35 23 12
f 35 12 22
f 36 15 4
f 36 4 26
f 36 26 5
f 36 5 15
f 37 18 6
f 37 6 27
f 37 11 18
f 38 27 14
f 39 14 4
f 39 4 28
f 39 38 14
f 40 29 1
f 40 1 7
f 41 34 16
f 41 16 22
f 41 22 34
f 42 22 12
f 42 12 21
f 42 21 34
f 43 37 27
f 43 27 11
f 43 11 37
f 44 28 11
f 44 11 38
f 44 39 28
f 44 38 39
f 45 38 11
f 45 11 27
f 45 27 38
f 46 40 7
f 46 7 29
f 46 29 40
f 47 42 34
f 47 34 22
f 47 22 42
