v -0.001886338 0.018455188 -0.043191714
v 0.007901276 0.003096942 -0.045501140
v 0.004619262 0.017214174 -0.048943450
v -0.004621334 0.017199310 -0.048975286
v -0.009251889 -0.000487027 -0.044105753
v 0.002750505 0.000514375 -0.048842749
v 0.007752122 0.008938911 -0.043227990
v -0.010315496 0.018519630 -0.042863522
v 0.007346400 0.005361504 -0.048896640
v -0.008469241 0.007692083 -0.049009835
v 0.005864215 -0.000757799 -0.045352997
v 0.005069511 0.017220392 -0.045913679
v -0.009739530 0.008880839 -0.043425934
v 0.007413954 0.008248747 -0.048950311
v -0.006435036 -0.000471914 -0.047910139
v 0.004712974 0.007477660 -0.050050625
v -0.009340923 0.017550260 -0.047341081
v 0.005582568 -0.000508558 -0.048105305
v -0.009946797 0.003091070 -0.044555047
v 0.007751386 0.008895348 -0.043429067
v 0.007510293 0.003316108 -0.048387735
v -0.002846340 0.005357798 -0.049885048
v -0.009194131 -0.000467699 -0.046923935
v -0.007445370 0.017380308 -0.048128932
v 0.005512587 0.002472314 -0.048778298
v 0.004651915 0.006335136 -0.049817145
v -0.002811465 0.000511913 -0.048830404
v -0.009737292 0.017645864 -0.046896625
v -0.004714735 0.007475092 -0.050026954
v 0.002720743 0.005347338 -0.049902668
v -0.007371821 0.000522528 -0.047812975
v -0.009411219 0.008376421 -0.048188142
v -0.004616836 0.006342766 -0.049801142
v -0.009152319 0.003443621 -0.047787239
f 8 1 3
f 8 7 1
f 11 7 5
f 11 2 7
f 12 3 1
f 12 1 7
f 13 5 7
f 13 7 8
f 14 3 12
f 16 4 3
f 16 3 14
f 16 14 9
f 17 8 3
f 17 3 4
f 18 2 11
f 18 11 15
f 19 13 8
f 19 5 13
f 20 7 2
f 20 2 14
f 20 14 12
f 20 12 7
f 21 14 2
f 21 9 14
f 21 18 9
f 21 2 18
f 23 5 19
f 23 15 11
f 23 11 5
f 24 17 4
f 24 4 10
f 24 10 17
f 25 16 9
f 25 9 18
f 26 18 6
f 26 25 18
f 26 16 25
f 27 18 15
f 27 6 18
f 28 19 8
f 28 8 17
f 29 15 10
f 29 10 4
f 29 4 16
f 30 27 22
f 30 6 27
f 30 26 6
f 30 16 26
f 30 29 16
f 30 22 29
f 31 23 10
f 31 10 15
f 31 15 23
f 32 23 19
f 32 19 28
f 32 28 17
f 32 17 10
f 33 27 15
f 33 15 29
f 33 29 22
f 33 22 27
f 34 32 10
f 34 10 23
f 34 23 32
