v 0.025207193 -0.001126651 -0.021925217
v 0.030686000 -0.001569000 -0.027265999
v 0.005370093 0.013946694 -0.026251131
v 0.005008529 0.013648470 -0.039622848
v 0.020815000 -0.015733000 -0.030173000
v 0.011601721 0.012901165 -0.032967362
v 0.023267556 0.004085000 -0.023412110
v 0.020266523 -0.014574121 -0.025396922
v 0.030854035 -0.002451336 -0.032240520
v 0.009197346 0.013679386 -0.039736234
v 0.024868938 0.001959854 -0.022712194
v 0.022230923 0.004753098 -0.023693443
v 0.024528616 -0.003015320 -0.021544403
v 0.000001738 0.000048122 -0.036391831
v 0.031033877 -0.003008642 -0.032084693
v 0.010416087 0.013044288 -0.038347210
v 0.023991609 0.003373778 -0.023156158
v 0.005028366 0.013556912 -0.026096867
v 0.022817066 -0.011366499 -0.025793168
v 0.016395014 -0.005258091 -0.021935781
v 0.020269705 -0.005947764 -0.021323027
v 0.001033346 0.000020973 -0.031057869
v 0.018846872 -0.006006416 -0.021471921
v 0.022416209 -0.005160711 -0.021267323
v 0.005969302 0.007354658 -0.026192514
v 0.000250238 0.000354731 -0.033021995
v 0.017576272 -0.012521529 -0.026114979
v 0.016688161 -0.005405767 -0.021866061
v 0.015286341 -0.004416793 -0.022267317
f 7 2 6
f 9 6 2
f 10 4 3
f 10 3 6
f 11 1 2
f 12 7 6
f 12 6 3
f 12 3 7
f 13 2 1
f 14 10 5
f 14 4 10
f 15 9 2
f 15 2 5
f 15 10 9
f 15 5 10
f 16 10 6
f 16 6 9
f 16 9 10
f 17 11 2
f 17 2 7
f 17 7 3
f 18 1 11
f 18 13 1
f 18 3 4
f 18 4 14
f 18 17 3
f 18 11 17
f 19 13 8
f 19 2 13
f 19 8 5
f 19 5 2
f 23 8 21
f 23 21 18
f 24 21 8
f 24 8 13
f 24 13 18
f 24 18 21
f 25 18 22
f 26 22 18
f 26 18 14
f 26 14 5
f 26 5 22
f 27 8 20
f 27 20 22
f 27 22 5
f 27 5 8
f 28 20 8
f 28 8 23
f 28 23 18
f 28 18 20
f 29 25 22
f 29 22 20
f 29 20 18
f 29 18 25
