v 0.006996129 0.017431877 -0.022846975
v 0.019403415 0.029010677 -0.034990590
v 0.010740872 0.029380564 -0.026780008
v 0.014371981 0.027320934 -0.044158461
v 0.010659122 0.013155345 -0.036311199
v 0.016170121 0.031540423 -0.039469063
v 0.005026081 0.015714483 -0.040494402
v 0.014677899 0.026116711 -0.026517828
v 0.018008054 0.023959163 -0.043136899
v 0.014804077 0.031515337 -0.034484907
v 0.006693721 0.024069676 -0.026711674
v 0.004494140 0.013117001 -0.025424086
v 0.011445189 0.029443470 -0.026595002
v 0.010933782 0.013407613 -0.033166907
v 0.019661633 0.027426610 -0.040773912
v 0.011980319 0.024150354 -0.044197141
v 0.009708492 0.014253251 -0.039990941
v 0.014505915 0.031433877 -0.034171057
v 0.016279997 0.031353336 -0.035816936
v 0.005493409 0.017344678 -0.023436101
v 0.005023704 0.013954771 -0.039752325
v 0.005950328 0.021416448 -0.030956124
v 0.018757025 0.028718343 -0.033564769
v 0.017753128 0.023585152 -0.043233178
v 0.004638575 0.012996558 -0.026213816
v 0.006606726 0.016871450 -0.022964887
v 0.019600438 0.028877067 -0.038663558
v 0.019591791 0.026724514 -0.041419065
v 0.014393438 0.019513052 -0.042325476
v 0.015462839 0.031612560 -0.036918357
v 0.018866456 0.029732415 -0.036506950
v 0.009277673 0.027480367 -0.026705651
v 0.005847324 0.017257387 -0.041162163
v 0.017191115 0.030484899 -0.035177933
v 0.015128459 0.024054608 -0.043910800
v 0.016227138 0.030741315 -0.041013021
v 0.019496254 0.028817768 -0.035791413
v 0.018641664 0.024941471 -0.042764612
v 0.016434148 0.021849218 -0.043225562
v 0.018805316 0.029751796 -0.037963310
v 0.019596572 0.028116345 -0.040120713
v 0.016967160 0.030618323 -0.040080240
v 0.015776999 0.029859999 -0.042419001
v 0.014749478 0.027817921 -0.043952351
v 0.013550412 0.023375165 -0.043909487
v 0.016212383 0.031486586 -0.039531588
v 0.015362444 0.028998044 -0.043216155
v 0.019005658 0.026086213 -0.042212756
f 13 3 1
f 13 1 8
f 14 8 1
f 18 13 10
f 18 3 13
f 19 10 13
f 20 1 3
f 20 11 12
f 21 12 7
f 21 17 5
f 22 12 11
f 22 7 12
f 23 13 8
f 23 14 2
f 23 8 14
f 24 14 5
f 24 9 14
f 24 4 9
f 25 14 12
f 25 5 14
f 25 21 5
f 25 12 21
f 26 14 1
f 26 12 14
f 26 20 12
f 26 1 20
f 29 5 17
f 29 21 7
f 29 17 21
f 30 18 10
f 30 6 18
f 30 19 6
f 30 10 19
f 31 19 2
f 31 6 19
f 31 2 27
f 32 20 3
f 32 11 20
f 32 3 18
f 32 22 11
f 33 7 22
f 33 29 7
f 33 16 29
f 33 4 16
f 34 23 2
f 34 2 19
f 34 19 13
f 34 13 23
f 35 16 4
f 35 4 24
f 37 27 2
f 37 15 27
f 37 28 15
f 37 2 14
f 37 14 28
f 38 28 14
f 38 14 9
f 39 24 5
f 39 5 29
f 39 35 24
f 40 31 27
f 40 27 6
f 40 6 31
f 41 27 15
f 41 15 36
f 42 41 36
f 42 27 41
f 43 36 15
f 43 15 28
f 43 6 36
f 43 18 6
f 43 32 18
f 43 22 32
f 43 33 22
f 43 4 33
f 44 38 9
f 44 9 4
f 45 39 29
f 45 29 16
f 45 16 35
f 45 35 39
f 46 42 36
f 46 36 6
f 46 6 27
f 46 27 42
f 47 44 4
f 47 4 43
f 47 43 28
f 48 47 28
f 48 28 38
f 48 38 44
f 48 44 47
