v 0.005284888 0.019793604 -0.022183882
v 0.005024640 -0.000160863 -0.030555283
v 0.005495354 0.019108978 -0.022453954
v 0.005463787 0.016826327 -0.040972383
v -0.013094694 -0.000375864 -0.022053213
v 0.005537797 0.017449980 -0.039639524
v -0.008913398 -0.000547026 -0.036945217
v -0.006221624 -0.000519432 -0.024216759
v 0.005217990 0.007757344 -0.026376412
v 0.004940757 0.000016150 -0.035816411
v 0.005477916 0.020062992 -0.032809560
v -0.012294176 -0.000544294 -0.022294925
v -0.001517920 0.000470698 -0.037391921
v 0.002405070 0.019264685 -0.024552590
v -0.011480407 -0.000598310 -0.028482599
v -0.004133963 0.004985878 -0.038898652
v -0.000212910 0.002737062 -0.037933822
v 0.004687979 0.020004240 -0.022515565
v -0.012436948 -0.000521983 -0.025089203
v -0.006031915 0.002702629 -0.038344982
v -0.003734000 0.005471000 -0.039005000
v -0.012994861 -0.000173111 -0.022336068
v -0.002782697 0.001890495 -0.037901878
v -0.007645575 0.000841460 -0.037665549
v -0.008379028 0.000036509 -0.037253104
f 8 3 1
f 8 7 2
f 9 6 3
f 9 2 6
f 9 8 2
f 9 3 8
f 10 6 2
f 10 4 6
f 10 2 7
f 11 1 3
f 11 3 6
f 12 8 1
f 12 1 5
f 13 10 7
f 15 7 8
f 15 8 12
f 17 4 10
f 17 10 13
f 18 14 5
f 18 5 1
f 18 1 11
f 18 11 14
f 19 15 12
f 19 12 5
f 19 7 15
f 20 6 4
f 20 4 16
f 20 11 6
f 20 14 11
f 20 19 14
f 20 7 19
f 21 16 4
f 21 4 17
f 21 17 13
f 22 19 5
f 22 5 14
f 22 14 19
f 23 20 16
f 23 13 20
f 23 21 13
f 23 16 21
f 24 20 13
f 24 7 20
f 25 24 13
f 25 13 7
f 25 7 24
