v 0.024867195 -0.006387981 0.023416453
v 0.023761947 -0.008015329 0.022985755
v 0.023929046 -0.009680098 0.018200794
v 0.012605042 -0.015604759 0.011694474
v 0.012780295 -0.012376903 0.022781866
v 0.019579230 -0.006929288 0.017637618
v 0.018085177 -0.015083698 0.024047724
v 0.024611977 -0.007062925 0.017559773
v 0.019104172 -0.007071493 0.022222259
v 0.012285809 -0.012555717 0.014380367
v 0.012798669 -0.015718199 0.023594541
v 0.019738785 -0.014897667 0.018984443
v 0.014686337 -0.016073794 0.012987545
v 0.012182008 -0.014273041 0.012145852
v 0.012180693 -0.013448143 0.012927629
v 0.013214558 -0.015797116 0.012030755
f 1 2 3
f 7 2 1
f 8 6 1
f 8 1 3
f 9 5 1
f 9 1 6
f 10 9 6
f 10 5 9
f 11 7 1
f 11 1 5
f 12 3 2
f 12 2 7
f 13 8 3
f 13 3 12
f 13 12 7
f 13 7 11
f 14 8 4
f 14 6 8
f 14 4 11
f 15 11 5
f 15 5 10
f 15 14 11
f 15 10 6
f 15 6 14
f 16 4 8
f 16 8 13
f 16 13 11
f 16 11 4
