v 0.002567125 0.031078650 0.036244789
v 0.002699315 0.030674696 0.034489324
v 0.002397029 0.037181369 0.034745620
v 0.000700488 0.037409314 0.027195935
v -0.013370743 0.022514008 0.036490553
v 0.002452953 0.029299867 0.027739925
v 0.002531535 0.033916244 0.035552886
v -0.006950675 0.022847136 0.037147797
v -0.000387931 0.038680058 0.034062223
v 0.002691492 0.029794082 0.030215083
v 0.001685987 0.036603480 0.027100341
v -0.010599251 0.022490859 0.027156161
v 0.000208966 0.038446825 0.031473070
v -0.005788307 0.023032401 0.026889208
v -0.013160636 0.022486149 0.035716670
v 0.000949186 0.038279141 0.034313072
v 0.002325490 0.029250295 0.027504289
v 0.000832327 0.038317954 0.033946863
f 7 1 2
f 7 2 3
f 8 2 1
f 8 1 7
f 9 5 8
f 10 3 2
f 10 8 6
f 10 2 8
f 11 4 3
f 11 10 6
f 11 3 10
f 13 3 4
f 13 12 9
f 13 4 12
f 14 6 8
f 14 8 12
f 14 12 4
f 14 4 11
f 15 12 8
f 15 8 5
f 15 5 9
f 15 9 12
f 16 3 13
f 16 7 3
f 16 9 8
f 16 8 7
f 17 14 11
f 17 11 6
f 17 6 14
f 18 16 13
f 18 13 9
f 18 9 16
