v 0.018872130 -0.022034796 0.025494917
v 0.022082481 -0.019700184 0.020677099
v 0.007530416 -0.007322539 0.020953152
v 0.000464914 -0.007118045 0.007761423
v 0.015667747 -0.030029905 0.015932625
v 0.008187525 -0.006776012 0.015687213
v 0.018085177 -0.015083698 0.024047724
v 0.021123650 -0.023738966 0.013635279
v 0.001386897 -0.018427016 0.020077769
v 0.000820312 -0.007166146 0.020143739
v 0.021038748 -0.020124883 0.023089245
v 0.019407749 -0.015309862 0.019046352
v 0.000744432 -0.014305111 0.008134566
v 0.014504324 -0.028392614 0.023978408
v 0.005983711 -0.007226265 0.020752076
v 0.007821325 -0.018163469 0.023378761
v 0.020032085 -0.020689639 0.024268409
v 0.021500581 -0.019863487 0.022208574
v 0.019023751 -0.015122252 0.020810111
v 0.022249527 -0.021338739 0.015693184
v 0.018897194 -0.026867496 0.013148184
v 0.001425767 -0.020498795 0.014358773
v 0.000845288 -0.009786479 0.020782184
v 0.013812410 -0.021586939 0.025090377
v 0.014129515 -0.025464605 0.025048332
v 0.019139241 -0.021764306 0.025287799
v 0.021185623 -0.020023394 0.022854748
v 0.022168397 -0.019906336 0.017823478
v 0.022070941 -0.021953193 0.014996957
v 0.002631609 -0.007482458 0.009034148
v 0.011856863 -0.012970863 0.013050728
v 0.017510521 -0.028428210 0.013826818
v 0.003903228 -0.012886647 0.008276256
v 0.001057590 -0.017316283 0.009844481
v 0.001262026 -0.016923471 0.020823226
v 0.004149394 -0.022317610 0.018700405
v 0.017760996 -0.023371728 0.025822872
v 0.002629330 -0.013071982 0.021746223
v 0.014505431 -0.020961327 0.025051680
v 0.022175233 -0.020655951 0.016358541
v 0.021578001 -0.022722761 0.014196108
v 0.001140472 -0.007226606 0.008089380
v 0.011883605 -0.013725522 0.012361927
v 0.016867898 -0.025542477 0.012593722
v 0.003750011 -0.011359206 0.008321226
v 0.020487079 -0.024731341 0.013248631
v 0.001351256 -0.019584152 0.012189943
v 0.016714753 -0.029199955 0.014533948
v 0.001771285 -0.016574488 0.009175074
v 0.002950162 -0.016936958 0.021723908
v 0.014323463 -0.027769861 0.024208967
v 0.008473300 -0.024855790 0.021193350
v 0.001550720 -0.020539199 0.017261876
v 0.012567676 -0.029119055 0.018429383
v 0.015416131 -0.026642268 0.025369499
v 0.008550435 -0.016638383 0.023329244
v 0.011082202 -0.013557871 0.011749318
v 0.004990082 -0.016864443 0.009124105
v 0.006166082 -0.012422521 0.009157779
v 0.019528161 -0.026077863 0.013039334
v 0.020846244 -0.024179608 0.013445609
v 0.009686908 -0.024891042 0.013356276
v 0.013835705 -0.026746356 0.013428843
v 0.007992886 -0.020538512 0.023293181
f 7 6 3
f 10 6 4
f 15 3 6
f 15 6 10
f 17 11 7
f 18 2 7
f 19 7 2
f 19 2 12
f 19 12 6
f 19 6 7
f 23 10 4
f 23 4 13
f 23 15 10
f 25 24 16
f 26 17 7
f 26 7 1
f 26 11 17
f 26 18 11
f 26 2 18
f 27 18 7
f 27 7 11
f 27 11 18
f 28 12 2
f 28 2 20
f 29 20 2
f 31 6 12
f 31 12 20
f 31 30 6
f 33 13 4
f 34 22 13
f 35 22 9
f 35 13 22
f 35 23 13
f 37 1 7
f 37 26 1
f 37 5 2
f 37 2 26
f 38 16 24
f 38 23 35
f 39 37 7
f 39 24 37
f 40 28 20
f 40 20 12
f 40 12 28
f 41 29 8
f 41 30 29
f 42 4 6
f 42 6 30
f 42 30 41
f 43 20 29
f 43 31 20
f 43 30 31
f 44 21 32
f 45 33 4
f 46 8 29
f 46 29 2
f 46 2 5
f 46 33 45
f 47 22 34
f 48 32 21
f 48 46 5
f 48 21 46
f 49 34 13
f 49 13 32
f 50 35 25
f 50 38 35
f 50 16 38
f 51 35 9
f 51 9 14
f 52 14 9
f 52 9 36
f 53 36 9
f 53 9 22
f 54 52 36
f 54 5 14
f 54 14 52
f 54 47 5
f 54 22 47
f 54 53 22
f 54 36 53
f 55 37 24
f 55 24 25
f 55 25 35
f 55 35 51
f 55 51 14
f 55 14 5
f 55 5 37
f 56 39 7
f 56 23 38
f 56 38 24
f 56 24 39
f 56 15 23
f 56 7 3
f 56 3 15
f 57 43 29
f 57 29 30
f 57 30 43
f 58 44 32
f 58 32 13
f 58 13 33
f 58 21 44
f 59 45 4
f 59 4 42
f 59 42 41
f 59 41 8
f 60 46 21
f 60 33 46
f 60 58 33
f 60 21 58
f 61 46 45
f 61 8 46
f 61 59 8
f 61 45 59
f 62 47 34
f 62 5 47
f 62 48 5
f 63 34 49
f 63 62 34
f 63 48 62
f 63 49 32
f 63 32 48
f 64 50 25
f 64 25 16
f 64 16 50
