v 0.031890001 0.006789000 0.033351000
v 0.032340478 0.005838310 0.029431166
v 0.024145512 0.009842661 0.012598175
v 0.009619661 0.010403442 0.005310643
v 0.003768783 0.005608339 0.033717702
v 0.018290876 0.004786437 0.008056203
v 0.024830709 0.009367818 0.012816077
v 0.030866506 0.005514627 0.033542549
v 0.021731246 0.010327124 0.032888309
v 0.010565560 0.009908640 0.005531634
v 0.007804362 0.005122134 0.007377735
v 0.026959037 0.010528161 0.031877845
v 0.031197684 0.004594322 0.015042801
v 0.000770806 0.008076151 0.034118440
v 0.002598398 0.005512065 0.026823263
v 0.013412373 0.005189914 0.006440284
v 0.001047273 0.010488542 0.008418076
v 0.030564551 0.005023927 0.014530585
v 0.032866710 0.004540790 0.023607700
v 0.011692145 0.007759753 0.005622573
v 0.000806683 0.009980239 0.015983907
v 0.006623456 0.005884487 0.007579240
v 0.032310972 0.005726905 0.029247219
v 0.011346554 0.009010566 0.005675049
v 0.010482842 0.005229903 0.006592191
v 0.000899898 0.008509186 0.011142254
v 0.010699648 0.008004412 0.005712922
v 0.004761335 0.005606250 0.012290161
f 8 2 1
f 10 4 3
f 10 3 6
f 12 7 3
f 12 1 2
f 12 9 1
f 12 3 4
f 13 7 12
f 14 8 1
f 14 5 8
f 14 1 9
f 15 11 6
f 15 5 14
f 16 6 11
f 17 12 4
f 17 9 12
f 18 13 6
f 18 7 13
f 18 6 3
f 18 3 7
f 19 8 5
f 19 5 15
f 19 15 6
f 19 6 13
f 19 13 12
f 19 12 2
f 20 6 16
f 20 4 10
f 21 14 9
f 21 9 17
f 22 17 4
f 22 4 11
f 23 19 2
f 23 2 8
f 23 8 19
f 24 20 10
f 24 10 6
f 24 6 20
f 25 20 16
f 25 16 11
f 26 21 17
f 26 15 14
f 26 14 21
f 26 17 22
f 26 22 11
f 27 4 20
f 27 20 25
f 27 25 11
f 27 11 4
f 28 26 11
f 28 11 15
f 28 15 26
