v 0.000823043 -0.010595374 0.020975830
v 0.001164464 -0.019338361 0.018969744
v 0.000133704 -0.007311443 0.007523136
v -0.011533579 -0.000619763 0.003662656
v -0.011542185 -0.023010953 0.023450962
v -0.006698214 0.004998471 0.016329778
v 0.001036206 -0.001857388 0.016083111
v 0.001158709 -0.016127643 0.021016725
v -0.011648459 -0.027208812 0.013154835
v -0.005671160 0.005266451 0.011173744
v -0.011463962 -0.020062248 0.023575105
v 0.001041326 -0.018209902 0.010658937
v 0.000820344 -0.001194301 0.018695832
v 0.001190767 -0.017729382 0.020332606
v -0.011778445 -0.023687703 0.022524507
v -0.008413916 0.001762351 0.006389136
v -0.011414522 0.004573653 0.007284318
v -0.000010677 -0.003467980 0.010323935
v -0.010146679 -0.021119712 0.023578682
v 0.000612372 -0.011861180 0.007406886
v 0.001088241 -0.020074980 0.013536339
v -0.006048993 0.005285703 0.013110377
v 0.001148544 -0.020159294 0.017399984
v -0.011789951 -0.025390711 0.018241742
v -0.003461692 -0.002427079 0.007462045
v -0.011161457 0.004815271 0.015861339
v -0.010114931 0.004214048 0.007338575
v -0.010939159 -0.020474444 0.023637051
v 0.000866398 -0.015889525 0.008905439
v -0.004824507 -0.004516528 0.005796015
v -0.011235835 -0.005721970 0.004767182
v -0.006010991 -0.000700702 0.006582258
v -0.000152359 -0.004361215 0.008991248
v -0.010748625 -0.000590834 0.003964417
v -0.004665982 -0.006892713 0.005751264
v -0.011366746 -0.003309237 0.003956342
v 0.000744432 -0.014305111 0.008134566
v -0.006680504 -0.001301065 0.005751073
v -0.010555592 -0.003329617 0.004054282
v -0.006209806 -0.008372649 0.005777427
v -0.008368488 -0.001287434 0.004850204
v -0.000964146 -0.012532664 0.007422213
f 13 8 7
f 13 1 8
f 13 11 1
f 13 6 11
f 13 7 10
f 14 8 5
f 14 5 2
f 14 7 8
f 14 12 7
f 15 2 5
f 15 5 11
f 17 4 15
f 18 10 7
f 18 7 3
f 19 8 1
f 19 5 8
f 20 3 7
f 21 9 12
f 22 13 10
f 22 6 13
f 22 10 17
f 23 2 15
f 23 9 21
f 23 14 2
f 23 21 12
f 23 12 14
f 24 15 4
f 24 4 9
f 24 23 15
f 24 9 23
f 26 11 6
f 26 22 17
f 26 6 22
f 26 17 15
f 26 15 11
f 27 4 17
f 27 17 10
f 27 10 16
f 28 19 1
f 28 1 11
f 28 11 5
f 28 5 19
f 29 20 7
f 29 7 12
f 29 12 9
f 30 3 20
f 32 16 10
f 32 10 25
f 33 18 3
f 33 3 25
f 33 25 10
f 33 10 18
f 34 27 16
f 34 4 27
f 34 30 4
f 35 30 20
f 35 4 30
f 36 31 9
f 36 9 4
f 37 29 9
f 37 20 29
f 38 32 25
f 38 25 3
f 38 16 32
f 39 36 4
f 39 4 35
f 39 35 20
f 40 9 31
f 40 31 36
f 40 39 20
f 40 36 39
f 41 38 3
f 41 3 30
f 41 30 34
f 41 34 16
f 41 16 38
f 42 37 9
f 42 9 40
f 42 40 20
f 42 20 37
