v 0.007257408 0.032221277 0.027714430
v 0.006761441 0.022894645 0.027425980
v 0.007960316 0.022825963 0.012177840
v 0.002298004 0.031197249 0.011986524
v -0.010257679 0.022880801 0.027002494
v 0.005719475 0.029526412 0.012096619
v -0.003144283 0.027768716 0.027643039
v -0.008049110 0.020792363 0.014312981
v 0.007396016 0.031377056 0.022837472
v 0.004768481 0.030173689 0.011885556
v -0.009867737 0.023441009 0.027119005
v 0.000470360 0.037083486 0.027139272
v 0.006641543 0.021349377 0.022757630
v -0.007400176 0.020949260 0.012539415
v 0.001387212 0.035959771 0.021220195
v -0.003437674 0.032108790 0.027594571
v -0.010269227 0.021177828 0.022719716
v 0.001663277 0.035723688 0.021124574
v 0.000011565 0.030791126 0.012708374
v 0.001161157 0.037015670 0.027038398
v -0.009729731 0.020925819 0.020275309
v 0.001089722 0.036587714 0.023808892
v 0.000777733 0.036850417 0.025519400
f 1 2 3
f 7 2 1
f 9 1 3
f 9 3 6
f 10 6 3
f 11 5 2
f 11 2 7
f 13 3 2
f 14 13 8
f 14 3 13
f 14 10 3
f 14 4 10
f 15 10 4
f 16 7 1
f 16 1 12
f 16 11 7
f 17 13 2
f 17 2 5
f 17 14 8
f 17 5 11
f 17 11 16
f 17 16 12
f 18 9 6
f 18 6 10
f 18 10 15
f 19 15 4
f 19 4 14
f 19 14 17
f 19 17 12
f 20 12 1
f 21 17 8
f 21 8 13
f 21 13 17
f 22 15 19
f 22 18 15
f 22 9 18
f 22 20 1
f 22 1 9
f 23 12 20
f 23 20 22
f 23 22 19
f 23 19 12
