v 0.006199880 0.029915523 0.011495548
v 0.014408191 0.033925962 -0.005799423
v 0.006733387 0.035920877 0.003230165
v 0.005381832 0.028694497 -0.010585671
v 0.006377566 0.020961626 0.009319616
v 0.010937807 0.036685594 -0.008902014
v -0.007400176 0.020949260 0.012539415
v 0.011177397 0.033247931 0.003294053
v 0.008496326 0.024442599 -0.010078162
v 0.008697611 0.036611799 -0.000817538
v 0.000918928 0.031713275 0.012012943
v 0.007960316 0.022825963 0.012177840
v 0.008525000 0.031686999 0.008210000
v 0.014930194 0.033674938 -0.009805509
v -0.005627728 0.021032613 0.006820590
v 0.008434231 0.036670698 -0.000561157
v 0.010287688 0.036537350 -0.004022102
v -0.001841335 0.028331004 0.012665909
v 0.012596228 0.033812833 -0.000023170
v 0.009490358 0.032304111 0.006544310
v 0.006792253 0.030402164 0.010747626
v 0.003901813 0.034110776 0.008113214
v 0.012098724 0.035865093 -0.009879439
v 0.014396892 0.032214036 -0.010105112
v 0.004688628 0.027104937 -0.010747234
v 0.002827245 0.021015748 0.004758808
v 0.008608105 0.035614463 0.001690610
v 0.011970175 0.035640471 -0.005740647
v 0.009418068 0.036788658 -0.003555804
v -0.007010237 0.021509470 0.012655936
v 0.013677960 0.033995798 -0.003175934
v 0.010264167 0.035590877 -0.000749276
v 0.006410702 0.035752438 0.003883106
v 0.001705268 0.032383222 0.011081826
v 0.004519024 0.032300854 0.009890799
v 0.010787141 0.036192377 -0.009648948
v 0.011812284 0.028803351 -0.010110066
v 0.004220462 0.027531473 -0.009649984
v 0.005221993 0.026691227 -0.010717999
v 0.004518081 0.021004191 0.005634571
v -0.007246451 0.020832784 0.011729420
v 0.009495468 0.034741066 0.002396535
v 0.010901152 0.036705155 -0.008729834
v 0.013449375 0.033966905 -0.002484699
v 0.005130593 0.034966990 0.006173196
v 0.002866714 0.031468069 0.011463061
v 0.006227781 0.031439118 0.009885856
v 0.005040264 0.028304565 -0.010431982
v 0.008092527 0.024512513 -0.009889400
v 0.006126322 0.034757715 0.005680426
v 0.005379473 0.034021330 0.007330474
f 12 7 5
f 12 1 11
f 12 5 9
f 14 2 12
f 17 16 10
f 18 12 11
f 19 8 12
f 19 10 16
f 20 13 12
f 20 12 8
f 21 1 12
f 21 12 13
f 22 18 11
f 23 2 14
f 24 14 12
f 24 23 14
f 25 4 23
f 25 23 24
f 26 15 9
f 27 16 3
f 27 19 16
f 29 16 17
f 29 7 18
f 30 18 7
f 30 7 12
f 30 12 18
f 31 12 2
f 31 28 17
f 31 2 28
f 32 17 10
f 32 10 19
f 33 20 8
f 34 22 11
f 35 13 22
f 35 34 21
f 35 22 34
f 36 23 4
f 36 6 23
f 37 24 12
f 37 12 9
f 38 25 15
f 38 7 29
f 39 15 25
f 39 37 9
f 39 25 24
f 39 24 37
f 40 26 9
f 40 9 5
f 41 5 7
f 41 15 26
f 41 38 15
f 41 7 38
f 41 40 5
f 41 26 40
f 42 27 3
f 42 8 19
f 42 19 27
f 42 33 8
f 42 3 33
f 43 28 2
f 43 17 28
f 43 29 17
f 43 4 29
f 43 36 4
f 43 6 36
f 43 23 6
f 43 2 23
f 44 19 12
f 44 12 31
f 44 31 17
f 44 32 19
f 44 17 32
f 45 33 3
f 45 3 16
f 45 16 29
f 45 29 18
f 45 18 22
f 46 34 11
f 46 11 1
f 46 1 21
f 46 21 34
f 47 35 21
f 47 21 13
f 47 13 35
f 48 4 25
f 48 25 38
f 48 38 29
f 48 29 4
f 49 39 9
f 49 9 15
f 49 15 39
f 50 20 33
f 50 33 45
f 50 45 13
f 50 13 20
f 51 45 22
f 51 22 13
f 51 13 45
