v 0.001683227 -0.015739654 -0.012440339
v 0.002114726 -0.025229114 -0.014470429
v 0.000996468 -0.008671264 -0.019454510
v -0.012269044 -0.002972593 -0.019458443
v -0.019917118 -0.025712167 -0.015974683
v -0.006474180 -0.006079214 -0.016745944
v -0.008786077 -0.033637753 -0.012737502
v -0.008266472 -0.035587074 -0.019422798
v 0.001218851 -0.011236644 -0.015058081
v -0.004037310 -0.005187631 -0.019641431
v -0.012434610 -0.004938437 -0.016124448
v 0.002001017 -0.022126959 -0.012337822
v 0.001662758 -0.025676971 -0.019229528
v -0.009625273 -0.033510241 -0.012864862
v -0.008860133 -0.034333733 -0.014255561
v -0.020165053 -0.026020877 -0.019351721
v -0.004929255 -0.005378974 -0.018294372
v -0.006147340 -0.032829581 -0.019520410
v 0.000071886 -0.008888732 -0.017208671
v 0.001406189 -0.013569509 -0.013377590
v -0.020797180 -0.016970300 -0.018159549
v 0.002064772 -0.023705816 -0.013069645
v -0.019253040 -0.026210421 -0.015741342
v -0.000007168 -0.015783913 -0.012623981
v -0.011556136 -0.003233541 -0.019642349
v -0.007019883 -0.004181802 -0.019634188
v -0.002390318 -0.008000652 -0.016623961
v -0.018291032 -0.027530537 -0.019382108
v 0.000906710 -0.008800951 -0.018627561
v -0.003352693 -0.006345519 -0.018122664
v -0.004636568 -0.007674019 -0.016014678
v -0.012577670 -0.004322347 -0.017109501
v -0.020563723 -0.022598224 -0.016767919
v 0.001061423 -0.010514883 -0.015727324
v -0.004198066 -0.005447043 -0.018905087
v -0.000514473 -0.010431844 -0.015115294
v -0.012452950 -0.003308287 -0.018839161
f 1 2 3
f 9 1 3
f 12 2 1
f 12 1 7
f 13 3 2
f 13 2 8
f 15 8 2
f 15 2 7
f 15 7 14
f 17 11 6
f 17 4 11
f 18 10 3
f 18 13 8
f 18 3 13
f 20 11 1
f 20 1 9
f 21 4 16
f 22 12 7
f 22 7 2
f 22 2 12
f 23 14 11
f 23 11 5
f 23 5 16
f 24 14 7
f 24 7 1
f 24 1 11
f 24 11 14
f 25 16 4
f 25 10 18
f 26 17 10
f 26 4 17
f 26 25 4
f 26 10 25
f 27 17 6
f 27 6 9
f 28 18 8
f 28 25 18
f 28 16 25
f 28 8 15
f 28 15 14
f 28 23 16
f 28 14 23
f 29 9 3
f 29 3 10
f 29 10 19
f 30 17 27
f 31 6 11
f 31 11 20
f 32 21 11
f 33 5 11
f 33 11 21
f 33 21 16
f 33 16 5
f 34 27 9
f 34 30 27
f 34 19 30
f 34 29 19
f 34 9 29
f 35 10 17
f 35 17 30
f 35 30 19
f 35 19 10
f 36 31 20
f 36 20 9
f 36 9 6
f 36 6 31
f 37 4 21
f 37 21 32
f 37 32 11
f 37 11 4
