v 0.015328192 -0.024600179 -0.008975180
v 0.018571232 -0.022140376 -0.013583589
v 0.001247269 -0.010164185 -0.016315251
v 0.001204201 -0.012321291 -0.025399822
v 0.012102313 -0.032560488 -0.018375406
v 0.001154438 -0.009150089 -0.022450015
v 0.017132999 -0.022891000 -0.010676000
v 0.017713758 -0.026144782 -0.020875096
v -0.001473588 -0.026281467 -0.018546244
v 0.003448883 -0.010550240 -0.018637542
v 0.017956642 -0.022352133 -0.012063753
v 0.002242472 -0.013637952 -0.013485722
v 0.001598615 -0.019476537 -0.025330444
v 0.018686781 -0.023183688 -0.018413273
v 0.011090152 -0.030798161 -0.010515308
v -0.000732702 -0.022749045 -0.022314699
v 0.001211515 -0.009281497 -0.017839350
v 0.017927114 -0.021572915 -0.016423873
v 0.015596157 -0.020814187 -0.012326930
v 0.002936840 -0.012934318 -0.014187397
v 0.015801272 -0.023169816 -0.009908070
v 0.001406189 -0.013569509 -0.013377590
v 0.014750124 -0.030144222 -0.021106078
v 0.007193206 -0.019911669 -0.024251824
v 0.018690276 -0.024289772 -0.019440158
v 0.001050738 -0.010867198 -0.024684272
v 0.010695680 -0.032533299 -0.013599470
v -0.001064778 -0.026520489 -0.020520585
v 0.001864147 -0.009608478 -0.017988965
v 0.006877218 -0.013110759 -0.017780030
v 0.018725407 -0.022473218 -0.017199890
v 0.017350610 -0.022445247 -0.011409353
v 0.001974777 -0.010406968 -0.016501582
v 0.008749270 -0.016534136 -0.013181269
v 0.015573675 -0.024336665 -0.009128298
v 0.006520537 -0.016208568 -0.012633318
v 0.002201432 -0.022753253 -0.012426047
v 0.004029137 -0.019550953 -0.025060602
v 0.009582478 -0.020129304 -0.023351415
v 0.016071999 -0.028554000 -0.021493001
v 0.016303871 -0.023757993 -0.020884485
v 0.001610517 -0.010303808 -0.023579508
v 0.001056657 -0.010022477 -0.023876361
v 0.017838090 -0.023173340 -0.019266889
v 0.010741326 -0.031852470 -0.012026594
v 0.010810056 -0.032710544 -0.014432378
v 0.013141658 -0.031761363 -0.019824613
v 0.017958759 -0.021734333 -0.013515802
v 0.003342404 -0.010488077 -0.020691157
v 0.004456433 -0.012280976 -0.015769854
v 0.016955084 -0.023044106 -0.010468581
v 0.012529753 -0.022137552 -0.009968962
v 0.001683227 -0.015739654 -0.012440339
v 0.002351167 -0.024222122 -0.013166473
v 0.012250599 -0.028639506 -0.008921172
v 0.003550048 -0.015018246 -0.024985924
v 0.017049526 -0.027181559 -0.021284939
v 0.007315706 -0.020586518 -0.024202458
v 0.014296880 -0.028954298 -0.021599829
v 0.018493005 -0.024699944 -0.019819493
v 0.011070510 -0.030847202 -0.010574163
v 0.010693897 -0.032521044 -0.013562426
v 0.010784560 -0.032460531 -0.017070323
v 0.012231626 -0.031855474 -0.019388092
f 16 4 13
f 17 9 3
f 17 6 9
f 22 3 9
f 22 20 3
f 22 12 20
f 26 4 16
f 28 9 16
f 28 16 13
f 29 10 6
f 29 6 17
f 29 17 11
f 30 2 18
f 30 29 2
f 30 10 29
f 31 14 6
f 31 6 18
f 31 18 2
f 31 25 14
f 31 2 25
f 32 7 11
f 32 11 19
f 33 17 3
f 34 20 7
f 34 3 20
f 34 7 32
f 34 32 19
f 34 33 3
f 36 21 20
f 36 20 12
f 36 12 22
f 36 35 21
f 38 13 4
f 40 8 2
f 40 2 11
f 41 8 4
f 41 4 26
f 42 6 14
f 42 14 26
f 43 26 16
f 43 16 9
f 43 9 6
f 43 42 26
f 43 6 42
f 44 26 14
f 44 14 25
f 44 25 26
f 46 27 9
f 46 9 28
f 46 5 27
f 47 23 40
f 47 27 5
f 47 15 27
f 47 28 13
f 47 13 23
f 48 29 11
f 48 11 2
f 48 2 29
f 49 30 18
f 49 18 6
f 49 6 10
f 49 10 30
f 50 19 11
f 50 11 17
f 50 17 33
f 50 34 19
f 50 33 34
f 51 21 35
f 51 7 20
f 51 20 21
f 51 35 1
f 51 11 7
f 52 22 1
f 52 1 35
f 52 36 22
f 52 35 36
f 53 22 9
f 53 9 37
f 53 1 22
f 54 37 9
f 54 15 37
f 55 37 15
f 55 53 37
f 55 1 53
f 55 51 1
f 55 11 51
f 55 15 47
f 55 47 40
f 55 40 11
f 56 38 4
f 56 24 38
f 56 39 24
f 56 4 8
f 56 8 39
f 57 39 8
f 57 24 39
f 57 8 40
f 58 40 38
f 58 38 24
f 58 57 40
f 58 24 57
f 59 40 23
f 59 23 13
f 59 13 38
f 59 38 40
f 60 8 41
f 60 25 2
f 60 2 8
f 60 41 26
f 60 26 25
f 61 9 45
f 61 54 9
f 61 15 54
f 62 45 9
f 62 9 27
f 62 61 45
f 62 27 15
f 62 15 61
f 63 46 28
f 63 28 5
f 63 5 46
f 64 47 5
f 64 5 28
f 64 28 47
