v 0.021397545 0.009557705 0.020582285
v 0.020562203 0.013763621 0.019227857
v -0.006047740 0.009995802 0.015192438
v 0.007050816 0.013825965 0.005308397
v 0.020065748 0.009957026 0.010503091
v -0.000901529 0.013680176 0.019240952
v 0.019877597 0.013127802 0.011356244
v 0.010565560 0.009908640 0.005531634
v -0.006167404 0.013671829 0.009387123
v 0.004476543 0.009767558 0.018453057
v 0.018987106 0.013246991 0.010925870
v 0.017355284 0.009876522 0.009065172
v -0.006050492 0.013425073 0.014360529
v -0.006223354 0.010366511 0.009873839
v -0.000489502 0.013337572 0.019162982
v 0.008810334 0.013307705 0.005615447
v 0.008941616 0.010536952 0.005631760
f 6 2 4
f 6 1 2
f 7 2 1
f 7 1 5
f 9 6 4
f 10 1 6
f 10 8 1
f 10 3 8
f 11 4 2
f 11 2 7
f 12 8 5
f 12 5 1
f 12 1 8
f 13 3 6
f 13 6 9
f 14 8 3
f 14 13 9
f 14 3 13
f 14 9 4
f 15 10 6
f 15 6 3
f 15 3 10
f 16 8 4
f 16 4 11
f 16 5 8
f 16 11 7
f 16 7 5
f 17 14 4
f 17 4 8
f 17 8 14
