v 0.002673203 0.007720316 0.041922566
v 0.006940618 0.010430207 0.033764748
v -0.013370743 0.022514008 0.036490553
v -0.000901529 0.013680176 0.019240952
v 0.002598398 0.005512065 0.026823263
v 0.007192539 0.022533583 0.022190972
v 0.002872366 0.005557788 0.028590002
v -0.014683000 0.020880001 0.036736000
v -0.009489345 0.022298243 0.022952739
v 0.006719989 0.011004019 0.019254372
v 0.007003918 0.018461647 0.033899913
v 0.002852866 0.007245286 0.039720032
v -0.013064825 0.017464927 0.022654497
v 0.006761441 0.022894645 0.027425980
v 0.005893009 0.010121649 0.019232258
v 0.001543678 0.013600260 0.019225257
v 0.006396988 0.010444852 0.019502514
v 0.002682755 0.017184726 0.039627650
v 0.002893675 0.006440237 0.034577209
v -0.011438514 0.016154999 0.022628969
v -0.007717932 0.022746268 0.037084062
v 0.000447815 0.012582818 0.019149083
v -0.006920991 0.022643284 0.037200644
v -0.000489502 0.013337572 0.019162982
f 9 6 4
f 9 8 3
f 10 6 2
f 11 1 2
f 11 2 6
f 12 2 1
f 12 1 5
f 12 5 7
f 13 1 8
f 13 9 4
f 13 8 9
f 14 6 9
f 14 11 6
f 16 4 6
f 16 6 10
f 17 7 5
f 17 15 10
f 17 5 15
f 17 10 2
f 17 2 7
f 18 1 11
f 18 11 14
f 19 12 7
f 19 7 2
f 19 2 12
f 20 5 1
f 20 1 13
f 21 14 9
f 21 9 3
f 21 8 1
f 21 3 8
f 22 15 5
f 22 5 20
f 22 16 10
f 22 10 15
f 23 18 14
f 23 14 21
f 23 21 1
f 23 1 18
f 24 4 16
f 24 16 22
f 24 13 4
f 24 22 20
f 24 20 13
