v 0.017153301 0.004771208 0.026482684
v 0.018183752 -0.003518117 0.021254717
v 0.021501676 0.005486588 0.010512861
v 0.011317249 0.005243160 0.006304236
v 0.009794458 -0.002299429 0.019979254
v 0.016495001 -0.001903000 0.008515000
v 0.010476724 0.005435073 0.025184627
v 0.017230129 0.004948319 0.026336855
v 0.014746246 0.002159000 0.026201766
v 0.018153348 -0.003968952 0.016151478
v 0.019623000 0.001991000 0.007930000
v 0.008118022 0.004650615 0.007354486
v 0.007911301 0.005437979 0.011490770
v 0.011063208 0.005099870 0.026091359
v 0.018300352 -0.003953959 0.017490018
v 0.010054690 -0.002506018 0.014865656
v 0.013412373 0.005189914 0.006440284
v 0.021372471 0.005007515 0.009729708
v 0.010868508 0.002379892 0.006940865
v 0.007804362 0.005122134 0.007377735
v 0.017509432 0.003777857 0.007352372
v 0.012126202 0.001410086 0.007209550
v 0.017688120 0.003466412 0.007354122
v 0.018975127 0.004689818 0.008384974
v 0.011307757 0.004354730 0.006499274
f 8 1 2
f 8 2 3
f 8 3 7
f 9 5 2
f 9 2 1
f 11 10 6
f 13 7 3
f 13 3 4
f 13 5 7
f 14 8 7
f 14 1 8
f 14 9 1
f 14 7 5
f 14 5 9
f 15 3 2
f 15 2 5
f 15 5 10
f 16 10 5
f 16 6 10
f 17 11 6
f 17 4 3
f 18 10 11
f 18 15 10
f 18 3 15
f 18 17 3
f 19 12 4
f 19 16 12
f 20 13 4
f 20 4 12
f 20 5 13
f 20 16 5
f 20 12 16
f 22 6 16
f 22 16 19
f 22 17 6
f 23 21 11
f 23 11 17
f 23 17 21
f 24 21 17
f 24 17 18
f 24 18 11
f 24 11 21
f 25 22 19
f 25 19 4
f 25 4 17
f 25 17 22
