v 0.021447922 0.013590732 0.022806270
v 0.025394583 0.009906902 0.019386510
v 0.006401281 0.023755681 0.010671143
v 0.006369572 0.016803335 0.005368336
v 0.010178175 0.013547798 0.022704917
v 0.024316166 0.009757630 0.012662221
v 0.016668954 0.010038415 0.022769131
v 0.006642367 0.025464375 0.022694211
v 0.012100178 0.018920430 0.009005682
v 0.020478279 0.010729108 0.022314264
v 0.025174537 0.009689111 0.016759014
v 0.007050816 0.013825965 0.005308397
v 0.006270082 0.025000975 0.017628669
v 0.007692092 0.024639858 0.022817079
v 0.011269325 0.018381582 0.008391077
v 0.006203265 0.020008050 0.006225606
v 0.006958283 0.023431103 0.010848062
v 0.022052294 0.013079989 0.022637491
v 0.006780455 0.013466308 0.016308865
v 0.008810334 0.013307705 0.005615447
v 0.006641543 0.021349377 0.022757630
v 0.006249643 0.024119347 0.011641626
v 0.013627890 0.017873482 0.009518279
v 0.020394424 0.010142229 0.010729037
v 0.023925596 0.010063206 0.012572607
v 0.021763166 0.009948961 0.011386388
f 10 7 2
f 11 7 6
f 11 2 7
f 14 7 1
f 15 9 6
f 15 6 4
f 16 3 9
f 16 15 4
f 16 9 15
f 17 9 3
f 17 8 14
f 17 14 1
f 18 10 2
f 18 1 7
f 18 7 10
f 18 2 11
f 18 17 1
f 19 12 7
f 19 7 5
f 19 4 12
f 19 16 4
f 19 13 16
f 20 12 4
f 20 7 12
f 21 14 8
f 21 5 7
f 21 7 14
f 21 19 5
f 21 8 13
f 21 13 19
f 22 16 13
f 22 3 16
f 22 17 3
f 22 13 8
f 22 8 17
f 23 6 9
f 23 9 17
f 24 7 20
f 24 20 4
f 25 11 6
f 25 6 23
f 25 23 17
f 25 18 11
f 25 17 18
f 26 6 7
f 26 7 24
f 26 24 4
f 26 4 6
