v 0.000996468 -0.008671264 -0.019454510
v 0.002595760 -0.021754230 -0.018913335
v -0.001865621 0.000148372 -0.037328117
v -0.007790519 0.000217591 -0.037373926
v -0.013059245 -0.023035300 -0.022744210
v -0.013279045 -0.000750324 -0.021530831
v 0.001176404 -0.013927918 -0.025895932
v -0.006562250 -0.005148196 -0.034768146
v -0.005883977 -0.000190941 -0.024459751
v -0.012794490 -0.004723547 -0.033897049
v -0.013242599 -0.002332099 -0.019610495
v 0.000955852 -0.011733557 -0.025249057
v 0.001799957 -0.022655242 -0.023671512
v -0.003467469 -0.001794976 -0.036616744
v -0.003362319 0.000384313 -0.031438869
v -0.008913398 -0.000547026 -0.036945217
v -0.012600918 -0.024003829 -0.022456585
v -0.005019108 -0.004537303 -0.019741561
v 0.001598615 -0.019476537 -0.025330444
v -0.002194865 -0.000327910 -0.037152946
v -0.002406390 0.000308761 -0.034831091
v -0.011975431 -0.000871780 -0.027519132
v -0.011119951 -0.002974559 -0.035389859
v -0.008626432 -0.002192243 -0.036184425
v 0.000020147 -0.007989629 -0.019493730
v -0.011916004 -0.003484477 -0.034348434
v -0.006891602 -0.005487462 -0.034526678
v -0.009622653 -0.001321536 -0.036536567
v -0.009929799 -0.001642717 -0.036323521
f 7 1 2
f 10 5 6
f 11 6 5
f 11 2 1
f 11 9 6
f 12 7 3
f 12 3 1
f 12 1 7
f 14 4 3
f 14 13 8
f 15 9 1
f 15 4 6
f 15 6 9
f 17 5 10
f 17 8 13
f 17 13 2
f 17 11 5
f 17 2 11
f 18 9 11
f 19 7 2
f 19 2 13
f 19 13 3
f 19 3 7
f 20 14 3
f 20 3 13
f 20 13 14
f 21 15 1
f 21 1 3
f 21 3 4
f 21 4 15
f 22 10 6
f 22 6 4
f 22 4 16
f 23 17 10
f 24 14 8
f 24 16 4
f 24 4 14
f 25 18 11
f 25 11 1
f 25 1 9
f 25 9 18
f 26 23 10
f 26 10 22
f 27 8 17
f 27 17 23
f 28 16 24
f 29 28 24
f 29 23 26
f 29 26 22
f 29 22 16
f 29 16 28
f 29 24 8
f 29 27 23
f 29 8 27
