v -0.011309000 -0.018665999 0.033693999
v -0.032672102 -0.010447350 0.017447874
v -0.011789951 -0.025390711 0.018241742
v -0.030023180 -0.006806491 0.017819617
v -0.033727274 -0.007516865 0.028413789
v -0.017126529 -0.014924480 0.016491179
v -0.030384281 -0.004203261 0.027994601
v -0.014437000 -0.022562001 0.034279000
v -0.016639210 -0.023325457 0.017431064
v -0.028989029 -0.006876211 0.017660321
v -0.011250983 -0.019815815 0.018352503
v -0.031085316 -0.004227293 0.027919848
v -0.033744990 -0.007923573 0.028510366
v -0.016114182 -0.023737579 0.017493150
v -0.019974953 -0.020648946 0.017414969
v -0.029738150 -0.006139861 0.018557435
v -0.012897149 -0.018242499 0.017781801
v -0.010124426 -0.021166688 0.023385024
v -0.033553003 -0.008588361 0.025112067
v -0.012521415 -0.026340889 0.018278911
v -0.030537636 -0.004452588 0.025515113
v -0.012875625 -0.025858379 0.020688777
v -0.030885164 -0.004234255 0.027232308
v -0.013241181 -0.025925018 0.018292006
f 7 5 1
f 7 1 6
f 10 6 2
f 10 2 4
f 12 5 7
f 13 8 1
f 13 1 5
f 14 9 6
f 14 6 3
f 15 9 2
f 15 2 6
f 15 6 9
f 16 6 10
f 16 10 4
f 17 6 1
f 17 1 11
f 17 11 3
f 17 3 6
f 18 11 1
f 18 3 11
f 18 8 3
f 18 1 8
f 19 13 5
f 19 5 4
f 19 4 2
f 20 14 3
f 20 3 8
f 21 7 6
f 21 6 16
f 21 16 4
f 21 4 5
f 21 5 12
f 22 20 8
f 22 8 13
f 23 21 12
f 23 12 7
f 23 7 21
f 24 14 20
f 24 20 22
f 24 9 14
f 24 22 13
f 24 13 19
f 24 19 2
f 24 2 9
