v -0.014713175 0.005220249 0.018821294
v -0.012179882 -0.025950957 0.018125239
v -0.011533579 -0.000619763 0.003662656
v -0.025983030 -0.008791863 0.000036987
v -0.032607265 -0.010217219 0.017814696
v -0.011998688 -0.027644951 0.013220386
v -0.017359233 0.004229145 0.003441684
v -0.011161457 0.004815271 0.015861339
v -0.015640095 -0.024003243 0.018260438
v -0.019827709 -0.008875435 0.000168814
v -0.031284776 -0.013061070 0.007467385
v -0.020623871 0.004867187 0.015987689
v -0.025631123 -0.007747512 0.000735975
v -0.011124682 -0.002008091 0.017510011
v -0.011414522 0.004573653 0.007284318
v -0.013241181 -0.025925018 0.018292006
v -0.022022813 -0.011726390 0.000280297
v -0.014763972 -0.002157053 0.000268139
v -0.032672102 -0.010447350 0.017447874
v -0.015984819 0.005168444 0.018282276
v -0.018344451 0.001848641 0.000699538
v -0.030859773 -0.011956125 0.007555059
v -0.011235835 -0.005721970 0.004767182
v -0.012497023 -0.026657684 0.017393424
v -0.022771176 -0.011562234 0.000230697
v -0.017050722 0.004479988 0.003841128
v -0.018999405 0.000974026 0.000671739
v -0.031699442 -0.012499984 0.008985332
v -0.011366746 -0.003309237 0.003956342
v -0.012419141 -0.027364858 0.013104145
v -0.012086807 -0.027523733 0.013822902
f 9 1 5
f 12 7 5
f 14 8 1
f 14 1 2
f 14 2 6
f 15 1 8
f 16 2 1
f 16 1 9
f 17 10 6
f 18 6 10
f 18 15 3
f 18 10 4
f 19 9 5
f 19 16 9
f 20 12 5
f 20 5 1
f 21 18 4
f 21 15 18
f 22 13 4
f 22 4 11
f 22 5 7
f 22 7 13
f 23 14 6
f 23 15 8
f 23 8 14
f 23 6 18
f 24 2 16
f 24 16 19
f 25 4 10
f 25 10 17
f 25 11 4
f 25 17 6
f 26 7 12
f 26 12 20
f 26 21 7
f 26 15 21
f 26 20 1
f 26 1 15
f 27 21 4
f 27 4 13
f 27 13 7
f 27 7 21
f 28 22 11
f 28 11 19
f 28 19 5
f 28 5 22
f 29 3 15
f 29 15 23
f 29 23 18
f 29 18 3
f 30 25 6
f 30 11 25
f 30 19 11
f 31 30 6
f 31 24 19
f 31 19 30
f 31 6 2
f 31 2 24
