v -0.008833490 0.013696558 0.020652512
v 0.000898262 0.009534857 0.016102411
v -0.006167404 0.013671829 0.009387123
v -0.017097936 0.004795171 0.004004151
v -0.015984819 0.005168444 0.018282276
v 0.001115517 0.010636850 0.009769468
v -0.015097421 0.013420811 0.019193960
v -0.013809053 0.006642923 0.019406154
v -0.006698214 0.004998471 0.016329778
v -0.008392773 0.013999119 0.019945485
v -0.012190963 0.012984975 0.008363256
v -0.020412138 0.005151153 0.016165605
v -0.012105253 0.009181288 0.020141059
v -0.017695632 0.009430032 0.018234223
v -0.014495914 0.005563610 0.018965680
v 0.000687213 0.008567799 0.011103585
v 0.000806683 0.009980239 0.015983907
v -0.006050492 0.013425073 0.014360529
v -0.008015807 0.013705704 0.009074449
v -0.019966428 0.005975719 0.016598623
v -0.020086813 0.004573074 0.013440477
v -0.009652364 0.012596765 0.020603015
v -0.017079668 0.010538966 0.018516752
v -0.014270507 0.006025276 0.019131962
v 0.000977269 0.009243315 0.014811519
v -0.005671160 0.005266451 0.011173744
v -0.011414522 0.004573653 0.007284318
v -0.012322187 0.012729321 0.008153538
v -0.018457148 0.006133906 0.017385702
v -0.011911245 0.013467351 0.020023309
v -0.015444596 0.012929844 0.019110530
v -0.018831657 0.007831959 0.017510097
v -0.012611155 0.008503850 0.019936681
v -0.016052326 0.004649738 0.004650278
v -0.019393078 0.005236287 0.016691377
v -0.012679745 0.010979302 0.019932748
v -0.019659813 0.006492710 0.016883547
v -0.017525097 0.004577600 0.004880040
f 6 4 3
f 10 7 1
f 13 9 2
f 13 8 9
f 15 9 8
f 15 5 9
f 17 10 1
f 17 1 2
f 17 2 6
f 17 6 10
f 18 10 6
f 18 6 3
f 18 3 10
f 19 10 3
f 19 7 10
f 19 11 7
f 19 3 4
f 21 9 5
f 21 5 12
f 21 12 20
f 22 13 2
f 22 2 1
f 23 14 8
f 24 15 8
f 24 8 14
f 25 16 6
f 25 6 2
f 25 2 9
f 25 9 16
f 26 16 9
f 27 6 16
f 27 16 26
f 27 26 9
f 27 9 21
f 28 19 4
f 28 11 19
f 28 7 11
f 29 20 12
f 30 22 1
f 30 1 7
f 30 13 22
f 31 23 13
f 31 7 23
f 32 14 23
f 32 29 5
f 32 24 14
f 32 5 15
f 32 15 24
f 32 23 7
f 32 7 21
f 33 23 8
f 33 8 13
f 33 13 23
f 34 4 6
f 34 6 27
f 35 29 12
f 35 12 5
f 35 5 29
f 36 30 7
f 36 13 30
f 36 31 13
f 36 7 31
f 37 20 29
f 37 29 32
f 37 32 21
f 37 21 20
f 38 34 27
f 38 27 21
f 38 4 34
f 38 28 4
f 38 21 7
f 38 7 28
