v 0.015239197 0.033430232 -0.009837452
v 0.015128526 0.033164116 -0.010142261
v 0.011047751 0.029860640 -0.026588920
v 0.003399621 0.019318627 -0.027743398
v 0.008092527 0.024512513 -0.009889400
v 0.013619059 0.024451829 -0.027198706
v 0.008496326 0.024442599 -0.010078162
v 0.010787141 0.036192377 -0.009648948
v 0.015323254 0.029859958 -0.021232276
v 0.005298469 0.016401387 -0.024880434
v 0.006739504 0.030881617 -0.009579830
v 0.014547784 0.025789497 -0.026912862
v 0.011991471 0.035001562 -0.016387767
v 0.006818539 0.017122127 -0.023039021
v 0.004688628 0.027104937 -0.010747234
v 0.012156280 0.022551554 -0.027125061
v 0.009323909 0.034292196 -0.009574636
v 0.015277174 0.028100865 -0.023766375
v 0.012098724 0.035865093 -0.009879439
v 0.015373842 0.032386595 -0.015514597
v 0.012661446 0.032274689 -0.021305083
v 0.011968548 0.034091608 -0.018935587
v 0.005664938 0.026403580 -0.009902287
v 0.003162133 0.020155461 -0.023609749
v 0.005040264 0.028304565 -0.010431982
v 0.003735066 0.019050160 -0.027737884
v 0.014523904 0.026542925 -0.026285740
v 0.015177909 0.027606487 -0.024410135
v 0.011724093 0.035789310 -0.013806467
v 0.015392673 0.033172692 -0.011475123
v 0.011814384 0.031483824 -0.023737554
v 0.015335980 0.031487244 -0.018066621
v 0.004777713 0.016757074 -0.025099518
v 0.005618075 0.029371247 -0.009659208
v 0.003302429 0.021098602 -0.022901868
v 0.014466324 0.033133440 -0.015618307
v 0.011954860 0.035721965 -0.013185317
v 0.011319922 0.030692662 -0.025389774
v 0.012681575 0.033152703 -0.019605381
v 0.002987583 0.019148502 -0.026795165
f 6 4 3
f 7 2 1
f 7 1 5
f 11 5 1
f 12 6 3
f 14 7 5
f 14 5 10
f 14 2 7
f 16 14 10
f 17 11 1
f 17 1 8
f 19 8 1
f 22 17 8
f 22 11 17
f 22 13 20
f 23 10 5
f 26 16 10
f 26 4 6
f 26 6 16
f 27 12 3
f 28 18 1
f 28 12 27
f 28 1 2
f 28 6 12
f 28 16 6
f 28 2 14
f 28 14 16
f 29 8 19
f 29 22 8
f 29 13 22
f 30 18 9
f 30 9 20
f 30 1 18
f 31 22 21
f 31 21 9
f 31 9 18
f 32 22 20
f 32 20 9
f 33 23 15
f 33 10 23
f 33 15 24
f 33 26 10
f 33 4 26
f 34 23 5
f 34 5 11
f 34 11 22
f 34 25 15
f 34 15 23
f 35 24 15
f 35 15 25
f 35 25 34
f 35 34 22
f 36 20 13
f 36 13 29
f 36 30 20
f 37 29 19
f 37 19 1
f 37 1 30
f 37 36 29
f 37 30 36
f 38 31 18
f 38 22 31
f 38 3 4
f 38 35 22
f 38 4 35
f 38 18 28
f 38 28 27
f 38 27 3
f 39 32 9
f 39 9 21
f 39 21 22
f 39 22 32
f 40 33 24
f 40 4 33
f 40 35 4
f 40 24 35
