v 0.030535461 0.005102437 0.033604504
v 0.032546229 0.005404091 0.027640818
v 0.031013074 0.005413077 0.032794391
v 0.016946905 0.006273232 0.012858012
v 0.019345176 -0.009665322 0.017669854
v 0.018772171 0.004861066 0.032311781
v 0.024263454 -0.009210338 0.018274077
v 0.020051786 -0.007217335 0.035388559
v 0.025594000 -0.007921000 0.017097000
v 0.020603965 -0.007319704 0.035320473
v 0.018802624 -0.004617719 0.034614428
v 0.018017570 -0.002176123 0.014832618
v 0.033556204 0.002757487 0.015425136
v 0.022816910 -0.004508073 0.035049041
v 0.020548686 -0.007771128 0.034360114
v 0.017629518 0.004062967 0.022580890
v 0.019147567 -0.006531752 0.035118337
v 0.027162178 0.005216337 0.014091684
v 0.033620155 0.002074415 0.015598169
v 0.020538156 -0.007748878 0.034451801
v 0.017576059 0.005176499 0.021466353
v 0.031593637 0.004244304 0.014838298
v 0.017730509 0.000117916 0.014243203
v 0.033243524 0.003932515 0.021573291
f 3 2 4
f 6 1 3
f 6 3 4
f 9 7 5
f 9 2 3
f 9 3 1
f 12 9 5
f 12 11 4
f 12 5 11
f 14 10 1
f 14 8 10
f 14 1 6
f 14 6 8
f 15 5 7
f 15 7 9
f 15 9 1
f 16 11 6
f 16 4 11
f 17 11 5
f 17 5 8
f 17 8 6
f 17 6 11
f 18 4 2
f 18 13 9
f 19 2 9
f 19 9 13
f 20 10 8
f 20 8 5
f 20 5 15
f 20 15 1
f 20 1 10
f 21 16 6
f 21 6 4
f 21 4 16
f 22 18 2
f 22 2 13
f 22 13 18
f 23 12 4
f 23 4 18
f 23 18 9
f 23 9 12
f 24 19 13
f 24 13 2
f 24 2 19
