v -0.000039352 -0.024561763 -0.018984111
v -0.001108080 -0.025537808 -0.020763929
v -0.000875616 -0.023047172 -0.021737041
v -0.012967580 -0.023229006 -0.022686685
v -0.008807989 -0.035147977 -0.019394858
v -0.005359666 -0.023028762 -0.021861171
v -0.007775035 -0.036316594 -0.022918774
v -0.012555890 -0.032128709 -0.019334191
v -0.005191171 -0.032905596 -0.022913907
v -0.007999817 -0.035290340 -0.019562466
v -0.012391670 -0.032779880 -0.022788337
v -0.001476981 -0.027033681 -0.020443475
v -0.008071316 -0.035999087 -0.021121436
v -0.008118753 -0.036211322 -0.022787138
v -0.010517628 -0.034289507 -0.022818711
v -0.007928710 -0.036200106 -0.022108819
v -0.008060778 -0.036021335 -0.021213159
f 1 2 3
f 6 1 3
f 6 3 4
f 6 4 1
f 8 5 1
f 8 1 4
f 9 3 2
f 9 7 4
f 9 4 3
f 10 1 5
f 11 5 8
f 11 8 4
f 11 4 7
f 12 9 2
f 12 2 1
f 12 7 9
f 12 1 10
f 13 10 5
f 13 12 10
f 13 5 11
f 15 11 7
f 15 7 14
f 15 14 13
f 15 13 11
f 16 14 7
f 16 7 12
f 17 13 14
f 17 14 16
f 17 16 12
f 17 12 13
