v 0.014730803 0.005421551 0.043865829
v 0.019147567 -0.006531752 0.035118337
v 0.017230129 0.004948319 0.026336855
v 0.002748359 0.005403390 0.026901496
v 0.006053838 0.005157078 0.042932803
v 0.018751116 -0.006735097 0.031649771
v 0.015528260 0.005473115 0.041329233
v 0.011315000 0.001168000 0.044505000
v 0.005375563 0.005477647 0.041440158
v 0.018993736 -0.000961534 0.028131861
v 0.002810363 0.005480589 0.027745749
v 0.018772171 0.004861066 0.032311781
v 0.014286528 0.002493535 0.025970135
v 0.011063208 0.005099870 0.026091359
v 0.004541237 0.005504469 0.037156803
v 0.018377670 0.003733554 0.028101428
v 0.003142010 0.005099892 0.026985697
v 0.011475412 0.004757468 0.026014555
v 0.017918124 0.004565899 0.027469179
f 8 2 1
f 8 1 5
f 8 6 2
f 9 5 1
f 9 4 5
f 9 1 7
f 10 2 6
f 11 7 3
f 11 4 9
f 12 7 1
f 12 1 2
f 12 2 10
f 12 3 7
f 13 10 6
f 13 3 10
f 14 11 3
f 14 4 11
f 15 11 9
f 15 9 7
f 15 7 11
f 16 12 10
f 17 13 6
f 17 4 13
f 17 6 8
f 17 8 5
f 17 5 4
f 18 13 4
f 18 4 14
f 18 14 3
f 18 3 13
f 19 3 12
f 19 12 16
f 19 16 10
f 19 10 3
