v 0.024643303 0.020313974 0.041391777
v 0.024253355 0.020609638 0.041275279
v 0.006769081 0.020310375 0.039339263
v 0.002200650 0.035532583 0.022724711
v 0.002397029 0.037181369 0.034745620
v 0.013378181 0.020187211 0.023574950
v 0.002452953 0.029299867 0.027739925
v 0.024318726 0.019959627 0.037299581
v 0.001995704 0.036989124 0.031321714
v 0.002557161 0.031296091 0.036190952
v 0.006365865 0.020757434 0.023040756
v 0.010243303 0.020206256 0.039763495
v 0.022587643 0.019935531 0.027888678
v 0.001974290 0.036106596 0.025334663
v 0.002612840 0.035189957 0.022647582
v 0.017941977 0.020212386 0.040646605
v 0.009328835 0.029911569 0.023414983
v 0.020528720 0.021419679 0.026761421
v 0.021160762 0.020644264 0.027022083
f 2 1 4
f 5 2 4
f 5 1 2
f 10 7 3
f 10 3 5
f 10 9 7
f 10 5 9
f 11 6 3
f 11 3 7
f 11 7 4
f 12 3 6
f 13 1 8
f 13 12 6
f 13 8 12
f 14 4 7
f 14 7 9
f 14 9 5
f 14 5 4
f 15 11 4
f 15 6 11
f 15 4 1
f 16 12 8
f 16 8 1
f 16 3 12
f 16 5 3
f 16 1 5
f 17 6 15
f 17 15 1
f 18 6 17
f 18 17 1
f 18 1 13
f 19 18 13
f 19 13 6
f 19 6 18
