v 0.025825550 0.019417580 0.041744978
v 0.027267170 0.010130574 0.032009660
v 0.023005147 0.019542022 0.027501358
v 0.007042990 0.011563187 0.019006231
v 0.006774785 0.013451952 0.041003353
v 0.021561924 0.012273882 0.022420324
v 0.027404999 0.016206000 0.028816000
v 0.021150820 0.013415129 0.042663669
v 0.007465476 0.010018027 0.033826712
v 0.006769081 0.020310375 0.039339263
v 0.012150779 0.010197665 0.019181588
v 0.013989149 0.019602252 0.022950048
v 0.026344295 0.018444950 0.038045350
v 0.021447922 0.013590732 0.022806270
v 0.027140998 0.009826031 0.028183957
v 0.025753049 0.019146083 0.041802492
v 0.006396988 0.010444852 0.019502514
v 0.021117053 0.012852952 0.041350612
v 0.023951000 0.020174459 0.041346084
v 0.006716274 0.020422003 0.023536897
v 0.014306038 0.012393266 0.019115328
v 0.016238342 0.017776832 0.022819788
v 0.020478279 0.010729108 0.022314264
v 0.006940618 0.010430207 0.033764748
v 0.025616182 0.019443790 0.040800569
v 0.013262081 0.020117740 0.023620941
v 0.010083679 0.012889500 0.018970416
f 9 8 5
f 13 1 2
f 13 2 7
f 13 7 3
f 13 3 1
f 14 7 6
f 14 3 7
f 15 7 2
f 15 6 7
f 15 2 9
f 15 9 11
f 16 8 2
f 16 2 1
f 16 1 5
f 16 5 8
f 17 11 9
f 17 4 11
f 17 5 10
f 18 9 2
f 18 2 8
f 18 8 9
f 19 10 5
f 19 5 1
f 20 10 19
f 20 17 10
f 20 4 17
f 21 14 6
f 22 12 3
f 22 3 14
f 22 21 12
f 22 14 21
f 23 15 11
f 23 6 15
f 23 21 6
f 23 11 21
f 24 17 9
f 24 9 5
f 24 5 17
f 25 19 1
f 25 1 3
f 25 3 19
f 26 20 19
f 26 19 3
f 26 3 12
f 26 12 20
f 27 21 11
f 27 11 4
f 27 4 20
f 27 20 12
f 27 12 21
