v 0.016269000 0.007337000 0.043577999
v 0.002485952 0.015537009 0.033959134
v 0.014491877 0.005718601 0.033174903
v 0.007003918 0.018461647 0.033899913
v 0.006769081 0.020310375 0.039339263
v 0.016139837 0.006708159 0.038680079
v 0.005539553 0.005547015 0.042779119
v 0.007139109 0.020213875 0.037329156
v 0.014730803 0.005421551 0.043865829
v 0.007277990 0.019289042 0.034794162
v 0.002831748 0.006363131 0.033732887
v 0.002545342 0.016769852 0.039712531
v 0.002682755 0.017184726 0.039627650
v 0.016366519 0.005646098 0.038963650
v 0.014137422 0.004664948 0.033859468
v 0.003063140 0.007424661 0.042039091
v 0.002550851 0.009911515 0.041376985
v 0.007672751 0.004804382 0.043204387
v 0.003768783 0.005608339 0.033717702
f 3 2 4
f 8 5 1
f 8 1 6
f 9 1 7
f 10 6 3
f 10 3 4
f 10 8 6
f 10 4 2
f 10 2 8
f 11 2 3
f 13 8 2
f 13 5 8
f 13 12 5
f 13 2 12
f 14 6 1
f 14 1 9
f 14 3 6
f 15 14 9
f 15 3 14
f 16 11 7
f 16 7 1
f 17 12 2
f 17 2 11
f 17 11 16
f 17 5 12
f 17 16 1
f 17 1 5
f 18 15 9
f 18 9 7
f 19 11 3
f 19 3 15
f 19 15 18
f 19 18 7
f 19 7 11
