v -0.017605012 -0.002624388 -0.013124559
v -0.012068704 -0.017328685 -0.017069799
v -0.012269044 -0.002972593 -0.019458443
v -0.012610037 -0.004342689 -0.034203002
v -0.027778891 -0.019399198 -0.021646759
v -0.012459519 -0.003928297 -0.033654810
v -0.013168646 -0.005521819 -0.013608624
v -0.021764395 -0.013794952 -0.013117328
v -0.013039773 -0.018797306 -0.023770250
v -0.012436948 -0.000521983 -0.025089203
v -0.012806670 -0.005405365 -0.014524283
v -0.013279045 -0.000750324 -0.021530831
v -0.028240020 -0.019049658 -0.019216968
v -0.020327335 -0.014799600 -0.013189772
v -0.026327291 -0.019202065 -0.026003821
v -0.013734361 -0.000835903 -0.021542122
v -0.013233838 -0.018387956 -0.016946853
v -0.024050008 -0.011073755 -0.012996684
v -0.018148248 -0.003301486 -0.013023885
v -0.021766600 -0.019246528 -0.026059214
v -0.024283834 -0.012014734 -0.013105460
v -0.026976275 -0.019358933 -0.024230263
f 6 3 2
f 9 6 2
f 9 4 6
f 10 3 6
f 10 6 4
f 11 7 2
f 11 2 3
f 11 3 7
f 12 7 3
f 12 1 7
f 12 3 10
f 13 1 10
f 14 2 7
f 14 8 13
f 15 10 4
f 16 12 10
f 16 10 1
f 16 1 12
f 17 9 2
f 17 14 13
f 17 2 14
f 17 13 5
f 17 5 9
f 18 1 13
f 19 14 7
f 19 7 1
f 19 8 14
f 19 18 8
f 19 1 18
f 20 9 5
f 20 15 4
f 20 4 9
f 21 18 13
f 21 13 8
f 21 8 18
f 22 20 5
f 22 15 20
f 22 5 13
f 22 13 10
f 22 10 15
