v -0.013233838 -0.018387956 -0.016946853
v -0.004840798 -0.032319739 -0.022600539
v -0.003493000 -0.035165001 -0.034329999
v -0.022977331 -0.020390364 -0.040151915
v -0.028540000 -0.019169001 -0.018516000
v -0.013039773 -0.018797306 -0.023770250
v -0.020310940 -0.025408315 -0.016057410
v -0.026120000 -0.024277000 -0.039570998
v -0.024145736 -0.016272396 -0.025658083
v -0.012555890 -0.032128709 -0.019334191
v -0.023263856 -0.019804495 -0.037782835
v -0.025685665 -0.017490996 -0.018594964
v -0.007671638 -0.036842888 -0.024600235
v -0.023104365 -0.020521190 -0.040134804
v -0.024626279 -0.016930889 -0.025933171
v -0.027553226 -0.017940662 -0.018700500
v -0.020613714 -0.017357521 -0.018044565
v -0.007775035 -0.036316594 -0.022918774
v -0.006567555 -0.038994431 -0.033754994
v -0.008118753 -0.036211322 -0.022787138
v -0.007319143 -0.038531672 -0.033953593
v -0.006872282 -0.038530490 -0.031557833
f 6 3 4
f 6 1 2
f 6 2 3
f 8 7 5
f 9 1 6
f 9 6 4
f 10 2 1
f 10 1 7
f 11 9 4
f 14 11 4
f 14 8 5
f 14 5 11
f 14 4 3
f 14 3 8
f 15 11 5
f 15 9 11
f 16 12 9
f 16 5 7
f 16 15 5
f 16 9 15
f 17 1 9
f 17 9 12
f 17 7 1
f 17 16 7
f 17 12 16
f 18 2 10
f 18 13 3
f 18 3 2
f 20 18 10
f 20 13 18
f 20 10 7
f 20 7 8
f 20 8 13
f 21 8 3
f 21 3 19
f 22 21 19
f 22 13 8
f 22 8 21
f 22 19 3
f 22 3 13
