v 0.006365865 0.020757434 0.023040756
v 0.006780455 0.013466308 0.016308865
v 0.006203265 0.020008050 0.006225606
v 0.001844260 0.021891676 0.004530631
v -0.015097421 0.013420811 0.019193960
v 0.006641543 0.021349377 0.022757630
v 0.002044371 0.013950799 0.023083974
v -0.011861694 0.013376592 0.008255757
v 0.005299931 0.020693082 0.005953308
v -0.010610790 0.020787890 0.022873386
v 0.007050816 0.013825965 0.005308397
v -0.014906203 0.013097493 0.017733311
v 0.002887896 0.014818477 0.023096649
v 0.003718894 0.019326627 0.004729351
v 0.004518081 0.021004191 0.005634571
v -0.013087075 0.017511884 0.022848118
v -0.004304962 0.021696416 0.006275663
v -0.012344726 0.013101631 0.009173124
v -0.011911245 0.013467351 0.020023309
v -0.012073794 0.018887577 0.022947704
v 0.006175179 0.018405920 0.005738642
v 0.002827245 0.021015748 0.004758808
v -0.005967606 0.020659571 0.007010884
v -0.011438514 0.016154999 0.022628969
f 6 1 2
f 9 6 3
f 10 1 6
f 11 6 2
f 11 3 6
f 12 2 7
f 12 5 10
f 13 7 2
f 13 2 1
f 14 11 8
f 14 8 4
f 15 4 6
f 15 6 9
f 17 10 6
f 17 6 4
f 17 4 8
f 18 11 2
f 18 8 11
f 18 2 12
f 19 12 7
f 19 5 12
f 20 13 1
f 20 1 10
f 20 10 5
f 20 5 16
f 20 16 7
f 20 7 13
f 21 3 11
f 21 11 14
f 21 14 15
f 21 15 9
f 21 9 3
f 22 15 14
f 22 14 4
f 22 4 15
f 23 17 8
f 23 10 17
f 23 8 18
f 23 18 12
f 23 12 10
f 24 16 5
f 24 5 19
f 24 19 7
f 24 7 16
