v -0.018300780 0.001975493 0.000875162
v -0.015094214 -0.001382972 0.000778633
v -0.013539277 -0.005284659 -0.013604340
v -0.017529172 -0.002620067 -0.013367741
v -0.025888630 -0.010306462 -0.004056891
v -0.026021511 -0.008308006 0.000619432
v -0.021975807 -0.013724255 -0.004944384
v -0.024050008 -0.011073755 -0.012996684
v -0.015390556 -0.003004078 0.000216479
v -0.022233713 -0.012080506 0.000088310
v -0.025755627 -0.010968954 -0.007025338
v -0.018976905 -0.013150530 -0.013526894
v -0.013754218 -0.005583456 -0.011804983
v -0.025983030 -0.008791863 0.000036987
v -0.022407042 -0.012803512 -0.002360586
v -0.015749776 -0.007925667 -0.011051678
v -0.021680454 -0.011335710 0.000126170
v -0.020265835 -0.014805554 -0.013410718
v -0.024122402 -0.011952044 -0.004927234
v -0.024283834 -0.012014734 -0.013105460
v -0.016135321 -0.003556692 -0.013467924
v -0.013808192 -0.006329418 -0.013516971
v -0.025903786 -0.009515462 -0.001603078
v -0.024973934 -0.011672843 -0.011425472
v -0.024087839 -0.011107078 -0.001646955
v -0.021157068 -0.014585606 -0.009870098
v -0.023324347 -0.012829945 -0.006501387
v -0.025731867 -0.011001054 -0.007186205
v -0.023379520 -0.012802106 -0.012237932
v -0.021970533 -0.013742691 -0.005008771
v -0.024993452 -0.011662457 -0.011333820
v -0.020707729 -0.014762774 -0.011823139
v -0.021120387 -0.014605124 -0.010042339
f 1 2 3
f 1 3 4
f 6 2 1
f 10 2 6
f 11 5 6
f 11 6 1
f 11 1 4
f 11 4 8
f 13 3 2
f 13 2 9
f 14 10 6
f 14 6 5
f 15 7 10
f 16 9 10
f 16 13 9
f 17 10 9
f 17 9 2
f 17 2 10
f 19 5 11
f 19 15 5
f 19 7 15
f 20 8 4
f 20 4 12
f 20 12 18
f 21 12 4
f 21 4 3
f 21 3 12
f 22 12 3
f 22 3 13
f 22 13 16
f 22 18 12
f 22 16 18
f 23 14 5
f 23 5 15
f 23 10 14
f 24 11 8
f 24 8 20
f 25 23 15
f 25 15 10
f 25 10 23
f 28 27 11
f 28 26 27
f 29 24 20
f 29 20 18
f 30 27 26
f 30 11 27
f 30 19 11
f 30 7 19
f 30 16 10
f 30 10 7
f 31 26 28
f 31 28 11
f 31 11 24
f 32 29 18
f 32 18 16
f 33 29 32
f 33 24 29
f 33 31 24
f 33 26 31
f 33 32 16
f 33 30 26
f 33 16 30
