v 0.010166946 0.005049546 0.020963734
v 0.011640805 -0.002270441 0.016564138
v 0.010372162 0.003593341 0.012366611
v 0.000274204 -0.006462292 0.007891880
v 0.000820312 -0.007166146 0.020143739
v 0.011819719 -0.002621254 0.015096228
v 0.004864894 0.005433044 0.012391083
v 0.007500911 -0.007118841 0.020899110
v 0.001140472 -0.007226606 0.008089380
v 0.010579249 0.004707198 0.020887523
v 0.009547792 0.004278567 0.012520894
v 0.001092964 -0.001096134 0.018703520
v 0.009642118 0.005461848 0.020902544
v 0.000464914 -0.007118045 0.007761423
v 0.008187525 -0.006776012 0.015687213
v 0.004590363 -0.007405939 0.010969332
v 0.009395694 -0.002708438 0.019825126
v 0.000344978 -0.003946457 0.010091274
v 0.000839581 -0.002928109 0.019118239
v 0.004787592 0.004851707 0.017685813
v 0.001074126 -0.001109094 0.018681155
f 7 3 4
f 8 6 2
f 9 3 6
f 10 2 6
f 10 1 8
f 10 6 3
f 11 3 7
f 11 10 3
f 13 8 1
f 13 5 8
f 13 11 7
f 13 1 10
f 13 10 11
f 14 4 3
f 14 3 9
f 14 9 5
f 14 5 4
f 15 6 8
f 16 8 5
f 16 5 9
f 16 15 8
f 16 9 6
f 16 6 15
f 17 10 8
f 17 8 2
f 17 2 10
f 18 7 4
f 18 4 5
f 19 13 12
f 19 5 13
f 19 18 5
f 20 13 7
f 20 12 13
f 21 7 18
f 21 20 7
f 21 12 20
f 21 19 12
f 21 18 19
