v -0.015063987 0.000322184 0.053992835
v -0.014896652 -0.007369445 0.052312609
v -0.015128284 0.000155655 0.013714480
v -0.032245635 0.000629017 0.011910830
v -0.029578589 0.000700101 0.042371878
v -0.014965934 -0.008187958 0.012232605
v -0.014801891 -0.003946986 0.053110507
v -0.022063530 0.000679310 0.050855785
v -0.029461265 -0.007119838 0.035913109
v -0.023838691 -0.007007536 0.046365300
v -0.017909476 0.000589524 0.053104157
v -0.028734518 0.000904936 0.012588517
v -0.031933381 0.000621735 0.035984358
v -0.028448656 -0.007149658 0.039268467
v -0.030007076 -0.007424165 0.012410854
v -0.027559193 0.000663928 0.045554836
v -0.020745790 -0.005930625 0.049489901
v -0.019932581 -0.004879053 0.050468605
v -0.016645569 -0.002680241 0.052823307
v -0.026236897 -0.007111645 0.043424602
v -0.029300651 -0.003668673 0.039989257
v -0.031612868 -0.001549369 0.032823552
v -0.024121070 -0.001474327 0.048404089
v -0.022988708 -0.007051806 0.047268030
v -0.016579710 -0.007111592 0.051580579
v -0.015832255 -0.003881462 0.052819174
v -0.027096970 -0.004796291 0.043356099
v -0.031656405 -0.001580860 0.015089145
v -0.030527806 -0.004909397 0.033943355
v -0.026064555 -0.001419783 0.046358341
v -0.031631875 -0.000398060 0.035894214
f 6 4 3
f 7 1 2
f 7 3 1
f 7 6 3
f 7 2 6
f 11 1 3
f 12 5 8
f 12 8 11
f 12 11 3
f 12 3 4
f 13 12 4
f 13 5 12
f 14 6 2
f 15 4 6
f 15 14 9
f 15 6 14
f 16 8 5
f 18 11 8
f 18 8 17
f 19 1 11
f 20 14 2
f 20 10 16
f 21 5 13
f 21 13 14
f 22 13 4
f 23 8 16
f 23 17 8
f 24 20 2
f 24 10 20
f 24 17 23
f 25 18 17
f 25 2 19
f 25 19 11
f 25 11 18
f 25 24 2
f 25 17 24
f 26 19 2
f 26 2 1
f 26 1 19
f 27 20 16
f 27 16 5
f 27 5 21
f 27 21 14
f 27 14 20
f 28 22 4
f 28 4 15
f 28 15 22
f 29 22 15
f 29 15 9
f 29 13 22
f 30 23 16
f 30 16 10
f 30 24 23
f 30 10 24
f 31 29 9
f 31 13 29
f 31 14 13
f 31 9 14
