v 0.007494170 0.030580643 0.031693442
v 0.019866898 0.010014132 0.020310797
v 0.016432368 0.035615243 0.010712033
v -0.004441000 0.030901000 0.005897000
v -0.002051339 0.010757899 0.019214212
v -0.002058557 0.022238514 0.004836527
v 0.015927992 0.035667684 0.012458684
v 0.005785155 0.010541982 0.031941351
v -0.007335000 0.027896000 0.021381000
v 0.017856358 0.026889201 0.009689220
v 0.004612936 0.024078492 0.006264918
v -0.001231449 0.011215212 0.012884259
v 0.011902879 0.034928518 0.009732431
v 0.014850674 0.017839737 0.031464023
v 0.017321479 0.010078225 0.029296944
v 0.000535770 0.028667756 0.031456050
v -0.002840293 0.011824099 0.019101405
v 0.018756665 0.025781397 0.010830511
v -0.002715383 0.024728712 0.005021803
v 0.018298001 0.028944955 0.009766223
v -0.001429448 0.010679708 0.014290125
v 0.012830173 0.032907224 0.025811324
v 0.016633829 0.010181128 0.031651613
v 0.000909664 0.027523828 0.031730319
v -0.001096330 0.011193026 0.012954773
v 0.018285775 0.010041640 0.025903264
v 0.002023411 0.029058800 0.031635579
f 9 1 7
f 11 10 2
f 11 2 6
f 12 6 2
f 12 9 6
f 13 7 3
f 13 3 4
f 13 9 7
f 13 4 9
f 17 5 8
f 17 8 9
f 18 2 10
f 19 11 6
f 19 4 11
f 19 9 4
f 19 6 9
f 20 10 11
f 20 18 10
f 20 3 7
f 20 11 4
f 20 4 3
f 21 5 17
f 21 17 9
f 21 9 12
f 21 15 8
f 21 8 5
f 22 7 1
f 22 1 14
f 22 20 7
f 22 14 20
f 23 14 1
f 23 1 8
f 23 8 15
f 23 20 14
f 23 15 20
f 24 16 9
f 24 9 8
f 24 8 1
f 25 21 12
f 25 12 2
f 25 2 21
f 26 21 2
f 26 15 21
f 26 2 18
f 26 20 15
f 26 18 20
f 27 24 1
f 27 16 24
f 27 1 9
f 27 9 16
