v -0.022103326 0.000497486 0.028604302
v -0.018057312 -0.007673161 0.022469939
v -0.020246821 -0.006840893 0.028881008
v -0.019946394 0.009183805 0.021303750
v -0.022138388 0.009155412 0.023820176
v -0.019169378 0.004641952 0.021156991
v -0.019180946 -0.006679092 0.024257468
v -0.019972985 -0.007636486 0.028423198
v -0.021643298 0.009072617 0.023177881
v -0.020740512 0.000708279 0.024220690
v -0.018538105 -0.007766477 0.023296717
v -0.021920981 -0.000033191 0.028300237
v -0.021048773 0.009335973 0.022461764
v -0.018789583 0.000232778 0.021493805
v -0.020768578 -0.004491492 0.028304821
v -0.020596246 0.009061868 0.021999034
v -0.019939440 0.000647026 0.022912719
v -0.018212079 -0.006586317 0.022376770
f 1 3 4
f 5 1 4
f 6 4 3
f 8 6 3
f 8 2 6
f 11 8 7
f 11 2 8
f 11 7 10
f 12 10 7
f 12 1 5
f 12 5 10
f 12 8 3
f 12 3 1
f 13 9 5
f 13 5 4
f 14 6 2
f 14 9 13
f 15 12 7
f 15 7 8
f 15 8 12
f 16 13 4
f 16 4 6
f 16 14 13
f 16 6 14
f 17 5 9
f 17 9 14
f 17 11 10
f 17 10 5
f 18 17 14
f 18 14 2
f 18 2 11
f 18 11 17
