v 0.000456277 -0.017503460 0.052330444
v 0.000639311 -0.030786639 0.050730761
v 0.000610347 -0.017662467 0.041469370
v -0.027315360 -0.017563817 0.028481765
v -0.016698076 -0.017248746 0.048596086
v -0.012602670 -0.032930367 0.028737349
v -0.009155119 -0.017302697 0.051784034
v -0.026205351 -0.017202505 0.035941451
v 0.000127253 -0.030929902 0.039736456
v -0.017116736 -0.017841132 0.028523423
v -0.007516019 -0.034303550 0.048447248
v -0.002699672 -0.022948215 0.051729096
v 0.000491471 -0.030071798 0.039871091
v -0.022853286 -0.032874060 0.028371748
v -0.012447345 -0.017305945 0.050805347
v -0.002989894 -0.033251177 0.049954026
v -0.018344225 -0.035989484 0.038985143
v -0.000708686 -0.023024291 0.051786669
v -0.004930465 -0.021826146 0.051698622
v 0.000356992 -0.032382944 0.050432259
v -0.013231367 -0.033094864 0.028657617
v -0.026128419 -0.021682907 0.028364856
v -0.026054875 -0.020544495 0.032825967
v -0.009104028 -0.034622451 0.047563932
v -0.004732157 -0.033662552 0.049418363
v -0.023170988 -0.017238088 0.042270009
v 0.000411031 -0.021911070 0.051818164
v -0.007993708 -0.019502806 0.051634203
v -0.015467514 -0.023593128 0.028551469
v -0.022062716 -0.035540530 0.028485423
v -0.020494821 -0.035996791 0.034795004
v -0.007782653 -0.033985666 0.048439540
v -0.015233000 -0.035689000 0.043001998
v -0.005765646 -0.027325484 0.050536642
v -0.021556646 -0.035817697 0.031436429
v -0.024905834 -0.019331216 0.037794427
v -0.012895724 -0.035322251 0.045022088
v -0.018280707 -0.034940675 0.039685885
v -0.019499123 -0.020434457 0.045165661
v -0.022667062 -0.032819571 0.030588573
v -0.020368912 -0.033826319 0.036640415
v -0.023732941 -0.019311305 0.039998257
v -0.010989427 -0.032797288 0.047102766
v -0.020485542 -0.027110759 0.040778390
v -0.016087922 -0.035776011 0.041929550
v -0.022930603 -0.018259473 0.042070567
v -0.016413673 -0.018265647 0.048451835
v -0.022563184 -0.022643220 0.039969958
f 1 2 3
f 7 1 3
f 8 7 3
f 8 5 7
f 10 8 3
f 10 4 8
f 13 9 6
f 13 6 3
f 13 3 2
f 15 7 5
f 18 12 2
f 18 1 12
f 19 12 1
f 19 1 7
f 19 2 12
f 20 13 2
f 20 9 13
f 20 19 16
f 20 2 19
f 20 16 11
f 20 6 9
f 22 4 10
f 22 10 14
f 23 8 4
f 23 22 14
f 23 4 22
f 24 20 11
f 24 6 20
f 25 11 16
f 26 5 8
f 27 18 2
f 27 2 1
f 27 1 18
f 28 19 7
f 28 16 19
f 28 7 15
f 29 21 14
f 29 14 10
f 29 6 21
f 29 10 3
f 29 3 6
f 30 14 21
f 30 23 14
f 30 21 6
f 32 24 11
f 32 15 5
f 32 5 24
f 32 25 15
f 32 11 25
f 34 25 16
f 34 16 28
f 34 28 15
f 34 15 25
f 35 31 8
f 35 8 23
f 35 17 31
f 35 30 6
f 35 6 24
f 36 26 8
f 36 8 31
f 37 35 24
f 37 17 35
f 39 33 5
f 39 5 26
f 39 26 33
f 40 35 23
f 40 23 30
f 40 30 35
f 41 36 31
f 41 31 17
f 42 26 36
f 42 41 17
f 42 36 41
f 43 37 24
f 44 17 38
f 45 38 17
f 45 37 33
f 45 17 37
f 46 26 42
f 46 17 44
f 46 44 38
f 46 38 45
f 46 45 33
f 46 33 26
f 47 37 43
f 47 5 33
f 47 33 37
f 47 43 24
f 47 24 5
f 48 46 42
f 48 42 17
f 48 17 46
