v -0.005392600 -0.017520061 0.013951688
v -0.002330000 -0.027745999 0.012442000
v -0.004485000 -0.016966000 -0.002223000
v -0.025625580 -0.022690862 -0.003309001
v -0.022678197 -0.033819640 0.015140566
v -0.023249000 -0.031187000 -0.004546000
v -0.022900822 -0.007167135 0.012543790
v -0.007984105 -0.006855609 0.011870386
v -0.008712744 -0.029926746 0.015229142
v -0.002116000 -0.025436001 -0.003425000
v -0.024960367 -0.025068517 -0.003678286
v -0.028817239 -0.011775461 0.015084929
v -0.005086509 -0.017889441 0.013840213
v -0.028492667 -0.012800282 0.010312778
v -0.019939651 -0.033070528 0.015258492
v -0.015083878 -0.007182111 0.012646697
v -0.010486476 -0.007122312 0.012272315
v -0.012109254 -0.030879879 0.015252371
f 7 3 4
f 8 3 7
f 10 9 6
f 10 2 9
f 10 8 2
f 10 3 8
f 11 4 3
f 11 10 6
f 11 3 10
f 11 6 5
f 12 9 1
f 13 8 1
f 13 2 8
f 13 9 2
f 13 1 9
f 14 12 7
f 14 7 4
f 14 4 11
f 14 11 5
f 14 5 12
f 15 12 5
f 15 5 6
f 16 8 7
f 16 7 12
f 17 12 1
f 17 1 8
f 17 16 12
f 17 8 16
f 18 9 12
f 18 12 15
f 18 15 6
f 18 6 9
