v 0.000277905 -0.007480907 0.053304193
v 0.000456277 -0.017503460 0.052330444
v 0.000630384 -0.007557427 0.042252723
v -0.029280478 -0.007421344 0.036192987
v -0.019850469 -0.007148468 0.049764601
v -0.015127067 -0.017592193 0.035190713
v 0.000847760 -0.013183984 0.041860902
v -0.012544592 -0.007279911 0.053031426
v -0.028448656 -0.007149658 0.039268467
v -0.017339096 -0.007968254 0.037167033
v -0.019695161 -0.017129974 0.046221959
v 0.000404953 -0.012967779 0.052866255
v 0.000610347 -0.017662467 0.041469370
v -0.026236897 -0.007111645 0.043424602
v -0.015620878 -0.015551466 0.035578239
v -0.025482303 -0.018408550 0.037060814
v -0.012447345 -0.017305945 0.050805347
v -0.004932249 -0.015127814 0.052833824
v -0.021908115 -0.009302150 0.047313024
v -0.014641632 -0.017839099 0.035686268
v -0.027893667 -0.011802027 0.036112291
v -0.025930350 -0.011480033 0.041095672
v -0.015688296 -0.007235757 0.052011379
v -0.016698076 -0.017248746 0.048596086
v -0.009155119 -0.017302697 0.051784034
v -0.002942823 -0.015205527 0.052899846
v -0.021689272 -0.012603053 0.046276446
v -0.028677466 -0.009460932 0.036012700
v -0.027103243 -0.011499944 0.038891842
v -0.021655158 -0.017079645 0.044173190
v -0.014424389 -0.010505522 0.051730528
v -0.010221770 -0.011680129 0.052731763
v -0.023859748 -0.009249710 0.045265861
v -0.028164247 -0.008166560 0.039124232
v -0.025952489 -0.008128548 0.043280367
f 5 1 3
f 7 3 1
f 7 6 3
f 8 1 5
f 9 3 4
f 10 4 3
f 12 7 1
f 12 2 7
f 13 7 2
f 13 6 7
f 14 5 3
f 14 3 9
f 15 6 4
f 15 4 10
f 15 10 3
f 15 3 6
f 16 13 2
f 19 11 5
f 19 5 14
f 20 16 6
f 20 6 13
f 20 13 16
f 21 6 16
f 23 8 5
f 24 5 11
f 24 11 16
f 24 16 17
f 24 23 5
f 24 17 23
f 25 17 16
f 25 16 2
f 25 2 18
f 26 18 2
f 26 2 12
f 26 12 1
f 26 1 8
f 26 8 18
f 27 11 19
f 28 4 6
f 28 6 21
f 28 21 16
f 28 9 4
f 29 16 22
f 30 22 16
f 30 16 11
f 30 11 27
f 31 23 17
f 31 17 8
f 31 8 23
f 32 25 18
f 32 18 8
f 32 8 17
f 32 17 25
f 33 27 19
f 33 19 14
f 33 14 27
f 34 16 29
f 34 28 16
f 34 9 28
f 34 29 22
f 35 22 30
f 35 34 22
f 35 14 9
f 35 9 34
f 35 30 27
f 35 27 14
