v -0.027663395 0.020921153 0.030472034
v -0.011548497 0.005622065 0.015030683
v -0.016876329 0.028030028 0.000524343
v -0.038168971 0.022235062 0.000495229
v -0.032353034 0.000458939 0.030720070
v -0.013093748 0.014113038 0.000617898
v -0.017018842 0.027057365 0.008199129
v -0.022173747 0.000180454 0.030731924
v -0.037168993 0.018248601 0.030570005
v -0.021459987 0.026924894 0.000376872
v -0.032386994 0.001148816 0.011499670
v -0.017177001 0.025343001 0.019973001
v -0.037456263 0.018950520 0.025055281
v -0.036138617 0.014051729 0.030725679
v -0.034881329 0.010429068 0.000561246
v -0.014096560 0.017822339 0.000494101
v -0.015128284 0.000155655 0.013714480
v -0.012089240 0.005933929 0.017318818
v -0.023058991 0.003277554 0.030774393
v -0.030376213 0.020155230 0.030523302
v -0.037120643 0.022543375 0.000389082
v -0.015305629 0.022265056 0.000489161
v -0.011665802 0.006484179 0.012818673
v -0.022160966 0.011560782 0.000732383
v -0.012914382 0.010100989 0.017810828
v -0.015734778 0.000224628 0.018734130
v -0.016232103 0.025667590 0.000499264
f 10 7 3
f 11 5 4
f 12 7 1
f 14 9 13
f 14 13 4
f 14 4 5
f 15 11 4
f 16 6 15
f 16 3 7
f 16 7 12
f 17 8 5
f 17 5 11
f 17 11 15
f 19 12 1
f 19 8 12
f 19 1 14
f 19 14 5
f 19 5 8
f 20 14 1
f 20 9 14
f 20 1 7
f 20 7 10
f 21 15 4
f 21 16 15
f 21 10 16
f 21 20 10
f 21 9 20
f 21 13 9
f 21 4 13
f 22 16 10
f 23 17 6
f 23 6 2
f 23 2 17
f 24 17 15
f 24 15 6
f 24 6 17
f 25 12 8
f 25 8 18
f 25 18 2
f 25 2 6
f 25 16 12
f 25 6 16
f 26 17 2
f 26 2 18
f 26 18 8
f 26 8 17
f 27 22 10
f 27 10 3
f 27 3 16
f 27 16 22
