v -0.028069970 0.005038002 -0.011336932
v -0.026325705 0.001572947 -0.016329642
v -0.027379565 0.010228687 -0.045560273
v -0.034493577 0.010393274 -0.045331978
v -0.030610776 -0.004222471 -0.022533565
v -0.028519412 0.010334509 -0.019545817
v -0.033832871 0.007059293 -0.012842159
v -0.026259519 -0.005422430 -0.047685992
v -0.027402508 0.010334509 -0.027364144
v -0.032522129 0.002371219 -0.013452245
v -0.034728050 0.010471759 -0.019541753
v -0.026265806 0.001307964 -0.046785655
v -0.026536742 -0.004215169 -0.023738507
v -0.030113259 -0.005269496 -0.047553782
v -0.032966875 0.003949776 -0.012835017
v -0.026251023 -0.003227839 -0.047392716
f 7 1 6
f 8 4 3
f 9 3 4
f 9 6 1
f 9 1 2
f 10 5 2
f 10 2 1
f 11 7 6
f 11 9 4
f 11 6 9
f 12 8 3
f 12 9 2
f 12 3 9
f 13 8 2
f 13 2 5
f 13 5 8
f 14 8 5
f 14 4 8
f 14 5 10
f 14 11 4
f 14 7 11
f 15 10 1
f 15 1 7
f 15 14 10
f 15 7 14
f 16 12 2
f 16 2 8
f 16 8 12
