v -0.015151919 0.005867050 0.018358101
v -0.005032142 -0.017883194 0.012785581
v -0.011910509 0.006944427 0.015070561
v -0.015223010 0.006174966 0.012153566
v -0.015116566 -0.017588087 0.011727490
v -0.007394252 -0.008982901 0.011663117
v -0.012020087 0.006914603 0.017298580
v -0.013582022 -0.017351953 0.018672869
v -0.015658418 -0.002002047 0.018834387
v -0.011544824 0.005959758 0.013228077
v -0.004977003 -0.017868216 0.011672853
v -0.011217923 -0.017641234 0.016564972
v -0.005392600 -0.017520061 0.013951688
v -0.015151151 -0.012008890 0.019515146
v -0.013077152 0.006429510 0.012505610
v -0.005259229 -0.016828108 0.011657874
v -0.006343948 -0.013393168 0.014478037
v -0.010724237 0.002269603 0.016699898
f 6 5 4
f 7 3 4
f 7 4 1
f 9 1 4
f 9 4 5
f 10 7 6
f 10 3 7
f 11 2 5
f 12 8 5
f 12 5 2
f 12 2 8
f 13 8 2
f 14 9 5
f 14 5 8
f 14 7 1
f 14 1 9
f 15 10 6
f 15 6 4
f 15 4 3
f 15 3 10
f 16 11 5
f 16 5 6
f 16 6 11
f 17 13 2
f 17 14 8
f 17 8 13
f 17 11 6
f 17 2 11
f 18 7 14
f 18 14 17
f 18 17 6
f 18 6 7
