v -0.022857235 -0.011972714 0.045170197
v -0.014631512 -0.017398430 0.035918722
v -0.015083878 -0.007182111 0.012646697
v -0.026156866 -0.012560807 0.009925381
v -0.027139937 -0.017184467 0.031706165
v -0.011926092 -0.017603055 0.017101624
v -0.029741144 -0.007209982 0.034879883
v -0.017824531 -0.007721349 0.036671478
v -0.022659037 -0.017478473 0.042771927
v -0.022914311 -0.012092657 0.009562701
v -0.027293569 -0.017246709 0.015088254
v -0.030007076 -0.007424165 0.012410854
v -0.015866039 -0.012296613 0.036887537
v -0.029280478 -0.007421344 0.036192987
v -0.022376404 -0.014015486 0.044771394
v -0.012462554 -0.017653101 0.017513590
v -0.028642208 -0.012284228 0.011023526
v -0.028308117 -0.013867477 0.024024356
v -0.017092191 -0.008988618 0.036973270
v -0.012116990 -0.012036367 0.016850983
v -0.025180636 -0.011610615 0.042409176
v -0.025925487 -0.017112372 0.036974787
v -0.022397461 -0.016257660 0.043671955
v -0.029422958 -0.009380529 0.031710444
v -0.023902175 -0.013734108 0.043066891
v -0.023369020 -0.011732299 0.044668309
v -0.027247402 -0.016061492 0.033685264
v -0.027032470 -0.012641561 0.038088726
v -0.023871910 -0.017126918 0.041189567
v -0.028225197 -0.013824486 0.030586167
v -0.028244860 -0.012713346 0.033938882
v -0.023762202 -0.015959915 0.042169587
v -0.025933486 -0.014831860 0.038863544
v -0.023170988 -0.017238088 0.042270009
f 8 3 7
f 10 3 6
f 11 10 6
f 11 4 10
f 11 9 5
f 12 7 3
f 12 10 4
f 12 3 10
f 13 1 2
f 14 8 7
f 14 1 8
f 15 2 1
f 16 6 2
f 16 2 9
f 16 11 6
f 16 9 11
f 17 12 4
f 17 4 11
f 18 11 5
f 18 17 11
f 18 12 17
f 19 8 1
f 19 1 13
f 20 13 2
f 20 2 6
f 20 6 3
f 20 19 13
f 20 3 8
f 20 8 19
f 22 5 9
f 23 15 9
f 23 9 2
f 23 2 15
f 24 7 12
f 24 12 18
f 26 1 14
f 26 14 21
f 26 25 1
f 26 21 25
f 27 5 22
f 28 21 14
f 28 14 7
f 28 27 22
f 28 7 27
f 29 22 9
f 30 24 18
f 30 18 5
f 31 7 24
f 31 27 7
f 31 5 27
f 31 30 5
f 31 24 30
f 32 25 21
f 32 15 1
f 32 1 25
f 33 28 22
f 33 22 29
f 33 21 28
f 33 32 21
f 33 29 32
f 34 32 29
f 34 29 9
f 34 9 15
f 34 15 32
