v -0.004867561 0.023574612 0.056718542
v 0.014951858 0.017014841 0.031806988
v 0.008017000 0.028895000 0.044612002
v 0.007576837 0.031401923 0.026066986
v -0.006048052 0.017009982 0.045680302
v 0.012775350 0.032858371 0.026047628
v 0.008324936 0.016868200 0.047539066
v -0.005618575 0.024938901 0.045614728
v 0.007221512 0.019269740 0.026247241
v 0.009968657 0.030357333 0.038145415
v 0.011557638 0.016755576 0.042515767
v 0.002858084 0.026416173 0.051914964
v -0.006401116 0.017085886 0.056734976
v 0.000701383 0.028673802 0.031739810
v 0.003853233 0.017353924 0.031757734
v 0.015998294 0.019231756 0.026202629
v 0.010429723 0.016795690 0.044445049
v 0.010213783 0.026756743 0.040193783
v 0.013845275 0.016749564 0.035963034
v 0.006024130 0.025793485 0.048594009
v 0.002021440 0.016970728 0.053185297
v -0.005810954 0.024648888 0.047281251
v 0.001593967 0.025164887 0.031759448
v 0.015056127 0.023473510 0.025937356
v 0.010280671 0.017884160 0.044351604
v 0.008723114 0.029390536 0.042508149
v 0.012450998 0.020033781 0.038118744
v 0.006452420 0.028077213 0.047291641
v 0.008236719 0.017972013 0.047457415
v -0.000059836 0.025278542 0.054183460
v 0.005248289 0.016959675 0.050785296
v -0.004328856 0.017122604 0.056157551
v -0.006126935 0.023175926 0.057045528
v 0.012903131 0.032428121 0.025960106
v 0.004516934 0.027151015 0.050004825
v 0.006736835 0.028218001 0.046859955
v -0.004145756 0.023824353 0.056380852
v 0.004930576 0.019095527 0.050849427
v 0.009157166 0.020116709 0.045464369
f 1 3 4
f 6 4 3
f 13 5 11
f 14 8 4
f 14 5 8
f 14 4 9
f 15 9 2
f 15 5 9
f 16 2 9
f 18 3 11
f 19 11 5
f 19 2 6
f 19 15 2
f 19 5 15
f 21 17 7
f 21 13 11
f 21 11 17
f 22 8 5
f 22 5 13
f 22 1 4
f 22 4 8
f 23 14 9
f 23 9 5
f 23 5 14
f 24 16 9
f 24 9 4
f 25 17 11
f 25 11 3
f 26 18 10
f 26 3 18
f 26 10 6
f 26 6 3
f 27 18 11
f 27 11 19
f 27 10 18
f 27 19 6
f 27 6 10
f 29 7 17
f 30 12 3
f 31 21 7
f 31 30 21
f 31 12 30
f 32 21 1
f 32 1 13
f 32 13 21
f 33 22 13
f 33 13 1
f 33 1 22
f 34 24 4
f 34 4 6
f 34 16 24
f 34 6 2
f 34 2 16
f 35 20 28
f 35 29 20
f 35 12 29
f 35 28 3
f 35 3 12
f 36 3 28
f 36 25 3
f 36 28 20
f 36 20 29
f 37 1 21
f 37 21 30
f 37 30 3
f 37 3 1
f 38 31 7
f 38 12 31
f 38 29 12
f 38 7 29
f 39 36 29
f 39 29 17
f 39 17 25
f 39 25 36
