v -0.023281069 0.010455472 0.006318481
v -0.022996679 0.010555446 0.006174297
v -0.034923971 0.010417191 0.006145414
v -0.034728050 0.010471759 -0.019541753
v -0.020713080 0.004098149 -0.017279115
v -0.022934893 0.010334509 -0.019545817
v -0.030996848 0.007688895 0.007118135
v -0.033781586 0.007073577 -0.019543159
v -0.032630742 0.002745904 -0.012936201
v -0.028693995 0.003272279 -0.013430119
v -0.034098104 0.007451097 0.006172826
f 1 2 3
f 3 2 4
f 5 2 1
f 6 4 2
f 6 2 5
f 7 5 1
f 7 1 3
f 8 6 5
f 8 4 6
f 9 8 5
f 9 3 4
f 9 4 8
f 10 9 5
f 10 5 7
f 10 7 9
f 11 9 7
f 11 7 3
f 11 3 9
