v -0.016540227 0.032245305 -0.027430481
v -0.012641428 0.017914565 -0.027410600
v -0.011763923 0.018114271 -0.044958902
v -0.036676001 0.018197000 -0.044225000
v -0.038453984 0.024081177 -0.027353986
v -0.013697655 0.024950783 -0.043586367
v -0.016267597 0.031242450 -0.027425215
v -0.038216033 0.026918541 -0.032614455
v -0.036849812 0.018321292 -0.027359156
v -0.013550190 0.024499984 -0.044053157
v -0.038982303 0.025983339 -0.027532377
v -0.016473001 0.032974001 -0.032435000
v -0.014956976 0.024246158 -0.044046280
v -0.038993758 0.026193932 -0.033266170
f 3 2 4
f 7 5 2
f 7 1 5
f 7 2 3
f 7 3 1
f 9 4 2
f 9 2 5
f 10 6 3
f 11 5 1
f 11 1 8
f 11 9 5
f 12 8 1
f 12 6 8
f 12 1 3
f 12 3 6
f 13 6 10
f 13 10 3
f 13 3 4
f 14 11 8
f 14 4 9
f 14 9 11
f 14 13 4
f 14 8 6
f 14 6 13
