v 0.000594484 0.001133180 -0.049739963
v 0.001017708 -0.017699140 -0.051782843
v 0.000357881 -0.017030636 -0.057805806
v -0.025935718 -0.005468876 -0.055500730
v -0.026259519 -0.005422430 -0.047685992
v -0.027103917 -0.025544169 -0.051930731
v 0.000671080 0.001939919 -0.055277165
v 0.000489528 -0.016175522 -0.049644554
v -0.026537535 -0.024519852 -0.058031161
v -0.026546719 -0.007719303 -0.048452879
v -0.018439142 -0.003198076 -0.047615314
v 0.000838477 0.001377362 -0.050980646
v 0.000554073 -0.014395017 -0.057459101
v 0.000569275 -0.016457796 -0.049699611
v -0.022907321 -0.004312379 -0.047634753
f 6 3 2
f 9 6 4
f 9 3 6
f 10 6 5
f 10 5 4
f 10 4 6
f 11 8 1
f 12 1 2
f 12 2 7
f 12 11 1
f 12 7 11
f 13 7 2
f 13 2 3
f 13 4 7
f 13 9 4
f 13 3 9
f 14 2 1
f 14 1 8
f 14 6 2
f 14 8 5
f 14 5 6
f 15 11 7
f 15 7 4
f 15 4 5
f 15 5 8
f 15 8 11
