v -0.020395031 0.019238589 0.056663756
v -0.020247267 0.001649170 0.052185914
v -0.022173747 0.000180454 0.030731924
v -0.037168993 0.018248601 0.030570005
v -0.033009000 0.017101999 0.046859000
v -0.031653502 0.000711879 0.037017584
v -0.027675016 0.020902067 0.030583750
v -0.020394342 0.020407466 0.048429677
v -0.025581041 0.017423895 0.053940671
v -0.020553802 0.000363460 0.051654799
v -0.032353034 0.000458939 0.030720070
v -0.036317342 0.017257350 0.039242574
v -0.027456998 0.020083625 0.030541234
v -0.020188962 0.005031987 0.053191425
v -0.021830987 -0.000076066 0.033247797
v -0.025452195 0.018171151 0.054223486
v -0.028427184 0.000719722 0.044535382
v -0.035019516 0.016344445 0.042600807
v -0.032717791 0.002921752 0.035056269
v -0.036085799 0.014085730 0.033940940
v -0.033772543 0.019202003 0.030546811
v -0.021074495 0.020705075 0.044990824
v -0.029807092 0.017442912 0.050768015
v -0.021087928 0.012970320 0.055008863
v -0.030638942 0.000681710 0.040379247
v -0.035255540 0.017077511 0.042601077
v -0.033824112 0.007433657 0.036998689
v -0.037088291 0.017960109 0.032762889
v -0.036138617 0.014051729 0.030725679
v -0.033895851 0.006254581 0.032827830
v -0.029338812 0.020439562 0.030563697
v -0.029708018 0.017458491 0.050853696
v -0.029460040 0.014199080 0.049746200
v -0.020353902 0.012831186 0.055234877
v -0.021420553 0.018453754 0.056182607
v -0.036105661 0.015196823 0.037293460
v -0.022063530 0.000679310 0.050855785
v -0.021345826 0.019019663 0.056332083
v -0.023367414 0.017412783 0.055096131
v -0.023010489 0.005224341 0.051762006
v -0.025201663 0.000776018 0.048359095
v -0.025223550 0.013052119 0.052853189
v -0.028290380 0.004167908 0.046351718
f 10 2 9
f 13 3 11
f 14 8 1
f 14 2 8
f 15 8 2
f 15 3 8
f 15 2 10
f 15 11 3
f 15 10 11
f 16 1 8
f 16 12 5
f 16 9 2
f 19 11 6
f 21 12 7
f 21 4 12
f 21 13 11
f 21 11 4
f 22 8 3
f 22 3 13
f 22 13 7
f 22 7 12
f 22 16 8
f 22 12 16
f 24 16 2
f 24 2 14
f 25 11 10
f 25 10 17
f 25 6 11
f 25 17 5
f 25 5 18
f 26 18 5
f 26 5 12
f 27 19 6
f 27 26 12
f 27 18 26
f 27 25 18
f 27 6 25
f 28 12 4
f 29 4 11
f 29 11 20
f 29 28 4
f 29 20 28
f 30 20 11
f 30 11 19
f 31 21 7
f 31 7 13
f 31 13 21
f 32 9 16
f 32 16 5
f 32 5 23
f 33 23 5
f 33 5 17
f 34 24 14
f 34 14 1
f 35 24 34
f 36 19 27
f 36 30 19
f 36 20 30
f 36 27 12
f 36 28 20
f 36 12 28
f 38 1 16
f 38 35 34
f 38 34 1
f 39 16 24
f 39 24 35
f 39 38 16
f 39 35 38
f 40 37 10
f 40 10 9
f 41 23 33
f 41 17 10
f 41 10 37
f 41 32 23
f 42 40 9
f 42 9 32
f 42 32 41
f 42 41 37
f 42 37 40
f 43 41 33
f 43 33 17
f 43 17 41
