v -0.026281381 -0.022010149 -0.023209347
v -0.026433704 -0.029279688 -0.024269936
v -0.026250835 -0.019982974 -0.057432843
v -0.037142999 -0.008590000 -0.055594999
v -0.036358439 -0.012208007 -0.028540177
v -0.032244999 -0.026109001 -0.058079001
v -0.025932530 -0.006831357 -0.027296122
v -0.033706000 -0.021888350 -0.023291855
v -0.026537535 -0.024519852 -0.058031161
v -0.026224359 -0.005549260 -0.055503158
v -0.030296480 -0.005174935 -0.028477282
v -0.026270608 -0.027478755 -0.024005517
v -0.031270999 -0.030595999 -0.024527000
v -0.030113259 -0.005269496 -0.047553782
f 6 4 3
f 6 5 4
f 8 2 1
f 8 1 7
f 8 5 6
f 9 6 3
f 10 7 3
f 10 3 4
f 11 4 5
f 11 8 7
f 11 5 8
f 11 7 10
f 12 7 1
f 12 1 2
f 12 3 7
f 12 9 3
f 12 2 9
f 13 8 6
f 13 2 8
f 13 9 2
f 13 6 9
f 14 11 10
f 14 10 4
f 14 4 11
