v 0.028385921 0.002146779 -0.003245896
v 0.035506546 0.002335302 -0.028693460
v 0.030064235 0.025150599 -0.028792668
v 0.006672856 0.018568842 -0.028510906
v 0.010905238 0.002319156 -0.028457058
v 0.027588001 0.022944000 -0.018116999
v 0.024317151 0.001928386 -0.004749519
v 0.008683747 0.019151819 -0.028656206
v 0.035229920 0.002268982 -0.027654437
v 0.008375711 0.002324069 -0.018715098
v 0.005711399 0.017274335 -0.023056460
v 0.033958815 0.008933436 -0.028814754
v 0.027607107 0.002032858 -0.003483283
v 0.009678754 0.002846525 -0.024815763
v 0.007753424 0.018057142 -0.022772877
v 0.019869735 0.002114249 -0.006689920
v 0.035270983 0.003395730 -0.028759780
v 0.033988918 0.002239256 -0.023221827
v 0.007353807 0.015435716 -0.028124643
v 0.006485975 0.017906060 -0.024206868
v 0.009530540 0.003818541 -0.025204100
v 0.006209515 0.018087576 -0.026031575
f 6 3 4
f 8 5 4
f 8 4 3
f 9 7 5
f 9 5 2
f 10 5 7
f 11 1 6
f 12 8 3
f 12 3 6
f 13 7 9
f 14 5 10
f 15 11 6
f 16 11 10
f 16 10 7
f 16 1 11
f 16 13 1
f 16 7 13
f 17 2 5
f 17 5 8
f 17 8 12
f 17 9 2
f 17 12 6
f 17 6 9
f 18 13 9
f 18 1 13
f 18 9 6
f 18 6 1
f 19 4 5
f 19 11 4
f 19 14 10
f 19 10 11
f 20 11 15
f 21 19 5
f 21 5 14
f 21 14 19
f 22 4 11
f 22 11 20
f 22 20 15
f 22 15 6
f 22 6 4
