v -0.016913877 0.028195125 0.000385249
v -0.008139671 0.001205916 -0.026544943
v -0.016540227 0.032245305 -0.027430481
v -0.038982303 0.025983339 -0.027532377
v -0.034881329 0.010429068 0.000561246
v -0.007649987 0.002539081 -0.028219731
v -0.013093748 0.014113038 0.000617898
v -0.038168971 0.022235062 0.000495229
v -0.031876082 0.000464387 -0.027391827
v -0.019256215 0.031499906 -0.027530490
v -0.008951906 0.009401665 -0.027507178
v -0.028729141 0.002307587 -0.014664938
v -0.014330647 0.013751713 0.000726301
v -0.008088596 0.001184166 -0.027405875
v -0.023690076 0.030262308 -0.027547611
v -0.015305629 0.022265056 0.000489161
v -0.037432064 0.019587107 0.000567828
v -0.022160966 0.011560782 0.000732383
v -0.023881551 0.002628781 -0.016043987
v -0.026567453 0.002619503 -0.014906640
f 7 2 6
f 8 1 4
f 9 4 6
f 9 8 4
f 10 3 6
f 11 6 3
f 11 3 1
f 11 7 6
f 12 9 2
f 12 5 9
f 13 2 7
f 14 9 6
f 14 6 2
f 14 2 9
f 15 10 6
f 15 6 4
f 15 4 1
f 15 1 3
f 15 3 10
f 16 13 7
f 16 1 13
f 16 11 1
f 16 7 11
f 17 13 1
f 17 1 8
f 17 9 5
f 17 8 9
f 18 5 12
f 18 2 13
f 18 17 5
f 18 13 17
f 19 12 2
f 19 2 18
f 20 19 18
f 20 18 12
f 20 12 19
