v -0.006401116 0.017085886 0.056734976
v 0.019022427 0.000166101 0.031695196
v 0.012467269 0.016709028 0.040201429
v 0.003943763 0.017057038 0.031826847
v -0.006206746 0.000106765 0.044188801
v 0.015086217 0.016779299 0.031530342
v 0.009725203 0.000206945 0.048563983
v -0.006048052 0.017009982 0.045680302
v 0.008369728 0.000581028 0.031990413
v 0.013568629 0.016683244 0.037002045
v 0.018315800 0.003347415 0.031496237
v 0.005248289 0.016959675 0.050785296
v 0.016160670 0.000032429 0.040334572
v -0.006206131 0.000315249 0.055006072
v -0.006474552 0.012634962 0.056472492
v 0.003861316 0.017324050 0.033100852
v 0.005131033 0.012932638 0.031747994
v 0.010429723 0.016795690 0.044445049
v -0.002207213 0.017040491 0.055398410
v 0.017013513 0.002206917 0.036881578
v 0.018469136 0.000033462 0.033773218
v 0.006498445 0.000218006 0.050964110
v -0.006280099 0.002647121 0.055285735
v 0.008324936 0.016868200 0.047539066
v 0.011404176 0.015651612 0.043238838
v 0.000136044 0.001486560 0.053914105
v -0.005364986 0.017104245 0.056446264
v 0.012838290 0.000121429 0.045347592
v 0.002021440 0.016970728 0.053185297
v 0.014987390 0.000059310 0.042267697
v -0.004063324 0.002669752 0.055092574
v 0.013545981 0.009999028 0.041303494
v 0.002246387 0.000287063 0.053136053
v -0.002096396 0.009304584 0.055035830
v 0.007143132 0.011274046 0.049712854
v 0.009263518 0.015669411 0.046647813
v 0.014843517 0.004486798 0.041150008
v -0.000918425 0.000355473 0.054137201
v 0.009355688 0.003452566 0.048576281
v 0.012750073 0.001225242 0.045265942
v -0.003205962 0.004835300 0.055062058
v 0.011467783 0.007845449 0.045512385
f 8 4 5
f 9 2 5
f 10 6 3
f 11 2 9
f 11 10 2
f 11 6 10
f 15 8 5
f 15 1 8
f 16 8 1
f 16 4 8
f 16 6 4
f 17 9 5
f 17 5 4
f 17 11 9
f 17 4 6
f 17 6 11
f 18 3 6
f 20 10 3
f 20 3 13
f 21 13 5
f 21 5 2
f 21 20 13
f 21 2 10
f 21 10 20
f 22 7 12
f 22 14 5
f 23 15 5
f 23 5 14
f 24 16 12
f 24 6 16
f 24 18 6
f 25 3 18
f 27 16 1
f 27 19 12
f 27 12 16
f 28 7 22
f 29 22 12
f 29 12 19
f 29 19 22
f 30 22 5
f 30 5 13
f 30 28 22
f 30 25 18
f 31 23 14
f 31 15 23
f 32 3 25
f 33 22 19
f 33 14 22
f 34 19 27
f 34 33 19
f 34 26 33
f 34 27 1
f 35 24 12
f 36 30 18
f 36 18 24
f 37 30 13
f 37 25 30
f 37 32 25
f 37 13 3
f 37 3 32
f 38 26 34
f 38 34 1
f 38 1 15
f 38 31 14
f 38 33 26
f 38 14 33
f 39 7 28
f 39 35 12
f 39 12 7
f 40 36 24
f 40 28 30
f 40 24 35
f 40 39 28
f 40 35 39
f 41 38 15
f 41 15 31
f 41 31 38
f 42 40 30
f 42 30 36
f 42 36 40
