v 0.000694000 -0.003045000 -0.020085000
v 0.003912795 -0.014529937 -0.021836637
v 0.000808900 -0.001800528 -0.028632819
v -0.030296480 -0.005174935 -0.028477282
v -0.033706000 -0.021888350 -0.023291855
v -0.011787186 0.001410118 -0.025177542
v 0.000261993 -0.022015035 -0.022852810
v -0.006312423 0.001407812 -0.028799905
v -0.036041580 -0.013042056 -0.022035181
v 0.003791289 -0.014118755 -0.021655767
v 0.004242854 -0.014440104 -0.028520555
v -0.008768952 0.001472149 -0.026345805
v -0.006704974 0.001433367 -0.028637836
v -0.030330671 -0.005184457 -0.024009948
v -0.036358439 -0.012208007 -0.028540177
v -0.026455548 -0.028535407 -0.029563375
v -0.035042864 -0.017107674 -0.022613736
v -0.036326645 -0.012354624 -0.027443802
v 0.003678282 -0.012359957 -0.028550499
v -0.034020799 -0.020604624 -0.028471159
v 0.000282563 -0.021285771 -0.027952993
v -0.026433704 -0.029279688 -0.024269936
v -0.026599477 -0.028751652 -0.028321945
f 8 1 3
f 10 7 2
f 10 1 7
f 10 2 3
f 10 3 1
f 11 3 2
f 11 2 7
f 12 6 1
f 12 1 8
f 13 8 4
f 13 4 6
f 13 12 8
f 13 6 12
f 14 9 1
f 14 1 6
f 14 6 4
f 15 14 4
f 16 8 3
f 16 15 4
f 16 4 8
f 18 9 14
f 18 14 15
f 18 17 9
f 18 5 17
f 19 16 3
f 19 3 11
f 19 11 16
f 20 15 16
f 20 18 15
f 20 5 18
f 21 16 11
f 21 11 7
f 21 7 16
f 22 7 1
f 22 1 9
f 22 17 5
f 22 9 17
f 23 20 16
f 23 5 20
f 23 22 5
f 23 16 7
f 23 7 22
