v 0.019986723 0.000129517 0.028301516
v 0.025316404 -0.022285507 0.028457376
v 0.030602303 -0.011172243 0.000223055
v 0.006530210 -0.008451324 0.000460241
v 0.000282567 0.000657567 0.017517574
v 0.009959715 -0.022650788 0.000754008
v 0.008551843 0.000344110 0.028466677
v 0.028467551 -0.002284143 0.000236330
v 0.031520559 -0.016612548 0.000696831
v 0.015505811 -0.025047793 0.028584980
v 0.022523794 -0.023093954 0.028650636
v 0.008268826 0.000616768 0.027071929
v 0.022602995 -0.000046567 0.019159462
v 0.013164514 -0.006583761 0.000376599
v 0.012463358 -0.021947441 0.000732222
v 0.030561261 -0.017612114 0.005852125
v 0.007787127 -0.025099039 0.014026413
v 0.015211274 -0.023954323 0.028658100
v 0.000552429 0.000565497 0.016464984
v 0.007137408 -0.023853558 0.014040983
v 0.008449154 -0.024219666 0.008836570
v 0.018089968 -0.024331832 0.028633474
v 0.000991076 0.000281772 0.014893731
v 0.007378265 -0.023975811 0.013143212
f 6 4 3
f 8 1 3
f 10 6 9
f 11 2 1
f 11 1 7
f 12 7 1
f 12 5 7
f 13 1 8
f 13 12 1
f 13 5 12
f 14 8 3
f 14 3 4
f 15 9 6
f 15 6 3
f 15 3 9
f 16 9 3
f 16 10 9
f 16 2 10
f 16 1 2
f 16 3 1
f 18 7 5
f 18 5 10
f 18 11 7
f 19 13 8
f 19 5 13
f 20 17 10
f 20 10 5
f 20 5 4
f 21 6 10
f 21 10 17
f 21 20 4
f 21 4 6
f 22 18 10
f 22 11 18
f 22 10 2
f 22 2 11
f 23 19 8
f 23 8 14
f 23 14 4
f 23 4 5
f 23 5 19
f 24 21 17
f 24 17 20
f 24 20 21
