v -0.006126935 0.023175926 0.057045528
v -0.006206131 0.000315249 0.055006072
v -0.005901341 0.024838962 0.045761961
v -0.021113944 0.001254305 0.036507346
v -0.020176105 0.019288998 0.056740126
v -0.006183377 0.000268262 0.044213173
v -0.005894088 0.023827344 0.052907352
v -0.012522442 0.021249092 0.058016044
v -0.020123103 0.000600636 0.051948697
v -0.021074495 0.020705075 0.044990824
v -0.020829135 0.000237410 0.036363879
v -0.005848610 0.010270017 0.045228483
v -0.009397456 0.000512966 0.055043289
v -0.006297462 0.010488518 0.056205734
v -0.020259141 0.016253645 0.056032775
v -0.020523316 -0.000047398 0.036772449
v -0.018133963 0.019760762 0.057441580
v -0.007411097 0.000431999 0.055126202
v -0.015803018 0.000608290 0.053837654
v -0.007670882 0.020471342 0.057305500
v -0.012756286 0.016135710 0.057359159
v -0.018866749 0.005145039 0.053916085
v -0.014677893 0.003965226 0.054926885
v -0.007634164 0.022696804 0.057436742
v -0.015813937 0.020362745 0.057773160
v -0.011879371 0.016069526 0.057352557
v -0.019940632 0.002934920 0.052716991
v -0.018128898 0.019539246 0.057404533
f 7 1 2
f 7 3 1
f 10 3 4
f 10 4 9
f 10 1 3
f 10 8 1
f 11 4 3
f 11 3 6
f 11 9 4
f 12 6 3
f 12 3 7
f 12 7 2
f 12 2 6
f 14 2 1
f 15 10 9
f 15 5 10
f 16 11 6
f 16 6 2
f 16 2 9
f 16 9 11
f 17 10 5
f 17 8 10
f 18 13 2
f 18 2 14
f 19 9 2
f 19 2 13
f 20 14 1
f 20 8 14
f 21 13 18
f 22 19 15
f 22 9 19
f 23 19 13
f 23 5 15
f 23 15 19
f 24 20 1
f 24 1 8
f 24 8 20
f 25 21 8
f 25 8 17
f 26 21 18
f 26 8 21
f 26 18 14
f 26 14 8
f 27 22 15
f 27 15 9
f 27 9 22
f 28 23 13
f 28 17 5
f 28 5 23
f 28 13 21
f 28 25 17
f 28 21 25
