v 0.000406410 0.000308210 0.053763534
v 0.024503754 -0.023009614 0.031959887
v 0.017070117 -0.000014178 0.038020461
v 0.008551843 0.000344110 0.028466677
v 0.000229591 -0.031068382 0.040914425
v 0.019986723 0.000129517 0.028301516
v 0.019520686 -0.025868357 0.042294480
v 0.000776585 0.000284077 0.042377662
v 0.015505811 -0.025047793 0.028584980
v 0.019156786 -0.000069442 0.031418550
v 0.009725203 0.000206945 0.048563983
v 0.022869463 -0.024190866 0.037068694
v 0.001308027 -0.032132495 0.050541673
v 0.000471708 -0.030836637 0.039757610
v 0.025133884 -0.021196541 0.028178344
v 0.018035901 -0.002281925 0.036844878
v 0.010964855 -0.029173067 0.048722230
v 0.013672048 0.000021487 0.044376957
v 0.000356992 -0.032382944 0.050432259
v 0.009442463 -0.002749168 0.028407664
v 0.025316404 -0.022285507 0.028457376
v 0.023604501 -0.021272866 0.033487984
v 0.006498445 0.000218006 0.050964110
v 0.005692000 -0.030873001 0.050301999
v 0.011704462 -0.005451464 0.047466093
v 0.020610999 -0.025385000 0.041039001
v 0.017033804 -0.003344570 0.040039228
v 0.000222828 -0.010819100 0.053107329
v 0.011997302 -0.011591591 0.028386326
v 0.020592166 -0.002226902 0.028157509
v 0.023939242 -0.023439604 0.033879127
v 0.002246387 0.000287063 0.053136053
v 0.009084233 -0.028672790 0.049492803
v 0.015001928 -0.027727639 0.046488498
v 0.014962641 -0.006596236 0.044129379
v 0.015961842 -0.001084768 0.041061486
v 0.000639311 -0.030786639 0.050730761
v 0.000227059 -0.032178387 0.048733936
v 0.002639091 -0.020786545 0.051753096
v 0.021668694 -0.006704196 0.028146140
v 0.007811225 -0.030201621 0.049751760
v 0.016085025 -0.021114161 0.045244244
v 0.016917879 -0.001165253 0.039077918
f 8 5 1
f 8 1 4
f 10 6 3
f 11 3 6
f 11 6 4
f 14 8 4
f 14 5 8
f 16 10 3
f 16 2 10
f 16 3 12
f 18 3 11
f 20 14 4
f 20 9 14
f 21 2 9
f 21 9 15
f 21 10 2
f 21 6 10
f 22 2 16
f 24 9 2
f 24 13 19
f 24 14 9
f 25 18 11
f 26 7 12
f 26 25 7
f 27 26 12
f 28 1 5
f 28 24 1
f 29 15 9
f 29 9 20
f 30 20 4
f 30 4 6
f 30 21 15
f 30 6 21
f 31 2 22
f 31 22 16
f 31 16 12
f 32 23 11
f 32 17 23
f 32 11 4
f 32 4 1
f 33 32 1
f 33 17 32
f 34 23 17
f 34 17 24
f 34 12 7
f 34 31 12
f 34 24 2
f 34 2 31
f 34 11 23
f 35 26 18
f 35 18 25
f 35 25 26
f 36 3 18
f 36 18 26
f 36 26 27
f 37 28 19
f 37 19 13
f 37 13 28
f 38 28 5
f 38 19 28
f 38 5 14
f 38 24 19
f 38 14 24
f 39 28 13
f 39 13 24
f 39 24 28
f 40 29 20
f 40 20 30
f 40 30 15
f 40 15 29
f 41 24 17
f 41 17 33
f 41 33 1
f 41 1 24
f 42 34 7
f 42 7 25
f 42 25 11
f 42 11 34
f 43 36 27
f 43 3 36
f 43 27 12
f 43 12 3
