v -0.017116736 -0.017841132 0.028523423
v -0.007692865 -0.029570357 0.014728841
v -0.008469168 -0.017587848 0.014969987
v -0.027213118 -0.017535345 0.015079755
v -0.022062716 -0.035540530 0.028485423
v -0.007582988 -0.026522059 0.014507845
v -0.027315360 -0.017563817 0.028481765
v -0.012602670 -0.032930367 0.028737349
v -0.022678197 -0.033819640 0.015140566
v -0.021061781 -0.035285661 0.028663964
v -0.014134946 -0.028037456 0.028812556
v -0.022930479 -0.032912391 0.015087460
v -0.022718724 -0.033970406 0.025141268
v -0.022196190 -0.035423447 0.027397494
v -0.022578580 -0.034279095 0.018576308
v -0.026128419 -0.021682907 0.028364856
v -0.022647655 -0.033930797 0.027236091
f 6 4 3
f 7 1 3
f 7 3 4
f 8 5 2
f 8 2 6
f 8 6 3
f 9 2 5
f 9 6 2
f 10 7 5
f 10 5 8
f 11 1 7
f 11 10 8
f 11 7 10
f 11 8 3
f 11 3 1
f 12 4 6
f 12 6 9
f 13 7 4
f 13 4 12
f 15 14 13
f 15 9 5
f 15 5 14
f 15 13 12
f 15 12 9
f 16 5 7
f 17 7 13
f 17 13 14
f 17 16 7
f 17 14 5
f 17 5 16
