v -0.024372409 0.001852771 -0.016550758
v -0.007616596 -0.005280743 -0.028319592
v -0.007262296 0.001233661 -0.047346652
v -0.017141015 -0.003817074 -0.049808503
v -0.026389377 -0.010515620 -0.028428420
v -0.007321363 -0.002961224 -0.050502736
v -0.026265806 0.001307964 -0.046785655
v -0.007267942 0.001397306 -0.028407355
v -0.023277289 -0.009662406 -0.028307400
v -0.026546719 -0.007719303 -0.048452879
v -0.026481680 0.001131551 -0.016852937
v -0.010348031 -0.001910229 -0.049854901
v -0.012158245 0.001479117 -0.024994015
v -0.007236012 -0.001057065 -0.049733774
v -0.026325705 0.001572947 -0.016329642
v -0.012909783 -0.005176962 -0.050637781
v -0.026591075 -0.009794435 -0.033910647
v -0.026551972 -0.000797832 -0.019322574
v -0.014781804 -0.003148109 -0.049872072
v -0.009557578 -0.004066974 -0.050586094
v -0.026589049 -0.008684777 -0.041730001
f 7 1 3
f 8 3 1
f 8 2 6
f 9 2 1
f 10 7 4
f 13 8 1
f 13 1 2
f 13 2 8
f 14 8 6
f 14 3 8
f 14 6 12
f 14 12 7
f 14 7 3
f 15 9 1
f 15 5 9
f 15 11 5
f 15 1 7
f 15 7 11
f 16 2 9
f 16 9 5
f 16 10 4
f 17 16 5
f 18 11 7
f 18 7 10
f 18 17 5
f 18 5 11
f 19 12 6
f 19 4 7
f 19 7 12
f 19 16 4
f 19 6 16
f 20 16 6
f 20 6 2
f 20 2 16
f 21 18 10
f 21 17 18
f 21 10 16
f 21 16 17
