v 0.003870840 -0.014403176 -0.021696111
v 0.005594000 -0.020563999 -0.022569999
v 0.001167000 0.002078000 -0.055273000
v 0.000671080 0.001939919 -0.055277165
v -0.000604276 -0.021019599 -0.027926158
v -0.002604488 -0.002760143 -0.028595759
v 0.000534222 -0.021902381 -0.022832756
v 0.005828765 -0.015507067 -0.057759987
v 0.000808900 -0.001800528 -0.028632819
v 0.000357881 -0.017030636 -0.057805806
v -0.001562868 -0.012775437 -0.028413750
v 0.000533943 -0.014087093 -0.021694881
v 0.005509688 -0.013451608 -0.057475813
v -0.002517761 0.000280225 -0.049860938
v 0.000213257 -0.017607880 -0.054014501
v 0.005685671 -0.019569020 -0.029404146
v -0.001645425 -0.008330364 -0.049639271
v 0.000717220 -0.020953976 -0.029434843
v 0.004692944 -0.020809210 -0.022617791
f 9 1 2
f 9 2 3
f 10 4 8
f 11 7 6
f 11 5 7
f 12 7 1
f 12 6 7
f 12 9 6
f 12 1 9
f 13 8 4
f 13 4 3
f 14 4 10
f 14 3 4
f 14 9 3
f 14 6 9
f 15 7 5
f 16 8 13
f 16 10 8
f 16 2 10
f 16 13 3
f 16 3 2
f 17 11 6
f 17 6 14
f 17 5 11
f 17 15 5
f 17 14 10
f 17 10 15
f 18 15 10
f 18 7 15
f 19 7 18
f 19 2 1
f 19 1 7
f 19 18 10
f 19 10 2
