v 0.030064235 0.025150599 -0.028792668
v 0.038564166 -0.010481181 -0.028640273
v 0.038575159 0.002202054 -0.039479458
v 0.009258000 0.021253999 -0.042344000
v 0.007192581 0.016186901 -0.028225744
v 0.017057698 -0.015278776 -0.037225184
v 0.031739000 0.026643001 -0.036013000
v 0.037080473 -0.010940113 -0.028330214
v 0.006672856 0.018568842 -0.028510906
v 0.039129999 -0.009977000 -0.031079000
v 0.016192558 -0.003654953 -0.045742664
v 0.028778358 0.024770922 -0.028651271
v 0.015390302 -0.017010544 -0.028303445
v 0.015074559 0.000454266 -0.045292795
v 0.017885979 -0.014572512 -0.037406793
v 0.037887140 0.001223871 -0.039410610
v 0.015156259 -0.016167287 -0.028191562
v 0.026977680 -0.000913524 -0.042814101
v 0.021129557 -0.014292700 -0.036147847
v 0.016840650 -0.012231051 -0.039500136
v 0.038703536 0.000858112 -0.038790970
v 0.033683994 -0.011893384 -0.028307006
v 0.018060176 -0.001128866 -0.044927504
v 0.034644290 0.000924525 -0.040655502
f 7 1 3
f 7 3 4
f 7 4 1
f 8 2 1
f 9 1 4
f 9 4 5
f 10 1 2
f 12 8 1
f 12 5 8
f 12 9 5
f 12 1 9
f 13 6 2
f 14 11 5
f 14 5 4
f 17 5 11
f 17 11 13
f 19 6 15
f 19 10 2
f 19 2 6
f 19 15 16
f 20 15 6
f 20 11 18
f 20 13 11
f 20 6 13
f 21 16 3
f 21 19 16
f 21 10 19
f 21 3 1
f 21 1 10
f 22 17 13
f 22 8 5
f 22 5 17
f 22 13 2
f 22 2 8
f 23 18 11
f 23 11 14
f 23 14 4
f 23 4 18
f 24 3 16
f 24 16 15
f 24 20 18
f 24 15 20
f 24 18 4
f 24 4 3
