v -0.000918425 0.000355473 0.054137201
v 0.000277905 -0.007480907 0.053304193
v 0.000776585 0.000284077 0.042377662
v -0.015708371 -0.004449717 0.040347836
v -0.014896652 -0.007369445 0.052312609
v 0.000630384 -0.007557427 0.042252723
v -0.015252902 0.000208937 0.042132848
v 0.000406410 0.000308210 0.053763534
v -0.007164852 -0.007307424 0.053938556
v -0.015130169 -0.007542032 0.039666126
v -0.014772654 0.000542767 0.054128987
v -0.015563826 -0.001075447 0.041583696
v -0.005176960 -0.007386764 0.054013024
v -0.013473505 -0.007854160 0.040728801
v -0.012449832 -0.003857451 0.053829324
v -0.001829185 -0.005149014 0.053979415
v -0.013574956 -0.007214387 0.052740093
v -0.000973502 -0.002982720 0.053940337
f 6 3 2
f 8 1 2
f 8 2 3
f 8 3 1
f 10 4 3
f 10 3 6
f 10 5 4
f 11 1 3
f 11 3 7
f 11 4 5
f 12 7 3
f 12 3 4
f 12 11 7
f 12 4 11
f 13 9 5
f 13 5 2
f 13 11 9
f 13 1 11
f 14 10 6
f 14 6 2
f 14 2 5
f 14 5 10
f 15 11 5
f 15 9 11
f 16 13 2
f 16 1 13
f 17 15 5
f 17 5 9
f 17 9 15
f 18 16 2
f 18 2 1
f 18 1 16
