v 0.028531667 -0.001651973 -0.000529588
v 0.031797697 -0.016510397 0.000523107
v 0.038500720 -0.010036136 -0.028793893
v 0.010713491 0.002008783 -0.028344404
v 0.007249597 -0.011721559 0.000827082
v 0.035506546 0.002335302 -0.028693460
v 0.009370093 0.001712858 -0.017189190
v 0.015353931 -0.017048319 -0.028108835
v 0.036347589 -0.001081546 -0.028771125
v 0.006530210 -0.008451324 0.000460241
v 0.009443830 0.002788625 -0.023753996
v 0.038564166 -0.010481181 -0.028640273
v 0.009959715 -0.022650788 0.000754008
v 0.018023372 -0.016275307 -0.028294851
v 0.020022136 0.001631807 -0.006290433
v 0.009454521 -0.020663786 0.000820424
v 0.028385921 0.002146779 -0.003245896
v 0.029301258 0.002186506 -0.006530233
f 5 2 1
f 9 3 4
f 9 4 6
f 9 6 2
f 10 5 1
f 11 6 4
f 11 10 7
f 11 5 10
f 11 4 8
f 12 2 8
f 12 9 2
f 12 3 9
f 13 8 2
f 13 11 8
f 14 8 4
f 14 4 3
f 14 12 8
f 14 3 12
f 15 7 10
f 15 11 7
f 16 13 2
f 16 2 5
f 16 5 11
f 16 11 13
f 17 15 10
f 17 10 1
f 17 11 15
f 17 1 2
f 18 6 11
f 18 11 17
f 18 17 2
f 18 2 6
