v -0.007267942 0.001397306 -0.028407355
v -0.002691965 -0.008615119 -0.028473688
v -0.002802080 0.000180279 -0.049716702
v -0.007321363 -0.002961224 -0.050502736
v -0.007332192 -0.005180743 -0.028463829
v -0.002547170 -0.005225017 -0.048570263
v -0.007262296 0.001233661 -0.047346652
v -0.002604488 -0.002760143 -0.028595759
v -0.002771712 -0.008332844 -0.028418631
v -0.007612667 -0.003061078 -0.043958223
v -0.002526794 -0.008570166 -0.031815631
v -0.003977562 -0.004045857 -0.050744323
v -0.004835895 0.001896663 -0.037355857
v -0.006951648 -0.000957107 -0.049877959
v -0.002519803 -0.000829376 -0.042041576
v -0.007614642 -0.004170923 -0.036138894
v -0.002774299 -0.004169915 -0.049699230
v -0.005676755 0.001557564 -0.046925699
v -0.004522842 0.001505478 -0.029533022
v -0.002521845 -0.001938977 -0.034222213
f 9 5 2
f 9 1 5
f 9 8 1
f 9 2 8
f 10 7 4
f 10 1 7
f 11 5 4
f 11 2 5
f 11 4 6
f 11 8 2
f 12 6 4
f 12 4 3
f 13 7 1
f 14 7 3
f 14 3 4
f 14 4 7
f 15 6 3
f 15 11 6
f 16 5 1
f 16 1 10
f 16 10 4
f 16 4 5
f 17 12 3
f 17 3 6
f 17 6 12
f 18 13 3
f 18 3 7
f 18 7 13
f 19 13 1
f 19 1 8
f 19 15 3
f 19 3 13
f 20 8 11
f 20 11 15
f 20 19 8
f 20 15 19
