v 0.016633829 0.010181128 0.031651613
v 0.023453151 -0.000348173 0.016397072
v 0.019866898 0.010014132 0.020310797
v -0.001191685 0.010685250 0.013271165
v 0.008369728 0.000581028 0.031990413
v 0.000183455 0.010913081 0.013671485
v 0.019022427 0.000166101 0.031695196
v 0.005785155 0.010541982 0.031941351
v 0.000991076 0.000281772 0.014893731
v 0.006052587 0.009494657 0.031978103
v -0.002476367 0.010522795 0.018916832
v 0.002534093 0.000053882 0.015137758
v 0.000282567 0.000657567 0.017517574
v 0.019433432 -0.000003122 0.030379538
f 1 2 3
f 6 3 2
f 6 2 4
f 6 1 3
f 7 2 1
f 8 1 6
f 9 4 2
f 10 7 1
f 10 5 7
f 10 1 8
f 11 8 6
f 11 6 4
f 11 10 8
f 11 5 10
f 12 5 9
f 12 9 2
f 13 9 5
f 13 5 11
f 13 11 4
f 13 4 9
f 14 7 5
f 14 5 12
f 14 12 2
f 14 2 7
