v -0.012641428 0.017914565 -0.027410600
v -0.002454006 0.006084986 -0.030260998
v -0.011684354 0.017829821 -0.044999248
v -0.036676001 0.018197000 -0.044225000
v -0.027402508 0.001399279 -0.027364144
v -0.036849812 0.018321292 -0.027359156
v -0.002375957 0.008243270 -0.044623447
v -0.006704974 0.001433367 -0.028637836
v -0.034493577 0.010393274 -0.045331978
v -0.007004445 0.008406956 -0.028328082
v -0.005676755 0.001557564 -0.046925699
v -0.035037351 0.011813594 -0.027353420
v -0.002807210 0.006463893 -0.045119060
v -0.004522842 0.001505478 -0.029533022
v -0.027381788 0.001303712 -0.046753864
v -0.003021536 0.004252975 -0.030076706
v -0.010612276 0.009048617 -0.046204537
v -0.008761151 0.008933452 -0.046147155
v -0.011359559 0.016668711 -0.045163939
f 6 1 3
f 6 3 4
f 7 1 2
f 7 3 1
f 8 1 5
f 9 6 4
f 9 4 3
f 10 8 2
f 10 2 1
f 10 1 8
f 12 9 5
f 12 6 9
f 12 5 1
f 12 1 6
f 13 11 7
f 13 7 2
f 14 2 8
f 14 8 11
f 15 11 8
f 15 8 5
f 15 5 9
f 15 9 3
f 16 13 2
f 16 2 14
f 16 14 11
f 16 11 13
f 17 11 15
f 18 11 17
f 18 7 11
f 19 18 17
f 19 3 7
f 19 7 18
f 19 17 15
f 19 15 3
